<svg width="61" height="53" viewBox="0 0 61 53" fill="none" xmlns="http://www.w3.org/2000/svg">
<path d="M17.3263 31.5289C16.667 31.8936 15.9797 31.9076 15.3484 31.6972C14.3805 31.3746 13.7914 30.5049 14.2683 29.4528C14.4927 28.9478 14.9977 28.6392 15.5308 28.4568C15.7131 28.3867 15.8113 28.4989 15.7412 28.7093C15.6851 28.9057 15.629 29.1021 15.6009 29.3125C15.5448 29.6772 15.7131 29.9157 16.0638 30.0279C16.1059 30.042 16.134 30.056 16.176 30.056C16.4426 30.042 16.7792 30.1682 16.9476 29.8876C17.1159 29.6211 16.9055 29.3546 16.7792 29.1161C16.5408 28.6392 16.2462 28.1763 15.9797 27.7134C15.8394 27.4749 15.8674 27.2084 15.9376 26.9699C16.0217 26.7034 16.4145 26.6192 16.6249 26.8016C17.1159 27.2364 17.705 27.3767 18.3363 27.4469C18.8413 27.503 19.3463 27.6152 19.8653 27.6432C21.1558 27.7134 22.4323 27.6853 23.7228 27.6573C24.6907 27.6292 25.6446 27.4749 26.6265 27.4469C27.1315 27.4328 27.6225 27.2926 28.1275 27.2645C28.8429 27.2224 29.5302 27.0401 30.2316 26.9699C30.6524 26.9278 31.0592 26.8016 31.466 26.7034C32.2375 26.507 33.009 26.3106 33.7665 26.0722C34.7484 25.7776 35.7163 25.4269 36.6702 25.0482C37.3014 24.7957 37.9187 24.5011 38.5359 24.1925C39.0549 23.94 39.5599 23.6594 40.0649 23.3929C40.4717 23.1685 40.8785 22.916 41.2432 22.6354C41.8604 22.1725 42.4916 21.7096 42.9405 21.0503C43.4595 20.3069 43.3894 19.6756 42.6038 19.1145C41.7762 18.5254 40.8364 18.329 39.8545 18.1606C39.0409 18.0204 38.2273 17.8941 37.3856 17.9082C37.7223 17.7118 38.101 17.7258 38.4517 17.6416C39.7282 17.3611 41.0047 17.3471 42.2672 17.7118C43.2631 17.9923 44.1048 18.5394 44.6238 19.4792C44.75 19.7177 44.8202 19.9842 44.8202 20.2788C44.8062 21.0082 44.8202 21.7377 44.8202 22.4811C45.0727 22.3689 45.2971 22.1304 45.5356 21.92C45.8863 21.5974 46.237 21.2748 46.4895 20.8539C46.6999 20.5173 46.6999 20.1666 46.4333 19.9001C46.237 19.7037 46.0125 19.5494 45.8021 19.381C45.6478 19.2688 45.4795 19.1426 45.5356 18.9322C45.5917 18.7358 45.7881 18.6656 45.9845 18.6656C46.8261 18.6236 47.5275 18.9322 47.9623 19.6616C48.2008 20.0544 48.2148 20.5453 48.1307 21.0082C47.9343 21.9902 47.4012 22.7617 46.6718 23.449C46.237 23.8558 45.7741 24.2065 45.241 24.445C45.0446 24.5432 44.9745 24.6554 45.0306 24.9079C45.213 25.9599 45.213 27.026 45.213 28.1062C45.213 28.8216 45.1288 29.5229 44.9324 30.2103C44.75 30.8415 44.4835 31.4307 44.0908 31.9777C43.5437 32.7352 42.8423 33.3104 42.0708 33.8154C41.4816 34.2081 40.8644 34.5588 40.2192 34.8534C39.8124 35.0357 39.4196 35.2181 39.0128 35.3864C38.4517 35.6249 37.8766 35.8353 37.2874 36.0457C36.9227 36.172 36.544 36.2982 36.1652 36.4104C35.4638 36.6209 34.7484 36.8172 34.033 36.9856C33.5281 37.1118 33.0231 37.21 32.504 37.3222C31.6343 37.5046 30.7646 37.6308 29.8809 37.7571C28.0714 37.9956 26.2618 38.0937 24.4382 37.9956C23.4142 37.9394 22.4183 37.7992 21.4644 37.4345C20.3983 37.0277 19.4444 36.4104 18.729 35.4706C18.21 34.8113 17.8453 34.0819 17.6209 33.2823C17.4525 32.7212 17.2982 32.1601 17.3263 31.5289ZM22.769 36.2421C22.9513 36.2421 23.1477 36.2421 23.3301 36.2421C23.4703 36.2421 23.6387 36.2281 23.6667 36.0738C23.6948 35.9475 23.5545 35.8213 23.4283 35.7652C22.8672 35.4987 22.3341 35.176 21.8432 34.7973C21.3241 34.3905 20.9173 33.8715 20.6789 33.2683C20.258 32.2443 19.9915 31.1642 19.9354 30.042C19.9214 29.8315 19.8092 29.6772 19.6408 29.6071C19.4865 29.537 19.3322 29.6772 19.234 29.7895C19.1358 29.9157 19.0236 30.07 18.9956 30.2243C18.8413 31.0098 18.687 31.7814 18.7852 32.595C18.8272 33.0018 18.8974 33.4226 18.9956 33.8154C19.1499 34.5027 19.4444 35.1339 20.0757 35.4987C20.9033 36.0036 21.787 36.2702 22.769 36.2421Z" fill="#00934C"/>
<path d="M21.6187 15.8601C21.0857 15.804 20.5947 15.7058 20.0897 15.5655C19.3182 15.3411 18.9255 14.6958 19.1499 13.9384C19.4164 13.0687 20.0056 12.4795 20.735 11.9885C21.0997 11.7501 21.4644 11.5256 21.8712 11.3853C22.4744 11.1609 23.0776 11.0487 23.6527 11.5116C24.0174 11.8062 24.1156 12.1989 24.0736 12.6338C24.0315 12.9705 23.9473 13.3071 23.8351 13.6298C23.7509 13.8682 23.765 14.1207 23.7088 14.3592C23.6808 14.4433 23.7088 14.5836 23.8211 14.5976C23.9052 14.6257 23.9613 14.5275 24.0174 14.4433C24.1437 14.247 24.1858 14.0365 24.2559 13.8261C24.4102 13.2931 24.4383 12.6759 24.9433 12.3112C25.3501 12.0306 25.7709 11.7781 26.2057 11.5256C26.5705 11.3152 26.9632 11.1188 27.342 10.9365C27.9592 10.6279 28.5904 10.3333 29.2357 10.0808C29.7407 9.8844 30.2597 9.70205 30.7787 9.53372C31.8308 9.169 32.9109 9.05678 34.005 9.15498C34.9589 9.23914 35.8987 10.0387 36.0811 10.9645C36.1933 11.5256 36.1653 12.1148 35.9689 12.6899C35.6743 13.5456 35.2114 14.3031 34.6503 14.9904C34.2014 15.5515 33.6684 16.0705 33.1353 16.5615C32.3638 17.2629 31.5502 17.9222 30.7086 18.5674C30.1194 19.0163 29.5162 19.4652 28.899 19.886C28.366 20.2507 27.847 20.6435 27.2999 20.9942C26.7528 21.3449 26.1917 21.6815 25.6306 22.0042C24.9994 22.3829 24.3822 22.7617 23.7369 23.1124C23.0776 23.4771 22.3903 23.7857 21.7169 24.1364C21.3242 24.3468 20.9174 24.5291 20.5106 24.7115C19.7811 25.0341 19.0657 25.3427 18.3083 25.5812C17.9856 25.6794 17.663 25.7916 17.3263 25.8898C16.5127 26.1002 15.6991 26.3247 14.8575 26.2685C14.1561 26.2265 13.4828 26.0722 12.9778 25.5531C12.7534 25.3147 12.5991 25.0201 12.571 24.6554C12.4868 23.5612 12.9217 22.6354 13.4688 21.7377C14.1842 20.5734 15.124 19.6055 16.148 18.7077C16.8775 18.0765 17.6069 17.4593 18.3223 16.814C18.6028 16.5475 18.9255 16.323 19.2481 16.1126C19.5427 15.9162 19.8934 15.9583 20.216 16.0144C20.5667 16.0705 20.9314 16.0285 21.2821 16.0425C21.4224 16.0425 21.4925 15.9022 21.6187 15.8601ZM19.0096 18.5534C18.5467 18.7498 18.2101 19.0584 17.8734 19.353C16.7091 20.3489 15.7412 21.4711 15.3344 22.9861C15.2222 23.421 15.1801 23.8558 15.4186 24.2766C15.629 24.6554 16.3164 24.7255 16.625 24.4029C16.9055 24.1083 16.9616 23.7296 17.0318 23.3789C17.1299 22.8458 17.2281 22.3128 17.3965 21.8078C17.7191 20.896 18.196 20.0684 18.687 19.2408C18.7992 19.0444 18.9816 18.862 19.0096 18.5534Z" fill="#00934C"/>
<path d="M37.5541 20.5313C36.6423 20.1806 35.8568 19.7177 35.464 18.7779C35.2957 18.357 35.3097 17.9081 35.3658 17.4593C35.5201 16.3371 36.2355 15.6497 37.1192 15.0606C37.8907 14.5415 38.7464 14.1347 39.532 13.6157C40.1351 13.2089 40.7103 12.732 41.0329 12.0587C41.3836 11.3012 41.4818 10.5297 41.2153 9.70205C40.8926 8.73415 40.1913 8.07486 39.4197 7.47167C38.7745 6.96668 38.1152 6.48975 37.4839 5.97073C36.9228 5.50782 36.4599 4.96075 36.2074 4.2734C36.0111 3.72633 35.9409 3.13717 36.0812 2.56204C36.2916 1.66428 36.8808 1.14527 37.7084 0.794578C38.1012 0.626247 38.4939 0.570138 38.9007 0.5C38.5641 0.654303 38.2555 0.850688 37.9609 1.07513C37.6803 1.28554 37.4278 1.52401 37.3156 1.8747C37.1753 2.36566 37.3577 2.75843 37.6523 3.12314C38.1012 3.64216 38.6763 4.02091 39.2654 4.38562C39.7564 4.6802 40.2614 4.96075 40.7524 5.22727C41.2714 5.50782 41.8184 5.76032 42.3234 6.0549C42.8424 6.34947 43.3194 6.71419 43.7402 7.14904C44.0488 7.47168 44.3294 7.82236 44.5398 8.21513C45.0588 9.18303 45.2692 10.193 44.9886 11.3152C44.7081 12.3953 44.0488 13.1949 43.2072 13.8402C42.4918 14.4013 41.6641 14.794 40.7944 15.1026C40.1211 15.3411 39.4478 15.5094 38.7745 15.7339C38.3396 15.8882 37.9188 16.0565 37.498 16.2529C36.6283 16.6878 35.8848 18.0484 36.3056 19.0023C36.5441 19.5353 36.8667 19.9562 37.3296 20.3069C37.3998 20.363 37.512 20.391 37.5541 20.5313Z" fill="#FCB116"/>
<path d="M1.30707 50.3678C0.886243 50.3257 0.577637 50.0171 0.577637 49.5963V41.8812C0.577637 41.4323 0.914297 41.0956 1.36318 41.0956H5.66962C5.88003 41.0956 6.06239 41.1798 6.21669 41.3341C6.37099 41.4884 6.44113 41.6708 6.44113 41.8812C6.44113 42.1056 6.35697 42.288 6.21669 42.4423C6.06239 42.5966 5.88003 42.6807 5.66962 42.6807H2.13469V44.9111H4.7438C5.19268 44.9111 5.52934 45.2618 5.52934 45.6826C5.52934 45.9071 5.44518 46.0754 5.3049 46.2157C5.1506 46.37 4.96824 46.4401 4.7438 46.4401H2.13469V48.8528H5.66962C5.88003 48.8528 6.06239 48.937 6.21669 49.0913C6.37099 49.2456 6.44113 49.428 6.44113 49.6384C6.44113 49.8628 6.35697 50.0452 6.21669 50.1855C6.06239 50.3398 5.88003 50.4099 5.66962 50.4099H1.30707V50.3678Z" fill="#00934C"/>
<path d="M8.08225 49.442C7.40893 48.7687 7.07227 47.9691 7.07227 47.0293C7.07227 46.1035 7.43698 45.2478 8.08225 44.6025C8.72751 43.9572 9.58319 43.5925 10.495 43.5925C11.4348 43.5925 12.2484 43.9292 12.9077 44.6025C13.581 45.2899 13.9037 46.0894 13.9037 47.0293V49.6384C13.9037 49.8628 13.8195 50.0452 13.6652 50.1995C13.5109 50.3678 13.3285 50.438 13.1041 50.438C12.7394 50.438 12.4588 50.2135 12.3606 49.8769C11.7855 50.2556 11.1683 50.452 10.4809 50.452C9.58319 50.438 8.71348 50.0732 8.08225 49.442ZM10.4809 48.8809C11 48.8809 11.4348 48.6985 11.7995 48.3338C12.1642 47.9691 12.3326 47.5343 12.3326 47.0152C12.3326 46.4962 12.1502 46.0614 11.7995 45.6967C11.4348 45.3319 11 45.1496 10.4809 45.1496C9.96193 45.1496 9.52708 45.3319 9.17639 45.6967C8.81168 46.0614 8.62932 46.4962 8.62932 47.0152C8.62932 47.5343 8.81168 47.9691 9.17639 48.3338C9.5411 48.6985 9.97596 48.8809 10.4809 48.8809Z" fill="#00934C"/>
<path d="M16.1623 49.456C15.489 48.7967 15.1523 47.9972 15.1523 47.0433V42.3441C15.1523 42.1056 15.2365 41.9233 15.3908 41.783C15.5451 41.6287 15.7275 41.5445 15.9379 41.5445C16.1623 41.5445 16.3447 41.6287 16.513 41.769C16.6813 41.9373 16.7655 42.1196 16.7655 42.3441V43.4803H19.2343C19.6692 43.4803 20.0199 43.845 20.0199 44.2658C20.0199 44.4622 19.9357 44.6446 19.7814 44.7989C19.6271 44.9532 19.4448 45.0233 19.2203 45.0233H16.7515V47.0714C16.7515 47.5904 16.9338 48.0252 17.2845 48.3759C17.6352 48.7406 18.0701 48.909 18.5891 48.909C19.052 48.909 19.4448 48.7687 19.7814 48.4881C19.9918 48.3058 20.1882 48.2216 20.3706 48.2216C20.5529 48.2216 20.7213 48.2917 20.8615 48.432C21.0158 48.5863 21.086 48.7687 21.086 48.9651C21.086 49.2316 20.9878 49.442 20.8054 49.6244C20.2163 50.1855 19.4868 50.466 18.6031 50.466C17.6352 50.452 16.8216 50.1153 16.1623 49.456Z" fill="#00934C"/>
<path d="M22.5168 49.442C21.1702 48.2076 21.1702 45.851 22.5168 44.6025C23.1901 43.9292 23.9897 43.5925 24.9295 43.5925C25.8554 43.5925 26.711 43.9572 27.3563 44.6025C28.0016 45.2478 28.3663 46.1175 28.3663 47.0293C28.3663 47.9691 28.0296 48.7827 27.3563 49.442C26.711 50.0873 25.8554 50.452 24.9295 50.452C23.9897 50.438 23.1761 50.1013 22.5168 49.442ZM26.2622 48.3338C26.6269 47.9691 26.8092 47.5343 26.8092 47.0152C26.8092 46.4962 26.6269 46.0614 26.2622 45.6967C25.8974 45.3319 25.4626 45.1496 24.9436 45.1496C24.4246 45.1496 23.9897 45.3319 23.625 45.6967C23.2603 46.0614 23.0779 46.4962 23.0779 47.0152C23.0779 47.5343 23.2603 47.9691 23.625 48.3338C23.9897 48.6985 24.4246 48.8809 24.9436 48.8809C25.4486 48.8809 25.8974 48.6985 26.2622 48.3338Z" fill="#FCB116"/>
<path d="M29.3482 50.1434C29.1799 49.9891 29.0957 49.8067 29.0957 49.5963V46.903C29.0957 45.9772 29.4183 45.2057 30.0636 44.5464C30.6948 43.9011 31.4663 43.5785 32.3922 43.5785C33.2899 43.5785 34.1316 43.9292 34.7488 44.5464C35.4081 45.2057 35.7307 45.9772 35.7307 46.903V49.5963C35.7307 49.8207 35.6606 49.9891 35.5063 50.1434C35.352 50.2977 35.1696 50.3678 34.9592 50.3678C34.7348 50.3678 34.5524 50.2836 34.3981 50.1434C34.2298 49.9891 34.1596 49.8207 34.1596 49.5963V46.917C34.1596 46.412 33.9632 46.0053 33.6266 45.6686C33.2759 45.3179 32.8691 45.1496 32.3781 45.1496C31.8872 45.1496 31.4804 45.3179 31.1437 45.6546C30.8071 45.9912 30.6528 46.4121 30.6528 46.903V49.5963C30.6528 49.8207 30.5826 49.9891 30.4283 50.1434C30.274 50.2977 30.0917 50.3678 29.8812 50.3678C29.6849 50.3678 29.5025 50.2836 29.3482 50.1434Z" fill="#00934C"/>
<path d="M37.6946 49.442C36.3479 48.2076 36.3479 45.851 37.6946 44.6025C38.3679 43.9292 39.1674 43.5925 40.1073 43.5925C41.0331 43.5925 41.8888 43.9572 42.534 44.6025C43.1793 45.2478 43.544 46.1175 43.544 47.0293C43.544 47.9691 43.2074 48.7827 42.534 49.442C41.8888 50.0873 41.0331 50.452 40.1073 50.452C39.1674 50.438 38.3538 50.1013 37.6946 49.442ZM41.4259 48.3338C41.7906 47.9691 41.9729 47.5343 41.9729 47.0152C41.9729 46.4962 41.7906 46.0614 41.4259 45.6967C41.0612 45.3319 40.6263 45.1496 40.1073 45.1496C39.5883 45.1496 39.1534 45.3319 38.7887 45.6967C38.424 46.0614 38.2416 46.4962 38.2416 47.0152C38.2416 47.5343 38.424 47.9691 38.7887 48.3338C39.1534 48.6985 39.5883 48.8809 40.1073 48.8809C40.6263 48.8809 41.0612 48.6985 41.4259 48.3338Z" fill="#FCB116"/>
<path d="M44.7082 50.1434C44.5539 49.9891 44.4697 49.8067 44.4697 49.5963V46.0052C44.4697 45.3319 44.7082 44.7708 45.1851 44.2939C45.6621 43.817 46.2232 43.5785 46.8965 43.5785C47.5277 43.5785 48.0748 43.8029 48.5377 44.2238C49.0006 43.7889 49.5477 43.5785 50.1789 43.5785C50.8663 43.5785 51.4414 43.817 51.9183 44.2939C52.4093 44.7849 52.6618 45.36 52.6618 46.0052V49.5963C52.6618 49.8067 52.5776 49.9891 52.4233 50.1434C52.269 50.2977 52.0867 50.3678 51.8762 50.3678C51.4274 50.3678 51.0907 50.0171 51.0907 49.5963V46.0473C51.0907 45.8089 50.9925 45.6125 50.8101 45.4441C50.6278 45.2758 50.4174 45.1917 50.1789 45.1917C49.9545 45.1917 49.7721 45.2758 49.6038 45.4301C49.4355 45.5844 49.3373 45.7668 49.3232 45.9912C49.3232 46.0053 49.3232 46.0193 49.3232 46.0754V49.5823C49.3232 50.0311 48.9725 50.3678 48.5517 50.3678C48.1028 50.3678 47.7662 50.0311 47.7662 49.5823V46.1034L47.7522 46.0473V46.0333C47.7522 45.7948 47.668 45.5844 47.4997 45.4161C47.3313 45.2478 47.1209 45.1636 46.8965 45.1636C46.4476 45.1636 46.0969 45.4722 46.0128 45.893C46.0128 45.9351 46.0268 46.0193 46.0268 46.0193L45.9987 49.5682C45.9987 49.7787 45.9146 49.961 45.7602 50.1153C45.6059 50.2696 45.4236 50.3398 45.2272 50.3398C45.0448 50.3678 44.8485 50.2836 44.7082 50.1434Z" fill="#00934C"/>
<path d="M59.0443 51.7285V49.6103C58.4692 50.0873 57.852 50.3257 57.1646 50.3257C56.2108 50.3257 55.3972 49.9891 54.7238 49.3157C54.0786 48.6845 53.7139 47.8008 53.7139 46.875V44.3781C53.7139 43.9292 54.0786 43.5785 54.4994 43.5785C54.9343 43.5785 55.2849 43.9292 55.2849 44.3781V46.875C55.2849 47.394 55.4813 47.8288 55.846 48.1935C56.2248 48.5723 56.6596 48.7546 57.1646 48.7546C57.6696 48.7546 58.0904 48.5723 58.4552 48.2216C58.8339 47.8709 59.0303 47.4501 59.0443 46.9591V44.3781C59.0443 44.1536 59.1285 43.9572 59.2688 43.817C59.4231 43.6627 59.6054 43.5785 59.8299 43.5785C60.0403 43.5785 60.2367 43.6627 60.391 43.817C60.5453 43.9713 60.6294 44.1676 60.6294 44.3781V51.7145C60.6294 51.9389 60.5453 52.1212 60.391 52.2756C60.2226 52.4299 60.0403 52.5 59.8158 52.5C59.3529 52.5 59.0443 52.1774 59.0443 51.7285Z" fill="#00934C"/>
</svg>
