<svg id="Layer_1" data-name="Layer 1" xmlns="http://www.w3.org/2000/svg" xmlns:xlink="http://www.w3.org/1999/xlink" viewBox="0 0 512 300"><defs><style>.cls-1{fill:none;}.cls-2{clip-path:url(#clip-path);}.cls-3{fill:#de1f26;}.cls-3,.cls-4,.cls-5{fill-rule:evenodd;}.cls-4{fill:#0180f5;}.cls-5{fill:#0b2e4e;}</style><clipPath id="clip-path"><rect class="cls-1" x="33.54" y="37.91" width="444.93" height="224.18"/></clipPath></defs><g class="cls-2"><path class="cls-3" d="M468.91,48.66c-22,24.68-48.66,56.63-76.25,91.36-4.58,5.77-8.25,10.7-8.17,11,.21.69,11.47,20.93,20.28,36.45,4,7.09,7.17,13,7,13.22s-7,.48-15.1.66c-11,.24-14.91.17-15.32-.25s-3.81-5.85-7.78-12.31-7.5-12.14-7.83-12.63c-.53-.78-1.59.19-9.88,9.06-5.1,5.46-12.76,13.78-17,18.49l-9.25,10.24-1.53,1.68,1.47-1c1.78-1.22,20.27-16.92,28.35-24.07,4.6-4.07,5.92-5,6.26-4.44.24.4,3.07,5.77,6.28,11.95s6,11.39,6.22,11.58,52.48,1.6,52.8,1.28S414.45,183,404,164.38L397,151.74l16.94-22.6c23.86-31.83,40.87-55.51,56.22-78.28,4.68-6.93,8.4-12.6,8.28-12.6S474,42.94,468.91,48.66Z"/><path class="cls-4" d="M401.42,93c-4.07,3.44-11.84,10.1-17.28,14.81s-10.07,8.62-10.29,8.7-3-4.93-6.21-11.12-6.15-11.69-6.55-12.22c-.7-.9-1.95-1-26.91-1.45-14.4-.27-26.22-.46-26.28-.4s16.85,31.22,25.27,46.19l7.32,13-15.3,20.37c-24.37,32.45-43.77,59.47-59.25,82.54-8.29,12.35-8.39,12.43,9.42-7.84,20.46-23.27,38.39-44.76,62.67-75.13,7.65-9.55,14.18-17.71,14.53-18.12.68-.79-2.29-6.38-19.71-37.11-4.17-7.35-7.46-13.5-7.3-13.66.4-.4,30.36-1.08,30.52-.69.07.17,3.73,6.1,8.13,13.17l8,12.86,9.49-10.16c13.2-14.13,27.63-30,27.29-30C408.89,86.71,405.48,89.53,401.42,93Z"/><path class="cls-5" d="M156.49,137.86v47.23h16.15V90.63H156.49Z"/><path class="cls-5" d="M52.52,116.11c-5.87,1-11.91,4.41-15,8.53-2.59,3.4-3.6,6.9-3.6,12.5,0,4.27.14,4.93,1.59,7.89,2.91,5.9,6.7,8.41,18,11.93,7.07,2.19,10,3.59,11.69,5.63,1.45,1.72,1.6,3.17.59,5.6-1.2,2.86-3,3.44-10.56,3.44-7.39,0-10.63-.78-16.52-4L35.6,166v14.72l3.26,1.48a42.07,42.07,0,0,0,16.56,3.7c9.84.41,16.74-1.75,22-6.87,4.41-4.32,6.06-9.51,5.2-16.36-.63-5-2.13-8.52-5-11.63-3.66-4-6.66-5.54-16.25-8.31-8.42-2.44-11.05-4.15-11.05-7.19,0-2.1.75-3.2,3.07-4.43,1.86-1,2.75-1.1,8.92-1.1,6.65,0,9.32.45,14.67,2.51.65.25.75-.57.75-6.09v-6.37l-3.55-1.47A41.4,41.4,0,0,0,52.52,116.11Z"/><path class="cls-5" d="M145,136.47c-2.07-10.24-8.41-17-18.6-19.69-3.43-.92-15.15-1.34-19.58-.71a69,69,0,0,0-10.65,2.41l-1.34.51v13.35l1.1-.31c6.71-2,9-2.35,15.1-2.6,4.47-.18,7.49-.07,9.17.34a11,11,0,0,1,8.75,9.91l.29,2.47-2.15-.29c-12-1.6-24,0-30.3,4-11,7-12.32,23.12-2.59,32.83,3,3,6.33,4.83,11.4,6.24,4.45,1.24,18,1.28,22.41.06,7.57-2.07,12.38-5.91,15.6-12.42l1.88-3.8.15-14.15C145.76,143,145.65,139.74,145,136.47Zm-15.55,22.25c-.34,7.35-1.24,9.3-5.25,11.36-2.55,1.3-3,1.37-7.84,1.2-6.12-.22-8.54-1.22-10.64-4.39-1.16-1.75-1.35-2.53-1.35-5.58,0-2.83.21-3.83,1-4.93,1.27-1.72,4.37-3.49,7.15-4.08,2.33-.5,15.72-.27,16.61.28C129.54,152.83,129.63,154.63,129.44,158.72Z"/><path class="cls-5" d="M239.82,167.22c-8.66,3.44-16.25,4.9-23.79,4.56-7.9-.35-12.58-2.92-14.45-7.94a31.5,31.5,0,0,1-1.27-4.56L200,157.2h44.74l-.23-8.45c-.26-9.43-.92-12.37-4.2-18.72-2.16-4.19-7.15-9.38-10.78-11.22-6.43-3.26-17.31-4.23-24.94-2.23-12.86,3.37-19.45,13.33-20.91,31.56a63.37,63.37,0,0,0,1.47,16.64c1.18,4.63,4.29,10.48,6.95,13.07,5.44,5.3,11.44,7.67,20.47,8.08s18.41-1.24,25.4-4.55l2.74-1.29v-6.61C240.68,167.39,240.61,166.91,239.82,167.22Zm-39.39-23.73c.31-5.12,2.66-10.06,5.82-12.22a13.3,13.3,0,0,1,12.84-1c3.48,1.79,6.33,5.87,7.71,11a20,20,0,0,1,.66,3.56V146l-13.58-.12-13.58-.14Z"/><path class="cls-5" d="M269.8,116.4a26.11,26.11,0,0,0-12,6c-7.68,7.3-7.74,21.25-.11,28,3.07,2.71,4.68,3.48,13.22,6.28s10.77,3.87,12.5,5.93c1.45,1.73,1.61,3.18.6,5.6-1.08,2.57-3.09,3.37-9.15,3.59a32.69,32.69,0,0,1-17.2-3.79l-3.79-1.94v14.7l3.25,1.48a42.77,42.77,0,0,0,16.57,3.68c9.8.43,17-1.81,22-6.9,4.46-4.48,6-9.61,5.09-16.68a19.31,19.31,0,0,0-5.33-11.67c-3-3.2-5.66-4.66-12-6.68-12.93-4.11-14.93-5.22-14.93-8.32,0-2.2.73-3.28,3.07-4.53,1.86-1,2.75-1.11,8.92-1.11,6.65,0,9.32.46,14.67,2.52.65.25.75-.57.75-6.09v-6.37l-3.55-1.47A39.55,39.55,0,0,0,269.8,116.4Z"/></g></svg>