<svg id="Layer_1" data-name="Layer 1" xmlns="http://www.w3.org/2000/svg" xmlns:xlink="http://www.w3.org/1999/xlink" viewBox="0 0 512 300"><defs><style>.cls-1{fill:url(#linear-gradient);}.cls-2{fill:#8624d9;}</style><linearGradient id="linear-gradient" x1="16.28" y1="2135.05" x2="167.07" y2="1964.37" gradientTransform="matrix(1, 0, 0, -1, 0, 2181.53)" gradientUnits="userSpaceOnUse"><stop offset="0" stop-color="#ce29e8"/><stop offset="0.85" stop-color="#7722d5"/></linearGradient></defs><path class="cls-1" d="M111.67,160.77V116.91a44.67,44.67,0,0,1,44.68-44.67v88.51a22.34,22.34,0,0,1-44.68,0ZM67,161.91c0-.38,0-.77,0-1.14V116.91A44.67,44.67,0,0,0,22.33,72.24v88.51a67,67,0,0,0,89.34,63.19A67,67,0,0,1,67,161.91Z"/><path class="cls-2" d="M210.24,174.49a26.45,26.45,0,0,1-10.53-2,15.3,15.3,0,0,1-7-5.87,18.36,18.36,0,0,1-2.48-10V129.31h11.06v26.12c0,3.26.72,5.66,2.17,7.22s3.74,2.36,6.89,2.36,5.42-.79,6.83-2.36,2.13-4,2.13-7.22V129.31h10.55v27.35q0,9-5.23,13.44C221.12,173,216.34,174.49,210.24,174.49Z"/><path class="cls-2" d="M263.88,174.41a33.1,33.1,0,0,1-4-.31,25.75,25.75,0,0,1-5.05-1.18,12.33,12.33,0,0,1-4.4-2.53l2.43-3.56v23H242V138.19a6.89,6.89,0,0,1,1.69-4.71,12.54,12.54,0,0,1,4.53-3.12,27,27,0,0,1,6.4-1.79,46,46,0,0,1,7.41-.57,26.47,26.47,0,0,1,11.09,2.23,16.49,16.49,0,0,1,7.75,7.4q2.83,5.18,2.83,14.24a28,28,0,0,1-2.36,11.88,17.89,17.89,0,0,1-6.75,7.88A19.73,19.73,0,0,1,263.88,174.41Zm-2.7-9.06a12.28,12.28,0,0,0,6.35-1.49,9.11,9.11,0,0,0,3.79-4.53,20.72,20.72,0,0,0,1.25-7.84,26.62,26.62,0,0,0-.91-7.35,9.18,9.18,0,0,0-3.31-5,11.07,11.07,0,0,0-6.76-1.79,18.6,18.6,0,0,0-6.48.87c-1.48.58-2.22,1.38-2.22,2.43v22.46a16,16,0,0,0,4.17,1.66A16.85,16.85,0,0,0,261.18,165.35Z"/><path class="cls-2" d="M306.45,174.49a28.3,28.3,0,0,1-8-1,48.64,48.64,0,0,1-6.35-2.4v-10c1.34.87,2.74,1.69,4.23,2.48a23.07,23.07,0,0,0,4.78,1.87,21.13,21.13,0,0,0,5.61.69,8.32,8.32,0,0,0,5.1-1.3,4,4,0,0,0,1.69-3.31,3.25,3.25,0,0,0-1.3-2.74,11.59,11.59,0,0,0-3.4-1.69c-1.39-.47-2.88-.94-4.44-1.39a33.78,33.78,0,0,1-4.4-1.39A15.27,15.27,0,0,1,295.9,152a10.61,10.61,0,0,1-2.92-3.79,13.11,13.11,0,0,1-1.09-5.61,12.88,12.88,0,0,1,1.56-6.61,13.09,13.09,0,0,1,4.13-4.4,17.1,17.1,0,0,1,5.58-2.44,21.77,21.77,0,0,1,5.87-.66,27.62,27.62,0,0,1,8.09,1.13,34.54,34.54,0,0,1,5.74,2.53v9.06c-2-1.09-4-2.09-5.87-3a15.1,15.1,0,0,0-6.58-1.35,9.92,9.92,0,0,0-5.27,1.18,3.68,3.68,0,0,0-1.87,3.25,3.82,3.82,0,0,0,1.13,2.92,8.08,8.08,0,0,0,3,1.74q1.86.66,4.05,1.26c1.45.4,2.95.86,4.48,1.35a18.18,18.18,0,0,1,4.35,2.1,10,10,0,0,1,3.31,3.69,12.89,12.89,0,0,1,1.25,6.1,12.46,12.46,0,0,1-2.74,8.22,14.9,14.9,0,0,1-6.83,4.48A27.49,27.49,0,0,1,306.45,174.49Z"/><path class="cls-2" d="M354.86,174.15a27.59,27.59,0,0,1-8.35-1.26,20.17,20.17,0,0,1-7.14-3.92,18.33,18.33,0,0,1-5-7,26.31,26.31,0,0,1-1.82-10.32,29.67,29.67,0,0,1,1.74-10.8,19.39,19.39,0,0,1,4.79-7.28,18.87,18.87,0,0,1,7.09-4.14,27.85,27.85,0,0,1,8.58-1.31,37.5,37.5,0,0,1,7.19.7,30.54,30.54,0,0,1,6.58,2v9.66a47.08,47.08,0,0,0-6-2.13,22.25,22.25,0,0,0-6-.83q-6.19,0-9.58,3.05t-3.4,9.93c0,4.83,1.05,8.37,3.13,10.68s5.51,3.43,10.27,3.43a20.62,20.62,0,0,0,6.22-1,38.9,38.9,0,0,0,5.45-2.18v9.58a30.19,30.19,0,0,1-6.35,2.26A32.6,32.6,0,0,1,354.86,174.15Z"/><path class="cls-2" d="M394.83,174.49a34.24,34.24,0,0,1-7-.69,17.75,17.75,0,0,1-5.92-2.36,11.67,11.67,0,0,1-4.13-4.48,16.84,16.84,0,0,1,.29-14.63,11.73,11.73,0,0,1,5.35-4.7A20.72,20.72,0,0,1,392,146a29,29,0,0,1,5.84.57,22.62,22.62,0,0,1,4.87,1.56,17.69,17.69,0,0,1,3.56,2.13l.79,6.18a15.13,15.13,0,0,0-4.66-1.95,23.86,23.86,0,0,0-6.14-.75q-4.62,0-6.88,1.49a5.09,5.09,0,0,0-2.26,4.61,5.36,5.36,0,0,0,1.22,3.56,7.16,7.16,0,0,0,3.13,2.18,11.49,11.49,0,0,0,4,.69,25.78,25.78,0,0,0,6.92-.66,2.71,2.71,0,0,0,2.13-2.82V145.56c0-2.84-.91-4.92-2.7-6.22s-4.32-2-7.58-2a24.89,24.89,0,0,0-7.65,1.26,19,19,0,0,0-6.36,3.27v-10a21.75,21.75,0,0,1,7.07-2.66,44.29,44.29,0,0,1,10.09-1.08,31.4,31.4,0,0,1,4.79.39,21.22,21.22,0,0,1,4.87,1.35,14.86,14.86,0,0,1,4.27,2.69,12.79,12.79,0,0,1,3.05,4.31,15.46,15.46,0,0,1,1.13,6.22l-.08,20.82a8.1,8.1,0,0,1-2.57,6.32,15,15,0,0,1-7.22,3.26A52.56,52.56,0,0,1,394.83,174.49Z"/><path class="cls-2" d="M438.71,173.18h-11V112.67h11Z"/><path class="cls-2" d="M470.32,174.49a23.52,23.52,0,0,1-11.45-2.7,18.66,18.66,0,0,1-7.61-7.78,25.89,25.89,0,0,1-2.69-12.32q0-11.49,5.53-17.59t15.62-6.1c4.76,0,8.63,1.05,11.58,3.13a17.63,17.63,0,0,1,6.45,9A41.35,41.35,0,0,1,489.67,154h-34l-.79-7.49h25.94l-2.08,3.13q-.16-6.87-2.4-9.88c-1.48-2-3.85-3-7.09-3a9.62,9.62,0,0,0-5.15,1.35,8.7,8.7,0,0,0-3.35,4.49,25.14,25.14,0,0,0-1.18,8.62c0,4.53,1.07,8,3.18,10.37s5.38,3.56,9.8,3.56a25.57,25.57,0,0,0,5.18-.51,30.81,30.81,0,0,0,4.61-1.36c1.42-.54,2.66-1.06,3.69-1.53v9.84a40.38,40.38,0,0,1-7,2.13A42.74,42.74,0,0,1,470.32,174.49Z"/></svg>