<?xml version="1.0" encoding="UTF-8"?>
<!DOCTYPE svg PUBLIC "-//W3C//DTD SVG 1.1//EN" "http://www.w3.org/Graphics/SVG/1.1/DTD/svg11.dtd">
<svg xmlns="http://www.w3.org/2000/svg" version="1.1" width="8334px" height="8334px" style="shape-rendering:geometricPrecision; text-rendering:geometricPrecision; image-rendering:optimizeQuality; fill-rule:evenodd; clip-rule:evenodd" xmlns:xlink="http://www.w3.org/1999/xlink">
<g><path style="opacity:0.995" fill="#d7b568" d="M 4182.5,702.5 C 4200.49,724.66 4220.49,745.16 4242.5,764C 4259.6,780.079 4274.43,797.913 4287,817.5C 4305.79,851.777 4309.79,887.777 4299,925.5C 4293.18,946.307 4285.01,966.141 4274.5,985C 4319.87,975.343 4357.03,988.51 4386,1024.5C 4411.59,1064.6 4411.92,1104.94 4387,1145.5C 4359.39,1181.21 4323.22,1195.04 4278.5,1187C 4270.5,1185.06 4262.83,1182.22 4255.5,1178.5C 4254.33,1198.83 4254.17,1219.16 4255,1239.5C 4264.45,1310.92 4301.95,1361.42 4367.5,1391C 4423.63,1414.29 4480.63,1416.62 4538.5,1398C 4567.9,1386.9 4593.9,1370.57 4616.5,1349C 4627.9,1338.27 4638.57,1326.94 4648.5,1315C 4629.1,1290.59 4620.94,1262.76 4624,1231.5C 4632.07,1178.76 4661.91,1145.59 4713.5,1132C 4764.11,1123.57 4804.27,1140.07 4834,1181.5C 4851.62,1210.49 4856.28,1241.49 4848,1274.5C 4834.26,1318.24 4805.1,1345.4 4760.5,1356C 4748.18,1357.9 4735.85,1358.73 4723.5,1358.5C 4700.53,1405.18 4690.03,1454.51 4692,1506.5C 4702.02,1594.17 4747.52,1655.34 4828.5,1690C 4920.45,1723.34 5007.12,1713.01 5088.5,1659C 5045,1627.52 5028.83,1585.36 5040,1532.5C 5055,1485.51 5086.83,1457.67 5135.5,1449C 5183.81,1444.82 5221.47,1462.66 5248.5,1502.5C 5299.15,1462.5 5356.49,1448.17 5420.5,1459.5C 5391.07,1484.43 5364.57,1512.1 5341,1542.5C 5311.25,1581.94 5284.25,1623.28 5260,1666.5C 5212.33,1753.51 5170.33,1843.18 5134,1935.5C 5118.07,1976.18 5102.57,2017.02 5087.5,2058C 4904.51,1979.01 4714.51,1923.01 4517.5,1890C 4217.84,1842.63 3921.51,1858.3 3628.5,1937C 3509.06,1968.87 3392.73,2009.37 3279.5,2058.5C 3243.77,1959.7 3203.6,1862.7 3159,1767.5C 3121.8,1688.71 3077.8,1614.38 3027,1544.5C 3015.04,1529.54 3002.71,1514.87 2990,1500.5C 2976.23,1485.89 2961.73,1472.22 2946.5,1459.5C 3010.35,1448.16 3067.52,1462.49 3118,1502.5C 3144.75,1462.54 3182.25,1444.71 3230.5,1449C 3284.66,1458.82 3317.49,1490.65 3329,1544.5C 3334.45,1592.04 3317.95,1629.71 3279.5,1657.5C 3278.29,1658.27 3278.29,1659.11 3279.5,1660C 3347.12,1705.19 3420.79,1719.19 3500.5,1702C 3561.48,1687.45 3609.31,1654.29 3644,1602.5C 3668.68,1560.79 3678.68,1515.79 3674,1467.5C 3669.75,1429.42 3659.42,1393.09 3643,1358.5C 3590.67,1361.18 3551.67,1339.84 3526,1294.5C 3506.08,1247.5 3512.41,1204.5 3545,1165.5C 3581.73,1130.29 3624.23,1121.12 3672.5,1138C 3723.77,1162.69 3746.94,1203.53 3742,1260.5C 3740.4,1271.25 3737.4,1281.58 3733,1291.5C 3728.51,1300.18 3723.84,1308.51 3719,1316.5C 3742.92,1344.77 3770.76,1368.27 3802.5,1387C 3862.56,1414.96 3923.89,1417.96 3986.5,1396C 4072.38,1361.78 4114.38,1298.28 4112.5,1205.5C 4112.17,1196.5 4111.83,1187.5 4111.5,1178.5C 4071.88,1196.19 4034.55,1192.36 3999.5,1167C 3961.55,1132.25 3951.71,1090.75 3970,1042.5C 3989.5,1003.87 4021,983.539 4064.5,981.5C 4073.53,981.848 4082.36,983.182 4091,985.5C 4084.51,971.844 4078.51,957.844 4073,943.5C 4052.33,890.855 4058.99,842.189 4093,797.5C 4096.67,793.167 4100.33,788.833 4104,784.5C 4125.97,763.529 4147.64,742.195 4169,720.5C 4173.72,714.623 4178.22,708.623 4182.5,702.5 Z M 4182.5,1514.5 C 4217.83,1561.84 4252.83,1609.51 4287.5,1657.5C 4252.91,1705.68 4218.08,1753.68 4183,1801.5C 4148.53,1753.4 4113.7,1705.57 4078.5,1658C 4113.3,1610.23 4147.97,1562.39 4182.5,1514.5 Z M 3703.5,1622.5 C 3742.59,1650.76 3781.26,1679.59 3819.5,1709C 3804.38,1754.35 3788.88,1799.52 3773,1844.5C 3734.5,1816 3696,1787.5 3657.5,1759C 3673.33,1713.67 3688.67,1668.17 3703.5,1622.5 Z M 4661.5,1622.5 C 4677.53,1667.59 4693.2,1712.92 4708.5,1758.5C 4670.19,1787.14 4631.86,1815.8 4593.5,1844.5C 4592.91,1844.29 4592.41,1843.96 4592,1843.5C 4576.93,1798.8 4561.77,1754.13 4546.5,1709.5C 4584.57,1680.09 4622.9,1651.09 4661.5,1622.5 Z M 4996.5,1751.5 C 5009.76,1789.12 5022.76,1826.96 5035.5,1865C 5003.98,1889.67 4971.98,1913.83 4939.5,1937.5C 4926.02,1900.22 4913.02,1862.72 4900.5,1825C 4900.76,1823.74 4901.43,1822.74 4902.5,1822C 4934.08,1798.72 4965.41,1775.22 4996.5,1751.5 Z M 3368.5,1752.5 C 3369.92,1752.71 3371.26,1753.21 3372.5,1754C 3403.83,1777.33 3435.17,1800.67 3466.5,1824C 3453.47,1861.41 3440.64,1898.91 3428,1936.5C 3427.59,1936.96 3427.09,1937.29 3426.5,1937.5C 3394.19,1913.85 3362.19,1889.85 3330.5,1865.5C 3343.57,1827.95 3356.24,1790.28 3368.5,1752.5 Z"/></g>
<g><path style="opacity:0.995" fill="#d7b568" d="M 4181.5,1971.5 C 4182.87,1971.34 4184.21,1971.51 4185.5,1972C 4313.13,2061.49 4450.46,2133.83 4597.5,2189C 4810.66,2265.06 5029.99,2292.73 5255.5,2272C 5356.22,2263.21 5455.89,2247.71 5554.5,2225.5C 5554.33,2260.5 5554.5,2295.5 5555,2330.5C 5583.22,2326.61 5604.55,2336.94 5619,2361.5C 5630.57,2385.22 5637.91,2410.22 5641,2436.5C 5644.26,2464.22 5647.92,2491.89 5652,2519.5C 5662.84,2558.02 5671.5,2597.02 5678,2636.5C 5682.22,2663.26 5683.72,2690.09 5682.5,2717C 5711.39,2761.68 5745.05,2802.68 5783.5,2840C 5831.15,2886.47 5883.82,2926.14 5941.5,2959C 5957.26,2966.88 5972.93,2974.71 5988.5,2982.5C 5985.08,2988.34 5981.91,2994.34 5979,3000.5C 5968.26,3008.79 5957.42,3016.95 5946.5,3025C 5925.46,3044.07 5911.96,3067.57 5906,3095.5C 5901.26,3120.71 5897.26,3146.05 5894,3171.5C 5887.45,3219.14 5863.95,3255.64 5823.5,3281C 5801.91,3292.79 5779.58,3302.96 5756.5,3311.5C 5755.42,3310.64 5755.25,3309.64 5756,3308.5C 5759.97,3302.36 5764.14,3296.36 5768.5,3290.5C 5743.6,3275.69 5721.27,3257.52 5701.5,3236C 5710.1,3237.06 5718.76,3237.89 5727.5,3238.5C 5759.4,3238.08 5778.9,3222.42 5786,3191.5C 5791.02,3161.92 5787.02,3133.59 5774,3106.5C 5747.5,3052 5707,3011.5 5652.5,2985C 5638.29,2978.99 5623.63,2974.49 5608.5,2971.5C 5612.28,2968.1 5616.28,2964.94 5620.5,2962C 5631.54,2955.15 5642.54,2948.32 5653.5,2941.5C 5640.33,2916.48 5625.16,2892.81 5608,2870.5C 5604.03,2865.52 5599.2,2861.69 5593.5,2859C 5580.44,2859.26 5567.77,2861.76 5555.5,2866.5C 5554.67,3110.5 5554.17,3354.5 5554,3598.5C 5536.34,3605.72 5518.51,3612.55 5500.5,3619C 5489.09,3621.2 5477.76,3620.86 5466.5,3618C 5452.05,3612.61 5437.72,3606.94 5423.5,3601C 5414.37,3598.07 5405.04,3596.24 5395.5,3595.5C 5395.5,3202.5 5395.5,2809.5 5395.5,2416.5C 5244.32,2438.64 5092.65,2442.8 4940.5,2429C 4751.55,2409.68 4571.22,2359.68 4399.5,2279C 4325.03,2243.53 4252.87,2204.36 4183,2161.5C 4046.58,2247.12 3901.41,2314.62 3747.5,2364C 3546.17,2425.33 3340.5,2448.33 3130.5,2433C 3077.3,2429.35 3024.3,2423.85 2971.5,2416.5C 2971.5,2809.5 2971.5,3202.5 2971.5,3595.5C 2962.98,3595.92 2954.65,3597.42 2946.5,3600C 2930.04,3606.89 2913.38,3613.23 2896.5,3619C 2886.17,3621 2875.83,3621 2865.5,3619C 2847.99,3612 2830.32,3605.5 2812.5,3599.5C 2812.5,3356.17 2812.5,3112.83 2812.5,2869.5C 2798.3,2864.71 2783.8,2861.04 2769,2858.5C 2761.95,2858.88 2756.29,2861.88 2752,2867.5C 2733.47,2890.71 2717.31,2915.55 2703.5,2942C 2719.86,2950.51 2735.19,2960.51 2749.5,2972C 2715.28,2978.45 2684.62,2992.45 2657.5,3014C 2625.56,3039.59 2600.73,3070.76 2583,3107.5C 2570.5,3133.99 2566.5,3161.66 2571,3190.5C 2577.81,3222.31 2597.47,3238.31 2630,3238.5C 2638.59,3238.03 2647.09,3237.2 2655.5,3236C 2636.12,3258.05 2613.79,3276.39 2588.5,3291C 2593.91,3297.14 2598.57,3303.81 2602.5,3311C 2569.33,3301.25 2538.99,3285.91 2511.5,3265C 2485.04,3240.58 2469.2,3210.41 2464,3174.5C 2460.49,3149.09 2456.49,3123.75 2452,3098.5C 2446.19,3068.69 2432.02,3043.85 2409.5,3024C 2399.33,3016.5 2389.17,3009 2379,3001.5C 2376.01,2994.84 2372.51,2988.51 2368.5,2982.5C 2432.41,2953.4 2490.41,2915.57 2542.5,2869C 2593.3,2824.56 2637.13,2774.39 2674,2718.5C 2673.62,2674.96 2678.28,2631.96 2688,2589.5C 2694,2564.83 2700,2540.17 2706,2515.5C 2709.81,2487.85 2713.48,2460.19 2717,2432.5C 2720,2407.15 2727.34,2383.15 2739,2360.5C 2754.19,2335.87 2776.19,2325.87 2805,2330.5C 2807.48,2330.17 2809.65,2329.17 2811.5,2327.5C 2812.5,2293.51 2812.83,2259.51 2812.5,2225.5C 2958.26,2259.01 3105.93,2276.68 3255.5,2278.5C 3469.87,2278.53 3674.87,2235.03 3870.5,2148C 3979.95,2098.31 4083.62,2039.47 4181.5,1971.5 Z M 4845.5,2736.5 C 4823.9,2804.36 4795.74,2869.36 4761,2931.5C 4752.39,2945.77 4743.39,2959.77 4734,2973.5C 4728.2,2982.3 4720.37,2988.47 4710.5,2992C 4702.78,2993.43 4696.28,2991.26 4691,2985.5C 4688.67,2982.17 4686.33,2978.83 4684,2975.5C 4677.84,2956.34 4665.67,2942.51 4647.5,2934C 4639.62,2931.93 4631.95,2929.26 4624.5,2926C 4609.73,2917.36 4606.57,2905.52 4615,2890.5C 4623.17,2881 4632,2872.17 4641.5,2864C 4680.56,2831.63 4722.23,2802.96 4766.5,2778C 4792.49,2763.5 4818.83,2749.67 4845.5,2736.5 Z"/></g>
<g><path style="opacity:0.99" fill="#d7b568" d="M 1813.5,2149.5 C 1848.48,2147.25 1882.14,2152.75 1914.5,2166C 1931.15,2173.99 1946.15,2184.32 1959.5,2197C 1975.01,2212.06 1989.34,2228.06 2002.5,2245C 2043.13,2259.24 2084.8,2269.24 2127.5,2275C 2146.16,2278.41 2162,2286.91 2175,2300.5C 2180.43,2308.28 2183.6,2316.95 2184.5,2326.5C 2212.18,2344.45 2242.51,2354.95 2275.5,2358C 2304.58,2356.21 2332.91,2359.87 2360.5,2369C 2379.37,2375.88 2395.54,2386.72 2409,2401.5C 2409.75,2405.6 2407.92,2407.76 2403.5,2408C 2391.13,2408.6 2378.79,2408.1 2366.5,2406.5C 2352.68,2405.68 2343.34,2411.68 2338.5,2424.5C 2356.4,2420.15 2373.4,2422.98 2389.5,2433C 2391.67,2435.17 2393.83,2437.33 2396,2439.5C 2397.19,2443.38 2397.86,2447.38 2398,2451.5C 2398.81,2467.56 2398.15,2483.56 2396,2499.5C 2393.6,2506.89 2389.94,2513.56 2385,2519.5C 2379.38,2525.14 2373.04,2529.81 2366,2533.5C 2364.87,2558.15 2360.53,2582.15 2353,2605.5C 2341.29,2582.79 2326.13,2562.62 2307.5,2545C 2273.88,2541.96 2240.22,2539.96 2206.5,2539C 2203,2541.17 2200.17,2544 2198,2547.5C 2182.3,2572.56 2168.97,2598.89 2158,2626.5C 2157.33,2627.83 2157.33,2629.17 2158,2630.5C 2160.5,2632.33 2163,2634.17 2165.5,2636C 2214.58,2657.97 2265.25,2675.47 2317.5,2688.5C 2321.11,2686.72 2323.95,2684.06 2326,2680.5C 2330,2673.67 2332.5,2666.34 2333.5,2658.5C 2331.44,2642.56 2328.11,2626.89 2323.5,2611.5C 2354,2623.16 2374.5,2644.5 2385,2675.5C 2388.36,2688.37 2388.19,2701.21 2384.5,2714C 2390.26,2729.15 2393.6,2744.81 2394.5,2761C 2394.59,2766.05 2393.09,2770.55 2390,2774.5C 2377.73,2787.44 2364.23,2798.94 2349.5,2809C 2326.19,2824.29 2302.36,2838.79 2278,2852.5C 2289.43,2801.27 2270.26,2767.44 2220.5,2751C 2195.65,2743.88 2172.65,2747.55 2151.5,2762C 2137.87,2776.37 2131.21,2793.53 2131.5,2813.5C 2133.25,2845.08 2146.58,2870.58 2171.5,2890C 2177.5,2894 2183.5,2898 2189.5,2902C 2221.8,2917.1 2253.8,2932.76 2285.5,2949C 2342.4,2982.3 2368.07,3032.13 2362.5,3098.5C 2334.84,3056.32 2296.51,3028.82 2247.5,3016C 2291.27,3045.77 2326.77,3083.27 2354,3128.5C 2360.72,3140.93 2366.05,3153.93 2370,3167.5C 2381.62,3141.2 2388.12,3113.7 2389.5,3085C 2389.28,3073.02 2387.94,3061.19 2385.5,3049.5C 2386.79,3048.59 2388.12,3048.76 2389.5,3050C 2407.25,3066.66 2417.75,3087.16 2421,3111.5C 2424.85,3140.31 2429.52,3168.97 2435,3197.5C 2447.77,3248.88 2477.27,3287.38 2523.5,3313C 2536.33,3319.72 2549.33,3326.05 2562.5,3332C 2495.39,3348.64 2435.73,3334.64 2383.5,3290C 2366.37,3275.2 2350.2,3259.37 2335,3242.5C 2330.74,3208.8 2315.24,3181.63 2288.5,3161C 2263.24,3142.44 2236.41,3126.28 2208,3112.5C 2215.06,3044.48 2193.89,2986.98 2144.5,2940C 2137.45,2933.95 2130.12,2928.28 2122.5,2923C 2120.14,2921.64 2117.81,2920.64 2115.5,2920C 2160.87,2967.96 2178.87,3024.8 2169.5,3090.5C 2136.21,3073.86 2105.21,3053.69 2076.5,3030C 2059.8,3015.99 2046.97,2999.15 2038,2979.5C 2035.61,2972.54 2033.61,2965.54 2032,2958.5C 2023.55,2998.06 2032.89,3032.72 2060,3062.5C 2080.25,3082.09 2102.75,3098.59 2127.5,3112C 2165.82,3131.49 2203.82,3151.49 2241.5,3172C 2257.74,3181.56 2272.24,3193.4 2285,3207.5C 2304.81,3231.53 2310.14,3258.53 2301,3288.5C 2298.58,3296.11 2295.58,3303.44 2292,3310.5C 2283.91,3291.74 2271.41,3276.57 2254.5,3265C 2230.81,3250.21 2205.48,3238.87 2178.5,3231C 2139.63,3220.2 2100.63,3209.87 2061.5,3200C 2026.97,3191.49 1994.3,3178.49 1963.5,3161C 1954.78,3155.29 1946.95,3148.45 1940,3140.5C 1945.83,3174.15 1960.66,3203.15 1984.5,3227.5C 1943.54,3221.86 1906.87,3206.02 1874.5,3180C 1831.65,3142.79 1799.15,3097.96 1777,3045.5C 1751.79,2986.33 1736.46,2924.67 1731,2860.5C 1725.35,2929.75 1732.02,2997.75 1751,3064.5C 1754.03,3073.39 1757.19,3082.22 1760.5,3091C 1737.59,3159.37 1694.42,3210.54 1631,3244.5C 1641.18,3194.78 1642.18,3144.78 1634,3094.5C 1631.82,3081.44 1629.32,3068.44 1626.5,3055.5C 1635.78,3034.83 1637.61,3013.49 1632,2991.5C 1628.13,2976.88 1624.46,2962.22 1621,2947.5C 1616.55,2928.03 1618.72,2909.36 1627.5,2891.5C 1627.17,2891.17 1626.83,2890.83 1626.5,2890.5C 1611.14,2902.23 1603.47,2917.9 1603.5,2937.5C 1605.79,2957.97 1607.79,2978.47 1609.5,2999C 1610.06,3025.01 1601.06,3047.01 1582.5,3065C 1563.93,3080.95 1543.27,3093.28 1520.5,3102C 1539.77,3045.98 1546.61,2988.48 1541,2929.5C 1538.94,2913.88 1535.61,2898.55 1531,2883.5C 1530.02,2902.19 1528.68,2920.86 1527,2939.5C 1525.82,2951.07 1523.49,2962.41 1520,2973.5C 1499.86,2984.25 1478.36,2990.75 1455.5,2993C 1445.19,2994.02 1434.86,2994.52 1424.5,2994.5C 1427.99,2988.15 1432.16,2982.15 1437,2976.5C 1460.31,2944.25 1473.97,2908.25 1478,2868.5C 1479.64,2840.47 1481.64,2812.47 1484,2784.5C 1488.69,2748.81 1502.35,2717.14 1525,2689.5C 1531.5,2682.33 1538,2675.17 1544.5,2668C 1514.9,2678.91 1488.9,2695.57 1466.5,2718C 1459.74,2717.13 1453.41,2714.8 1447.5,2711C 1408.45,2686.95 1384.45,2652.28 1375.5,2607C 1417.44,2608.1 1456.44,2598.1 1492.5,2577C 1514.13,2562.71 1530.8,2544.04 1542.5,2521C 1566.45,2521.01 1587.78,2513.68 1606.5,2499C 1570.29,2507.48 1535.62,2503.15 1502.5,2486C 1497.88,2483.05 1493.55,2479.72 1489.5,2476C 1500.11,2473.19 1509.78,2468.53 1518.5,2462C 1539.2,2445.97 1556.37,2426.8 1570,2404.5C 1581.33,2383.83 1592.67,2363.17 1604,2342.5C 1631.97,2303.09 1669.47,2277.42 1716.5,2265.5C 1698.64,2249.89 1678.3,2238.39 1655.5,2231C 1654.17,2230.33 1654.17,2229.67 1655.5,2229C 1684.22,2216.65 1714.22,2209.65 1745.5,2208C 1781.59,2205.98 1817.26,2208.65 1852.5,2216C 1835.48,2193.47 1816.81,2172.31 1796.5,2152.5C 1802.25,2151.2 1807.92,2150.2 1813.5,2149.5 Z M 1875.5,2289.5 C 1890.38,2310.33 1896.88,2333.66 1895,2359.5C 1894.14,2367.97 1892.64,2376.3 1890.5,2384.5C 1880.9,2380.03 1871.23,2375.53 1861.5,2371C 1813.21,2353.96 1769.87,2362.13 1731.5,2395.5C 1739.14,2422.95 1756.14,2442.11 1782.5,2453C 1795.55,2457.94 1809.05,2460.44 1823,2460.5C 1832.9,2459.88 1842.73,2459.05 1852.5,2458C 1837.05,2487.28 1830.22,2518.45 1832,2551.5C 1834.63,2572.05 1841.96,2590.72 1854,2607.5C 1865.95,2623.06 1878.62,2638.06 1892,2652.5C 1905.06,2667.28 1915.06,2683.94 1922,2702.5C 1924.5,2710.01 1925.84,2717.68 1926,2725.5C 1920.22,2714.95 1913.22,2705.28 1905,2696.5C 1886.43,2678.59 1867.26,2661.43 1847.5,2645C 1828.1,2627.95 1812.94,2607.78 1802,2584.5C 1790.95,2552.93 1790.79,2521.27 1801.5,2489.5C 1790.51,2485.66 1779.51,2481.5 1768.5,2477C 1726.22,2456.6 1708.72,2423.43 1716,2377.5C 1734.76,2359.87 1756.93,2348.7 1782.5,2344C 1812.85,2338.38 1843.18,2338.05 1873.5,2343C 1877.93,2325.35 1878.6,2307.51 1875.5,2289.5 Z M 2044.5,2331.5 C 2084.19,2331.88 2123.85,2333.04 2163.5,2335C 2149.13,2345.85 2135.13,2357.19 2121.5,2369C 2113.74,2375.05 2105.07,2379.21 2095.5,2381.5C 2092.57,2381.53 2089.9,2380.7 2087.5,2379C 2084.17,2376.33 2080.83,2373.67 2077.5,2371C 2069.6,2362.1 2062.1,2352.94 2055,2343.5C 2041.53,2342.69 2028.03,2342.19 2014.5,2342C 2023.61,2335.73 2033.61,2332.23 2044.5,2331.5 Z M 2050.5,2755.5 C 1997.58,2712.69 1963.08,2658.02 1947,2591.5C 1935.24,2604.59 1924.24,2618.26 1914,2632.5C 1899.96,2613.74 1890.96,2592.74 1887,2569.5C 1879.77,2523.88 1886.1,2480.21 1906,2438.5C 1903.01,2482.93 1907.68,2526.59 1920,2569.5C 1920.33,2569.83 1920.67,2570.17 1921,2570.5C 1937.85,2553.48 1956.01,2538.14 1975.5,2524.5C 1975.5,2609.84 2000.5,2686.84 2050.5,2755.5 Z M 1689.5,2488.5 C 1656.7,2532.37 1643.86,2581.7 1651,2636.5C 1653.96,2663.21 1657.29,2689.88 1661,2716.5C 1664.73,2739.95 1664.23,2763.28 1659.5,2786.5C 1659.83,2786.83 1660.17,2787.17 1660.5,2787.5C 1691.54,2771.29 1713.71,2746.96 1727,2714.5C 1732.54,2701.22 1736.87,2687.56 1740,2673.5C 1766.64,2708.43 1788.98,2746.09 1807,2786.5C 1820.79,2819.46 1828.46,2853.79 1830,2889.5C 1850.11,2870.4 1866.78,2848.73 1880,2824.5C 1887.66,2803.21 1891.33,2781.21 1891,2758.5C 1909.05,2789.37 1919.05,2822.7 1921,2858.5C 1921.33,2890.83 1921.67,2923.17 1922,2955.5C 1923.12,2997.73 1939.29,3032.73 1970.5,3060.5C 1924.58,3037.07 1897.42,2999.74 1889,2948.5C 1885.81,2925.88 1883.14,2903.22 1881,2880.5C 1864.65,2905.85 1844.49,2927.68 1820.5,2946C 1815.11,2950.02 1809.45,2953.52 1803.5,2956.5C 1812.01,2879.05 1795.01,2807.88 1752.5,2743C 1751.67,2742.31 1751,2742.48 1750.5,2743.5C 1719.86,2802.6 1671.2,2834.1 1604.5,2838C 1622.13,2817.13 1631.96,2792.96 1634,2765.5C 1634.75,2751.81 1634.42,2738.14 1633,2724.5C 1629.22,2698.47 1625.22,2672.47 1621,2646.5C 1610.99,2579.29 1633.83,2526.62 1689.5,2488.5 Z"/></g>
<g><path style="opacity:0.99" fill="#d7b568" d="M 6510.5,2149.5 C 6521.51,2149.33 6532.51,2149.5 6543.5,2150C 6549.27,2150.21 6554.94,2151.04 6560.5,2152.5C 6540.66,2171.83 6522.49,2192.5 6506,2214.5C 6505.31,2215.33 6505.48,2216 6506.5,2216.5C 6559.13,2204.74 6611.79,2204.57 6664.5,2216C 6678.01,2219.28 6691.01,2223.95 6703.5,2230C 6680.03,2237.73 6659.03,2249.56 6640.5,2265.5C 6692.36,2278.66 6732.2,2308 6760,2353.5C 6773.07,2382.66 6789.4,2409.66 6809,2434.5C 6822.93,2450.77 6839.43,2463.61 6858.5,2473C 6861.5,2474 6864.5,2475 6867.5,2476C 6853,2488.25 6836.33,2496.25 6817.5,2500C 6795.07,2504.2 6772.74,2503.87 6750.5,2499C 6769.28,2513.48 6790.61,2520.82 6814.5,2521C 6834.8,2558.96 6865.63,2584.12 6907,2596.5C 6931.28,2603.85 6956.11,2607.52 6981.5,2607.5C 6972.47,2651.66 6949.13,2685.82 6911.5,2710C 6905.95,2712.94 6900.29,2715.61 6894.5,2718C 6892.71,2718.52 6891.04,2718.19 6889.5,2717C 6867.47,2694.83 6841.81,2678.49 6812.5,2668C 6834.43,2689.35 6851.26,2714.19 6863,2742.5C 6866.94,2753.58 6869.94,2764.92 6872,2776.5C 6875.22,2806.76 6877.55,2837.09 6879,2867.5C 6883.7,2915.37 6901.86,2957.21 6933.5,2993C 6900.09,2995.62 6868.25,2989.46 6838,2974.5C 6834.53,2965.47 6832.19,2956.13 6831,2946.5C 6828.77,2925.88 6827.1,2905.21 6826,2884.5C 6814.42,2924.47 6811.09,2965.14 6816,3006.5C 6819.51,3038.73 6826.35,3070.23 6836.5,3101C 6809.98,3092.27 6786.81,3077.44 6767,3056.5C 6753.94,3039.67 6747.44,3020.5 6747.5,2999C 6749.55,2978.84 6751.55,2958.67 6753.5,2938.5C 6754.22,2917.94 6746.39,2901.61 6730,2889.5C 6732.55,2896.3 6734.88,2903.3 6737,2910.5C 6739.07,2923.55 6738.74,2936.55 6736,2949.5C 6730.72,2967.95 6726.39,2986.62 6723,3005.5C 6720.49,3022.79 6723.32,3039.12 6731.5,3054.5C 6715.3,3117.5 6713.47,3180.83 6726,3244.5C 6662.41,3210.4 6619.24,3159.07 6596.5,3090.5C 6614.92,3042.22 6625.09,2992.22 6627,2940.5C 6627.85,2913.82 6627.51,2887.15 6626,2860.5C 6619.93,2937.37 6599.26,3010.04 6564,3078.5C 6543.55,3117.63 6516.38,3151.46 6482.5,3180C 6450.13,3206.02 6413.46,3221.86 6372.5,3227.5C 6396.39,3202.72 6411.56,3173.39 6418,3139.5C 6399.24,3158.81 6377.08,3172.97 6351.5,3182C 6333.09,3188.8 6314.42,3194.8 6295.5,3200C 6259.7,3208.87 6224.04,3218.2 6188.5,3228C 6162.48,3235.45 6137.48,3245.45 6113.5,3258C 6091.72,3270.28 6075.72,3287.78 6065.5,3310.5C 6048.31,3279.95 6047.81,3249.28 6064,3218.5C 6079.42,3198.08 6098.26,3181.58 6120.5,3169C 6157.34,3149.41 6194.34,3130.08 6231.5,3111C 6256.54,3097.63 6279.04,3080.8 6299,3060.5C 6324.88,3030.99 6333.55,2996.99 6325,2958.5C 6321.48,2978.21 6313.14,2995.55 6300,3010.5C 6280.49,3031.36 6258.66,3049.19 6234.5,3064C 6220.5,3072.33 6206.5,3080.67 6192.5,3089C 6190.98,3090.01 6189.31,3090.51 6187.5,3090.5C 6178.54,3024.88 6196.54,2968.05 6241.5,2920C 6214.9,2935.26 6193.4,2956.09 6177,2982.5C 6152.84,3022.65 6143.5,3065.98 6149,3112.5C 6120.25,3126.62 6093.09,3143.12 6067.5,3162C 6041.56,3183.05 6026.39,3210.21 6022,3243.5C 5998.91,3268.27 5973.74,3290.44 5946.5,3310C 5906.16,3334.89 5862.49,3343.56 5815.5,3336C 5808.39,3335.2 5801.39,3333.87 5794.5,3332C 5826.54,3319.24 5855.04,3301.07 5880,3277.5C 5906.45,3247.91 5922.12,3213.25 5927,3173.5C 5930.03,3147.27 5934.36,3121.27 5940,3095.5C 5944.67,3076.14 5954.84,3060.47 5970.5,3048.5C 5970.83,3049 5971.17,3049.5 5971.5,3050C 5965.58,3077.78 5966.75,3105.28 5975,3132.5C 5978.4,3144.38 5982.4,3156.05 5987,3167.5C 5995.4,3141.7 6007.73,3118.04 6024,3096.5C 6048.37,3065.13 6076.87,3038.3 6109.5,3016C 6060.55,3028.71 6022.39,3056.21 5995,3098.5C 5989.59,3027.79 6018.09,2976.29 6080.5,2944C 6109.38,2929.73 6138.38,2915.73 6167.5,2902C 6190.49,2889.34 6207.66,2871.17 6219,2847.5C 6228.81,2822.17 6227.47,2797.51 6215,2773.5C 6206.95,2761.38 6195.78,2753.54 6181.5,2750C 6145.91,2743.42 6115.74,2753.25 6091,2779.5C 6074.82,2801.58 6071.32,2825.58 6080.5,2851.5C 6080.17,2851.83 6079.83,2852.17 6079.5,2852.5C 6045.42,2834.23 6013.09,2813.4 5982.5,2790C 5976.63,2784.47 5971.13,2778.64 5966,2772.5C 5963.93,2769.12 5962.76,2765.45 5962.5,2761.5C 5963.6,2745.17 5966.93,2729.34 5972.5,2714C 5967.17,2692.49 5970.33,2672.32 5982,2653.5C 5994.42,2634.25 6011.26,2620.25 6032.5,2611.5C 6032.83,2612 6033.17,2612.5 6033.5,2613C 6027.69,2629.71 6024.86,2646.88 6025,2664.5C 6026.68,2673.7 6030.85,2681.54 6037.5,2688C 6038.17,2688.17 6038.83,2688.33 6039.5,2688.5C 6091.75,2675.47 6142.42,2657.97 6191.5,2636C 6193.5,2634.67 6195.5,2633.33 6197.5,2632C 6198.8,2631.2 6199.47,2630.03 6199.5,2628.5C 6188.75,2598.67 6174.58,2570.67 6157,2544.5C 6155.13,2542.29 6152.96,2540.46 6150.5,2539C 6116.78,2539.96 6083.12,2541.96 6049.5,2545C 6031.21,2562.76 6016.21,2582.92 6004.5,2605.5C 6001.08,2597.16 5998.58,2588.49 5997,2579.5C 5994.13,2563.93 5991.97,2548.26 5990.5,2532.5C 5967.22,2520.28 5956.72,2500.95 5959,2474.5C 5958.4,2463.81 5958.73,2453.14 5960,2442.5C 5965.35,2433.83 5973.02,2428.17 5983,2425.5C 5994.73,2421.62 6006.4,2421.62 6018,2425.5C 6016.57,2417.05 6011.74,2411.22 6003.5,2408C 5999.24,2406.98 5994.9,2406.48 5990.5,2406.5C 5978.21,2408.1 5965.87,2408.6 5953.5,2408C 5951.75,2407.53 5950.09,2406.86 5948.5,2406C 5947.48,2404.95 5947.32,2403.78 5948,2402.5C 5959.36,2389.06 5973.19,2378.89 5989.5,2372C 6019.05,2360.38 6049.71,2355.71 6081.5,2358C 6114.49,2354.95 6144.82,2344.45 6172.5,2326.5C 6174.53,2308.31 6183.53,2294.81 6199.5,2286C 6207.86,2281.88 6216.53,2278.55 6225.5,2276C 6268.77,2269.93 6311.1,2259.93 6352.5,2246C 6366.37,2229.45 6381.04,2213.45 6396.5,2198C 6421.32,2173.76 6450.98,2158.76 6485.5,2153C 6493.97,2151.74 6502.3,2150.57 6510.5,2149.5 Z M 6481.5,2289.5 C 6480.94,2297.17 6480.27,2304.84 6479.5,2312.5C 6480.16,2320.52 6480.99,2328.52 6482,2336.5C 6482.15,2339.12 6482.98,2341.45 6484.5,2343.5C 6526.21,2335.29 6566.88,2338.79 6606.5,2354C 6620.5,2359.91 6632.67,2368.41 6643,2379.5C 6647.14,2430.71 6624.97,2464.88 6576.5,2482C 6569.39,2484.19 6562.39,2486.52 6555.5,2489C 6572.63,2539.76 6563.8,2585.26 6529,2625.5C 6521.83,2632.67 6514.67,2639.83 6507.5,2647C 6489.41,2661.76 6471.91,2677.26 6455,2693.5C 6446.16,2702.83 6438.32,2712.83 6431.5,2723.5C 6434.03,2700.1 6442.87,2679.44 6458,2661.5C 6473.71,2643.46 6489.04,2625.13 6504,2606.5C 6527.08,2571.41 6532.08,2533.75 6519,2493.5C 6515.19,2481.56 6510.69,2469.89 6505.5,2458.5C 6506.17,2458.17 6506.83,2457.83 6507.5,2457.5C 6538.8,2464.6 6567.8,2459.44 6594.5,2442C 6609.96,2430.19 6620.3,2414.86 6625.5,2396C 6599.05,2370.73 6567.38,2359.73 6530.5,2363C 6519.56,2364.07 6508.89,2366.4 6498.5,2370C 6487.91,2374.47 6477.57,2379.14 6467.5,2384C 6456.94,2350.17 6461.61,2318.67 6481.5,2289.5 Z M 6263.5,2331.5 C 6282.53,2331.11 6301.53,2331.61 6320.5,2333C 6328.75,2333.86 6336.08,2336.86 6342.5,2342C 6329.17,2342.33 6315.83,2342.67 6302.5,2343C 6294.32,2353.66 6285.65,2364 6276.5,2374C 6273.34,2377.08 6269.67,2379.42 6265.5,2381C 6262.83,2381.67 6260.17,2381.67 6257.5,2381C 6250.72,2378.45 6244.39,2375.11 6238.5,2371C 6223.79,2358.62 6208.79,2346.62 6193.5,2335C 6217.04,2334.94 6240.38,2333.77 6263.5,2331.5 Z M 6307.5,2755.5 C 6333.66,2718.51 6353.49,2678.18 6367,2634.5C 6377.66,2598.23 6382.33,2561.23 6381,2523.5C 6400.34,2537.5 6418.51,2553 6435.5,2570C 6436.48,2570.59 6437.15,2570.26 6437.5,2569C 6449.35,2526.96 6454.19,2484.12 6452,2440.5C 6477.73,2494.93 6480.07,2550.26 6459,2606.5C 6455.09,2615.99 6449.93,2624.66 6443.5,2632.5C 6432.9,2618.4 6421.73,2604.73 6410,2591.5C 6393.82,2657.56 6359.65,2712.23 6307.5,2755.5 Z M 6667.5,2488.5 C 6723.94,2527.09 6746.78,2580.42 6736,2648.5C 6731.74,2674.46 6727.74,2700.46 6724,2726.5C 6719.11,2759.64 6724.45,2790.97 6740,2820.5C 6743.78,2826.61 6747.95,2832.45 6752.5,2838C 6685.9,2833.89 6637.23,2802.39 6606.5,2743.5C 6606,2742.48 6605.33,2742.31 6604.5,2743C 6561.95,2808.36 6545.12,2879.86 6554,2957.5C 6522.36,2937.69 6496.52,2912.02 6476.5,2880.5C 6474.21,2901.85 6471.71,2923.18 6469,2944.5C 6461.34,2997.54 6433.84,3036.21 6386.5,3060.5C 6416.84,3033.48 6433,2999.48 6435,2958.5C 6435.33,2926.5 6435.67,2894.5 6436,2862.5C 6437.62,2825.37 6447.62,2790.7 6466,2758.5C 6464.13,2793.91 6473.79,2825.57 6495,2853.5C 6505.2,2865.88 6515.86,2877.88 6527,2889.5C 6528.72,2854.91 6536.05,2821.58 6549,2789.5C 6567.1,2747.94 6589.77,2709.27 6617,2673.5C 6623.49,2705.47 6637.15,2733.8 6658,2758.5C 6669.28,2770.28 6682.11,2779.95 6696.5,2787.5C 6696.83,2786.83 6697.17,2786.17 6697.5,2785.5C 6694.6,2766.95 6693.77,2748.28 6695,2729.5C 6699.28,2695.2 6703.28,2660.86 6707,2626.5C 6711.83,2575.1 6698.66,2529.1 6667.5,2488.5 Z"/></g>
<g><path style="opacity:0.998" fill="#d7b568" d="M 4181.5,2296.5 C 4183.65,2296.37 4185.65,2296.87 4187.5,2298C 4369.12,2404.99 4563.46,2479.33 4770.5,2521C 4938.74,2552.78 5108.07,2560.94 5278.5,2545.5C 5279.5,2906.83 5279.83,3268.17 5279.5,3629.5C 5226.42,3645.43 5201.92,3681.1 5206,3736.5C 5209.37,3758.6 5216.7,3779.27 5228,3798.5C 5244.33,3823.5 5260.67,3848.5 5277,3873.5C 5277.17,3874.83 5277.33,3876.17 5277.5,3877.5C 5275.64,3884.58 5273.48,3891.58 5271,3898.5C 5265.77,3919.75 5266.6,3940.75 5273.5,3961.5C 5265.13,4079.5 5241.97,4194.5 5204,4306.5C 5151.91,4452.93 5070.08,4579.76 4958.5,4687C 4900.66,4742.2 4839.33,4792.86 4774.5,4839C 4689.54,4898.49 4602.21,4954.49 4512.5,5007C 4403.7,5070.49 4293.87,5132.32 4183,5192.5C 4072.8,5132.65 3963.63,5071.15 3855.5,5008C 3764.75,4954.88 3676.42,4898.22 3590.5,4838C 3531.55,4795.41 3475.22,4749.41 3421.5,4700C 3265.28,4553.13 3165.44,4373.96 3122,4162.5C 3108.25,4096.78 3098.75,4030.45 3093.5,3963.5C 3096.74,3951.22 3098.74,3938.72 3099.5,3926C 3098.7,3909.16 3095.03,3892.99 3088.5,3877.5C 3089.36,3874.77 3090.53,3872.1 3092,3869.5C 3111.12,3841.03 3129.46,3812.03 3147,3782.5C 3157.7,3760.02 3162.36,3736.35 3161,3711.5C 3157.62,3680.9 3142.79,3657.73 3116.5,3642C 3107.3,3636.73 3097.63,3632.56 3087.5,3629.5C 3087.33,3268.17 3087.5,2906.83 3088,2545.5C 3450.05,2577.36 3791.22,2507.52 4111.5,2336C 4135.26,2323.37 4158.59,2310.2 4181.5,2296.5 Z M 4845.5,2736.5 C 4818.83,2749.67 4792.49,2763.5 4766.5,2778C 4722.23,2802.96 4680.56,2831.63 4641.5,2864C 4632,2872.17 4623.17,2881 4615,2890.5C 4606.57,2905.52 4609.73,2917.36 4624.5,2926C 4631.95,2929.26 4639.62,2931.93 4647.5,2934C 4665.67,2942.51 4677.84,2956.34 4684,2975.5C 4686.33,2978.83 4688.67,2982.17 4691,2985.5C 4696.28,2991.26 4702.78,2993.43 4710.5,2992C 4720.37,2988.47 4728.2,2982.3 4734,2973.5C 4743.39,2959.77 4752.39,2945.77 4761,2931.5C 4795.74,2869.36 4823.9,2804.36 4845.5,2736.5 Z M 3517.5,2767.5 C 3533.48,2766.19 3548.48,2769.35 3562.5,2777C 3572.94,2784.69 3579.77,2794.86 3583,2807.5C 3584.55,2818.23 3585.55,2828.9 3586,2839.5C 3587.38,2846.93 3590.38,2853.6 3595,2859.5C 3789.9,3069.64 3984.57,3279.98 4179,3490.5C 4316.29,3328.21 4453.96,3166.21 4592,3004.5C 4601.25,2991.67 4610.25,2978.67 4619,2965.5C 4626.74,2957.29 4635.24,2956.46 4644.5,2963C 4647,2965.5 4649.5,2968 4652,2970.5C 4653.93,2973.61 4654.6,2976.95 4654,2980.5C 4652.36,2985.79 4649.69,2990.45 4646,2994.5C 4638.67,3001.17 4631.33,3007.83 4624,3014.5C 4492.83,3172.34 4360.17,3329.01 4226,3484.5C 4220.11,3491.61 4215.78,3499.61 4213,3508.5C 4211.34,3517.51 4213,3525.84 4218,3533.5C 4220.33,3536.5 4222.67,3539.5 4225,3542.5C 4236.64,3553.14 4247.97,3564.14 4259,3575.5C 4289.46,3609.63 4320.3,3643.47 4351.5,3677C 4358.09,3683.13 4365.76,3687.47 4374.5,3690C 4385.57,3690.61 4396.57,3690.28 4407.5,3689C 4416.97,3691.81 4423.14,3697.97 4426,3707.5C 4425.53,3742.42 4440.36,3768.25 4470.5,3785C 4484.83,3792.44 4499.5,3799.11 4514.5,3805C 4544.91,3815.8 4575.57,3825.8 4606.5,3835C 4637.91,3849.07 4662.41,3870.91 4680,3900.5C 4690.52,3919.2 4699.68,3938.53 4707.5,3958.5C 4762.5,3913.25 4825.17,3897.08 4895.5,3910C 4944.95,3923.78 4979.78,3954.28 5000,4001.5C 5021.28,4065.88 5007.11,4121.04 4957.5,4167C 4946.96,4175.19 4935.63,4182.19 4923.5,4188C 4921.29,4189.87 4919.46,4192.04 4918,4194.5C 4920.32,4211.73 4922.15,4229.06 4923.5,4246.5C 4922.86,4297.63 4897.19,4325.47 4846.5,4330C 4825.69,4330.22 4805.19,4327.72 4785,4322.5C 4778.51,4322.98 4773.51,4325.98 4770,4331.5C 4734.99,4384.08 4685.82,4407.25 4622.5,4401C 4575.04,4392.18 4539.21,4367.01 4515,4325.5C 4498.66,4294.47 4492.33,4261.47 4496,4226.5C 4497.5,4186.62 4512.17,4152.62 4540,4124.5C 4545.41,4117.35 4548.91,4109.35 4550.5,4100.5C 4549.86,4097.12 4549.02,4093.78 4548,4090.5C 4543.83,4085 4539,4080.17 4533.5,4076C 4517.65,4067.58 4502.65,4057.91 4488.5,4047C 4467.8,4028.28 4453.63,4005.45 4446,3978.5C 4438.27,3933.89 4426.93,3890.23 4412,3847.5C 4408.97,3837.93 4403.8,3829.76 4396.5,3823C 4373.74,3810.52 4353.91,3794.36 4337,3774.5C 4329.09,3764.34 4321.42,3754.01 4314,3743.5C 4295.83,3713.16 4277.17,3683.16 4258,3653.5C 4235.52,3621.69 4207.36,3596.19 4173.5,3577C 4165.19,3573.49 4157.19,3574.16 4149.5,3579C 4142.37,3584.46 4135.87,3590.63 4130,3597.5C 3970.57,3790.32 3809.23,3981.65 3646,4171.5C 3642.56,4179.28 3636.89,4184.61 3629,4187.5C 3618.98,4184.81 3612.15,4178.65 3608.5,4169C 3609,4167.5 3609.5,4166 3610,4164.5C 3613.95,4158.88 3618.29,4153.54 3623,4148.5C 3625.17,4140.82 3627.5,4133.16 3630,4125.5C 3633.58,4118 3637.91,4111 3643,4104.5C 3653.33,4093.5 3663.67,4082.5 3674,4071.5C 3724.19,4010.46 3774.86,3949.8 3826,3889.5C 3836.95,3878.89 3849.28,3870.22 3863,3863.5C 3952.33,3758.17 4041.67,3652.83 4131,3547.5C 4136.39,3536.83 4135.39,3526.83 4128,3517.5C 4048.23,3432.74 3968.9,3347.74 3890,3262.5C 3857.9,3294.6 3825.73,3326.77 3793.5,3359C 3768.68,3383.16 3742.68,3405.83 3715.5,3427C 3705.91,3433.97 3695.57,3439.63 3684.5,3444C 3680.71,3444.84 3677.04,3444.5 3673.5,3443C 3646.61,3416.78 3620.44,3389.94 3595,3362.5C 3587.62,3353.45 3580.62,3344.12 3574,3334.5C 3571.6,3330.38 3569.77,3326.04 3568.5,3321.5C 3569.07,3317.19 3571.07,3313.69 3574.5,3311C 3583.33,3305.08 3592.33,3299.42 3601.5,3294C 3613.08,3285.69 3620.24,3274.52 3623,3260.5C 3629.56,3252.99 3637.06,3251.82 3645.5,3257C 3652.14,3263.31 3658.48,3269.98 3664.5,3277C 3672.26,3280.81 3678.93,3279.31 3684.5,3272.5C 3689.57,3267.29 3690.74,3261.29 3688,3254.5C 3682.7,3248.2 3677.03,3242.2 3671,3236.5C 3666.42,3230.1 3666.42,3223.76 3671,3217.5C 3678.33,3211.5 3685,3204.83 3691,3197.5C 3692.86,3187.39 3689.03,3180.23 3679.5,3176C 3674.68,3174.97 3670.35,3175.97 3666.5,3179C 3661.45,3184.05 3656.45,3189.05 3651.5,3194C 3644.28,3198.89 3637.28,3198.56 3630.5,3193C 3625.95,3188.12 3621.79,3182.96 3618,3177.5C 3611,3170.11 3603.5,3169.61 3595.5,3176C 3590.21,3179.89 3588.04,3185.05 3589,3191.5C 3592.5,3197.84 3596.5,3203.84 3601,3209.5C 3605,3216.34 3607.5,3223.68 3608.5,3231.5C 3607.57,3239.53 3603.9,3246.03 3597.5,3251C 3586.17,3257.67 3574.83,3264.33 3563.5,3271C 3561.24,3272.71 3559.07,3274.55 3557,3276.5C 3553.94,3282.23 3550.1,3287.4 3545.5,3292C 3540.16,3295.02 3535.16,3294.35 3530.5,3290C 3518.07,3274.9 3504.91,3260.4 3491,3246.5C 3486.74,3242.33 3485.08,3237.33 3486,3231.5C 3488.46,3228.04 3491.3,3224.87 3494.5,3222C 3512.19,3208.99 3528.69,3194.49 3544,3178.5C 3554.95,3163.94 3563.28,3147.94 3569,3130.5C 3571.62,3122.88 3569.12,3118.05 3561.5,3116C 3554.74,3113.93 3548.41,3114.93 3542.5,3119C 3532.6,3129.48 3522.93,3140.14 3513.5,3151C 3495.73,3162.24 3480.4,3176.24 3467.5,3193C 3459.74,3199.81 3451.74,3200.14 3443.5,3194C 3437.67,3188.17 3431.83,3182.33 3426,3176.5C 3418.77,3168.42 3418.77,3160.42 3426,3152.5C 3444.56,3137.61 3462.23,3121.61 3479,3104.5C 3484.18,3090.2 3479.35,3081.2 3464.5,3077.5C 3461.13,3077.79 3458.13,3078.95 3455.5,3081C 3450.46,3085.71 3445.12,3090.05 3439.5,3094C 3429.83,3104.33 3420.17,3114.67 3410.5,3125C 3401.1,3131.97 3391.44,3132.3 3381.5,3126C 3368.91,3116.75 3358.41,3105.58 3350,3092.5C 3346.34,3084.8 3347,3077.47 3352,3070.5C 3354.37,3068.46 3356.37,3066.13 3358,3063.5C 3419.27,3008.24 3479.93,2952.24 3540,2895.5C 3540.07,2891.12 3538.57,2887.29 3535.5,2884C 3519.64,2882.37 3504.98,2877.37 3491.5,2869C 3474.16,2853.64 3467.99,2834.47 3473,2811.5C 3478.45,2787.21 3493.28,2772.55 3517.5,2767.5 Z M 3721.5,3932.5 C 3700.74,3954.56 3676.41,3971.73 3648.5,3984C 3632.13,3990.79 3615.46,3996.79 3598.5,4002C 3566.11,4010.85 3533.77,4019.51 3501.5,4028C 3516.87,4006.96 3536.2,3990.63 3559.5,3979C 3613.43,3963.19 3667.43,3947.69 3721.5,3932.5 Z M 3877.5,3986.5 C 3868.06,4027.12 3860.56,4068.12 3855,4109.5C 3849.51,4146.67 3835.84,4180.34 3814,4210.5C 3811.5,4213.6 3808.5,4214.93 3805,4214.5C 3803.54,4208.89 3803.54,4203.22 3805,4197.5C 3813.63,4177.96 3819.63,4157.62 3823,4136.5C 3828.08,4102.88 3832.08,4069.21 3835,4035.5C 3841.67,4018.82 3852.17,4004.99 3866.5,3994C 3869.88,3990.99 3873.54,3988.49 3877.5,3986.5 Z M 3558.5,4100.5 C 3563.82,4101.64 3567.48,4104.81 3569.5,4110C 3557.46,4123.52 3543.13,4133.85 3526.5,4141C 3457.63,4163.62 3388.63,4185.62 3319.5,4207C 3328.78,4187.39 3343.11,4172.72 3362.5,4163C 3422.38,4144.6 3482.38,4126.6 3542.5,4109C 3547.77,4105.87 3553.1,4103.03 3558.5,4100.5 Z M 3733.5,4149.5 C 3741.07,4148.24 3745.41,4151.41 3746.5,4159C 3739.4,4196.45 3732.56,4233.95 3726,4271.5C 3719.55,4305.97 3711.22,4339.97 3701,4373.5C 3697.1,4382.74 3691.6,4390.9 3684.5,4398C 3678.09,4403.29 3671.59,4408.45 3665,4413.5C 3668.7,4398.01 3672.03,4382.34 3675,4366.5C 3680.33,4332.5 3685.67,4298.5 3691,4264.5C 3697.2,4223.06 3711.36,4184.72 3733.5,4149.5 Z M 3805.5,4636.5 C 3815.26,4657.2 3824.93,4678.03 3834.5,4699C 3856.89,4703.08 3879.23,4707.41 3901.5,4712C 3884.2,4726.96 3867.2,4742.3 3850.5,4758C 3854.19,4780.38 3857.03,4802.88 3859,4825.5C 3839.33,4814.17 3819.67,4802.83 3800,4791.5C 3779.78,4801.86 3759.28,4811.53 3738.5,4820.5C 3742.78,4798.42 3747.45,4776.42 3752.5,4754.5C 3737.02,4737.85 3721.35,4721.35 3705.5,4705C 3728.1,4701.93 3750.77,4698.93 3773.5,4696C 3784.32,4676.19 3794.99,4656.36 3805.5,4636.5 Z M 4561.5,4646.5 C 4571.39,4666.62 4581.06,4686.95 4590.5,4707.5C 4613.15,4711.77 4635.81,4715.94 4658.5,4720C 4642.62,4735.51 4626.45,4750.68 4610,4765.5C 4609.33,4768.17 4609.33,4770.83 4610,4773.5C 4613.34,4793.85 4616.34,4814.18 4619,4834.5C 4598.84,4823.75 4578.84,4812.75 4559,4801.5C 4538.5,4812.34 4518,4822.34 4497.5,4831.5C 4501.83,4809.5 4506.17,4787.5 4510.5,4765.5C 4494.5,4749.17 4478.5,4732.83 4462.5,4716.5C 4485.14,4713.17 4507.81,4710 4530.5,4707C 4540.72,4686.73 4551.05,4666.56 4561.5,4646.5 Z M 4174.5,4747.5 C 4175.38,4747.37 4176.04,4747.7 4176.5,4748.5C 4190.12,4774.91 4204.12,4801.07 4218.5,4827C 4248.61,4830.16 4278.61,4833.83 4308.5,4838C 4287.32,4859.68 4266.32,4881.51 4245.5,4903.5C 4252.18,4933.05 4258.01,4962.72 4263,4992.5C 4236.25,4978.96 4209.25,4965.96 4182,4953.5C 4155.4,4967.63 4129.07,4982.3 4103,4997.5C 4106.75,4967.18 4110.42,4936.84 4114,4906.5C 4091.83,4886.33 4069.67,4866.17 4047.5,4846C 4077.54,4840.46 4107.54,4834.79 4137.5,4829C 4149.97,4801.89 4162.31,4774.72 4174.5,4747.5 Z"/></g>
<g><path style="opacity:0.993" fill="#d7b568" d="M 1257.5,2764.5 C 1289.8,2760.25 1315.63,2770.92 1335,2796.5C 1348.7,2817.62 1348.7,2838.62 1335,2859.5C 1331.98,2862.68 1328.82,2865.68 1325.5,2868.5C 1325.17,2868 1324.83,2867.5 1324.5,2867C 1333.8,2841.59 1327.47,2821.25 1305.5,2806C 1290.46,2798.75 1275.46,2798.75 1260.5,2806C 1249.48,2813.53 1243.82,2824.03 1243.5,2837.5C 1245.24,2858.24 1253.07,2876.24 1267,2891.5C 1290.9,2914.74 1315.4,2937.24 1340.5,2959C 1356.49,2974.31 1370.99,2990.81 1384,3008.5C 1424.46,3048.72 1453.79,3096.05 1472,3150.5C 1505.8,3255.07 1507.13,3360.07 1476,3465.5C 1446.08,3559.23 1390.58,3633.73 1309.5,3689C 1291.67,3701.09 1273.34,3712.42 1254.5,3723C 1196.14,3752.85 1137.48,3782.18 1078.5,3811C 1030.98,3835.08 987.651,3865.08 948.5,3901C 894.121,3955.56 858.288,4020.73 841,4096.5C 823.424,4176.72 818.424,4257.72 826,4339.5C 832.968,4366.79 849.468,4385.63 875.5,4396C 904.682,4403.83 929.182,4396.33 949,4373.5C 964.895,4352.5 974.562,4328.84 978,4302.5C 981.29,4264.86 984.29,4227.2 987,4189.5C 990.614,4144.87 997.947,4100.87 1009,4057.5C 1021.8,4005.71 1046.63,3960.87 1083.5,3923C 1113.36,3895.89 1147.7,3876.22 1186.5,3864C 1203.3,3858.88 1220.3,3854.55 1237.5,3851C 1270.12,3846.04 1302.79,3841.38 1335.5,3837C 1399.68,3827.39 1460.34,3807.39 1517.5,3777C 1603.44,3726.99 1657.27,3653.16 1679,3555.5C 1687.94,3514.49 1692.44,3472.99 1692.5,3431C 1690.89,3372.83 1686.89,3314.83 1680.5,3257C 1680.83,3255.5 1681.17,3254 1681.5,3252.5C 1726.62,3219.21 1760.45,3176.88 1783,3125.5C 1789.33,3134.17 1795.67,3142.83 1802,3151.5C 1808.17,3221.04 1840.67,3274.21 1899.5,3311C 1931.65,3330.06 1965.65,3345.06 2001.5,3356C 2024.28,3363.11 2047.28,3369.45 2070.5,3375C 2128.01,3387.57 2185.35,3400.9 2242.5,3415C 2282.09,3425.19 2320.09,3439.53 2356.5,3458C 2360.59,3460.13 2364.42,3462.63 2368,3465.5C 2390.74,3501.25 2417.57,3533.75 2448.5,3563C 2488.66,3593.07 2533.33,3614.07 2582.5,3626C 2604.9,3631.85 2627.56,3636.35 2650.5,3639.5C 2691.33,3631.76 2732.33,3630.59 2773.5,3636C 2783.06,3637.85 2792.4,3640.52 2801.5,3644C 2816.34,3650.06 2831.34,3655.73 2846.5,3661C 2869.68,3666.82 2892.35,3665.15 2914.5,3656C 2928.97,3648.93 2943.97,3643.27 2959.5,3639C 2983.81,3634.82 3001.15,3643.82 3011.5,3666C 3040.76,3662.18 3067.76,3668.18 3092.5,3684C 3108.33,3699.48 3113.16,3717.98 3107,3739.5C 3103.58,3754 3097.74,3767.34 3089.5,3779.5C 3086.59,3761.84 3078.59,3747.01 3065.5,3735C 3049.81,3725.3 3033.15,3722.96 3015.5,3728C 3013.39,3729.14 3011.56,3730.64 3010,3732.5C 3006.83,3737.5 3003.67,3742.5 3000.5,3747.5C 2996.54,3749.86 2992.21,3750.86 2987.5,3750.5C 2976.65,3749.76 2965.98,3747.93 2955.5,3745C 2936.01,3738.72 2916.67,3732.06 2897.5,3725C 2873.12,3722.05 2861.62,3732.88 2863,3757.5C 2864.35,3764.36 2867.85,3769.86 2873.5,3774C 2879.88,3777.57 2886.55,3780.57 2893.5,3783C 2913.14,3787.79 2932.81,3792.46 2952.5,3797C 2976.87,3806.89 2989.87,3825.06 2991.5,3851.5C 3008.53,3859.7 3022.7,3871.37 3034,3886.5C 3051.77,3917.06 3050.27,3946.73 3029.5,3975.5C 3021.68,3939.68 3000.02,3917.35 2964.5,3908.5C 2948.4,3917.35 2933.06,3916.18 2918.5,3905C 2914.67,3901.17 2910.83,3897.33 2907,3893.5C 2898.65,3878.98 2888.48,3865.81 2876.5,3854C 2864.26,3842.88 2849.92,3836.05 2833.5,3833.5C 2817.27,3835.57 2811.1,3844.57 2815,3860.5C 2817.88,3866.71 2821.55,3872.37 2826,3877.5C 2842.05,3892.04 2857.72,3907.04 2873,3922.5C 2878.72,3929.89 2884.06,3937.56 2889,3945.5C 2893.84,3953.54 2895.84,3962.21 2895,3971.5C 2894.6,3972.87 2894.1,3974.21 2893.5,3975.5C 2903.04,4001.26 2903.87,4027.26 2896,4053.5C 2885.59,4075.4 2868.76,4090.07 2845.5,4097.5C 2845.17,4097 2844.83,4096.5 2844.5,4096C 2854.01,4066.61 2851.84,4038.11 2838,4010.5C 2810.17,4010.65 2791.84,3997.65 2783,3971.5C 2780.48,3956.81 2777.81,3942.14 2775,3927.5C 2768.03,3903.03 2753.2,3885.2 2730.5,3874C 2707.37,3865.48 2692.54,3872.98 2686,3896.5C 2685.74,3909.52 2686.24,3922.52 2687.5,3935.5C 2687.46,3960.52 2675.46,3976.19 2651.5,3982.5C 2649.86,4004.55 2656.69,4023.55 2672,4039.5C 2681.86,4048.53 2692.7,4056.19 2704.5,4062.5C 2679.88,4063.53 2655.88,4060.03 2632.5,4052C 2607.91,4041.06 2593.41,4022.22 2589,3995.5C 2588.33,3987.17 2588.33,3978.83 2589,3970.5C 2589.81,3965.11 2591.31,3959.94 2593.5,3955C 2582.98,3945.12 2576.81,3932.96 2575,3918.5C 2571.9,3897.63 2570.23,3876.63 2570,3855.5C 2563.75,3815.6 2542.58,3786.76 2506.5,3769C 2505.5,3768.33 2504.5,3768.33 2503.5,3769C 2506.69,3787.7 2504.52,3805.86 2497,3823.5C 2489.47,3842.23 2479.64,3859.56 2467.5,3875.5C 2437.46,3774.85 2380.46,3693.35 2296.5,3631C 2267.7,3610.77 2236.03,3596.77 2201.5,3589C 2135.46,3577.61 2084.62,3600.11 2049,3656.5C 2043.55,3594.83 2024.55,3537.83 1992,3485.5C 1973.9,3459.72 1951.73,3438.56 1925.5,3422C 1961.95,3468.75 1986.78,3521.25 2000,3579.5C 2010.79,3628.37 2018.79,3677.71 2024,3727.5C 2040.04,3710.47 2055.7,3693.13 2071,3675.5C 2086.1,3658.05 2103.27,3643.22 2122.5,3631C 2144.17,3619.22 2167.17,3615.56 2191.5,3620C 2219.22,3625.79 2244.88,3636.46 2268.5,3652C 2303.96,3674.46 2333.96,3702.79 2358.5,3737C 2346.69,3756.12 2333.52,3774.29 2319,3791.5C 2289.77,3824.74 2256.94,3853.58 2220.5,3878C 2168.76,3909.25 2112.76,3928.58 2052.5,3936C 2008.77,3941.59 1965.11,3947.59 1921.5,3954C 1839.38,3967.03 1764.04,3996.7 1695.5,4043C 1647.05,4076.44 1608.88,4118.94 1581,4170.5C 1546.39,4241.48 1539.39,4315.15 1560,4391.5C 1574.67,4443.5 1597.83,4491.16 1629.5,4534.5C 1613.5,4534.09 1597.5,4534.59 1581.5,4536C 1533.23,4541.04 1495.06,4563.21 1467,4602.5C 1447.27,4632.57 1427.94,4662.9 1409,4693.5C 1387.67,4725.17 1360.34,4750.17 1327,4768.5C 1334.04,4809.22 1332.04,4849.56 1321,4889.5C 1312.86,4913.93 1305.52,4938.6 1299,4963.5C 1288.87,5017.84 1298.87,5068.18 1329,5114.5C 1333.79,5120.96 1338.96,5127.13 1344.5,5133C 1354.74,5142.79 1366.74,5149.45 1380.5,5153C 1395.69,5155.37 1409.69,5152.37 1422.5,5144C 1429.58,5139.59 1436.08,5134.43 1442,5128.5C 1457.3,5110.55 1471.64,5091.89 1485,5072.5C 1496.04,5058.45 1509.21,5046.95 1524.5,5038C 1548.78,5029.44 1573.12,5029.44 1597.5,5038C 1613.83,5044.33 1626.5,5055 1635.5,5070C 1662.24,5075.62 1685.08,5088.12 1704,5107.5C 1717.34,5125.21 1721.34,5144.87 1716,5166.5C 1706.9,5149.02 1692.73,5137.85 1673.5,5133C 1659.33,5129.46 1645,5128.29 1630.5,5129.5C 1620.75,5164.97 1597.59,5179.97 1561,5174.5C 1540.23,5174.6 1520.06,5178.1 1500.5,5185C 1491.23,5188.62 1483.4,5194.12 1477,5201.5C 1472.33,5207.83 1472.33,5214.17 1477,5220.5C 1487.02,5234.52 1499.52,5245.69 1514.5,5254C 1535.76,5267.13 1558.76,5275.47 1583.5,5279C 1589.83,5279.67 1596.17,5279.67 1602.5,5279C 1627.59,5275.18 1652.59,5270.85 1677.5,5266C 1695.27,5262.4 1712.94,5262.73 1730.5,5267C 1747.82,5272.99 1759.99,5284.49 1767,5301.5C 1772.94,5318.31 1775.6,5335.64 1775,5353.5C 1806.03,5389.94 1818.03,5431.94 1811,5479.5C 1799.62,5452.46 1781.45,5431.29 1756.5,5416C 1749.5,5412 1742.16,5408.83 1734.5,5406.5C 1712.79,5414.04 1690.46,5418.37 1667.5,5419.5C 1646.49,5420.23 1628.99,5412.9 1615,5397.5C 1601.27,5380.37 1588.27,5362.7 1576,5344.5C 1553.87,5319.55 1526.03,5306.05 1492.5,5304C 1485.5,5303.33 1478.5,5303.33 1471.5,5304C 1470.69,5304.31 1470.03,5304.81 1469.5,5305.5C 1472.2,5313.69 1476.37,5321.03 1482,5327.5C 1495.12,5341.13 1509.62,5352.96 1525.5,5363C 1537.33,5369.75 1549,5376.75 1560.5,5384C 1577.93,5395.42 1589.09,5411.26 1594,5431.5C 1596.2,5445.57 1594.03,5458.91 1587.5,5471.5C 1589.24,5477.04 1590.41,5482.71 1591,5488.5C 1597.08,5540.72 1574.75,5573.06 1524,5585.5C 1523.5,5585.17 1523,5584.83 1522.5,5584.5C 1533.76,5562.52 1535.26,5539.86 1527,5516.5C 1522.61,5503.05 1516.61,5490.38 1509,5478.5C 1508.28,5477.94 1507.44,5477.61 1506.5,5477.5C 1488.54,5481.29 1470.54,5481.45 1452.5,5478C 1406.5,5462.83 1392,5432.33 1409,5386.5C 1411.9,5370.11 1408.23,5355.44 1398,5342.5C 1392.43,5336.26 1386.26,5330.76 1379.5,5326C 1378.22,5325.32 1377.05,5325.48 1376,5326.5C 1366.84,5338.82 1358.17,5351.49 1350,5364.5C 1339.62,5375.94 1326.79,5383.11 1311.5,5386C 1293.95,5388.73 1276.28,5390.07 1258.5,5390C 1250.42,5395.1 1244.92,5402.26 1242,5411.5C 1233.96,5435.33 1232.96,5459.33 1239,5483.5C 1215.44,5464.94 1199.44,5441.27 1191,5412.5C 1186.77,5392.25 1188.27,5372.42 1195.5,5353C 1192.2,5345.09 1189.7,5336.93 1188,5328.5C 1186.39,5314 1190.06,5301 1199,5289.5C 1210.3,5277.2 1221.97,5265.2 1234,5253.5C 1245.64,5237.35 1247.64,5220.02 1240,5201.5C 1230.57,5182.07 1217.41,5165.57 1200.5,5152C 1168.26,5125.21 1131.59,5106.88 1090.5,5097C 1080.92,5095.21 1071.25,5094.21 1061.5,5094C 1080.27,5077.44 1100.94,5063.61 1123.5,5052.5C 1096.05,5029.44 1064.72,5013.78 1029.5,5005.5C 1036.18,5001.16 1043.18,4997.33 1050.5,4994C 1070.28,4985.94 1089.95,4977.61 1109.5,4969C 1128.91,4961.25 1144.41,4948.75 1156,4931.5C 1174.41,4893.77 1168.57,4860.27 1138.5,4831C 1110.24,4809.82 1079.57,4805.82 1046.5,4819C 1037.89,4822.64 1029.55,4826.81 1021.5,4831.5C 1021.17,4831.17 1020.83,4830.83 1020.5,4830.5C 1035.89,4797.23 1057.89,4769.06 1086.5,4746C 1065.03,4740.94 1048.03,4729.44 1035.5,4711.5C 1099.54,4708.75 1148.37,4680.42 1182,4626.5C 1206.14,4579.04 1212.14,4529.37 1200,4477.5C 1196.59,4463.21 1192.26,4449.21 1187,4435.5C 1175.22,4406.6 1162.88,4377.93 1150,4349.5C 1131.32,4307.46 1121.16,4263.46 1119.5,4217.5C 1120.44,4179.62 1127.61,4142.96 1141,4107.5C 1155.22,4071.57 1172.72,4037.4 1193.5,4005C 1147.41,4023.08 1114.25,4054.92 1094,4100.5C 1079.67,4137.83 1071.33,4176.5 1069,4216.5C 1066.4,4256.53 1063.4,4296.53 1060,4336.5C 1057.02,4378.09 1042.69,4415.09 1017,4447.5C 970.759,4496.94 915.259,4511.44 850.5,4491C 806.938,4473.1 776.438,4442.27 759,4398.5C 747.604,4367.85 740.937,4336.19 739,4303.5C 731.907,4200.39 747.24,4100.72 785,4004.5C 816.595,3928.5 864.761,3865 929.5,3814C 962.29,3789.1 996.624,3766.43 1032.5,3746C 1076.36,3722.23 1120.7,3699.23 1165.5,3677C 1200.14,3659.33 1233.47,3639.66 1265.5,3618C 1320.5,3580.66 1361.33,3531.49 1388,3470.5C 1430.2,3373.71 1437.53,3274.37 1410,3172.5C 1397.88,3127.1 1374.38,3088.94 1339.5,3058C 1297.98,3024.05 1250.31,3008.72 1196.5,3012C 1167.42,3014.29 1143.59,3026.45 1125,3048.5C 1114.25,3065.17 1109.25,3083.51 1110,3103.5C 1086.92,3072.39 1084.59,3039.73 1103,3005.5C 1106.9,2999.54 1111.4,2994.04 1116.5,2989C 1077.09,2998.45 1043.26,3017.62 1015,3046.5C 973.736,3095.07 964.07,3149.41 986,3209.5C 993.884,3229.05 1007.05,3243.88 1025.5,3254C 1049.51,3262.89 1067.34,3256.06 1079,3233.5C 1086.9,3206.13 1078.73,3184.96 1054.5,3170C 1045.45,3165.21 1036.12,3161.21 1026.5,3158C 1054.4,3151.95 1081.07,3155.28 1106.5,3168C 1135.49,3186.96 1150.49,3213.96 1151.5,3249C 1147.36,3304.8 1117.7,3337.47 1062.5,3347C 1050.17,3348.58 1037.84,3348.91 1025.5,3348C 1045.1,3372.27 1063.93,3397.1 1082,3422.5C 1099.74,3451.38 1110.07,3482.71 1113,3516.5C 1115.49,3574.7 1092.65,3619.86 1044.5,3652C 1043.83,3652.67 1043.17,3652.67 1042.5,3652C 1086.35,3606.09 1097.18,3553.25 1075,3493.5C 1064.89,3471.26 1050.89,3451.93 1033,3435.5C 1041.96,3459.02 1048.3,3483.35 1052,3508.5C 1057.26,3542.41 1053.93,3575.41 1042,3607.5C 1026.02,3641.82 1000.18,3665.32 964.5,3678C 914.972,3694.41 870.305,3686.08 830.5,3653C 804.81,3626.44 790.977,3594.61 789,3557.5C 806.204,3571.69 825.704,3581.52 847.5,3587C 893.674,3593.46 922.841,3574.3 935,3529.5C 939.115,3505.11 936.449,3481.45 927,3458.5C 921.204,3444.23 913.871,3430.9 905,3418.5C 900.138,3442.56 886.804,3460.22 865,3471.5C 864.833,3471 864.667,3470.5 864.5,3470C 877.118,3447.48 881.951,3423.31 879,3397.5C 877.841,3382.39 875.841,3367.39 873,3352.5C 865.588,3318.03 859.254,3283.36 854,3248.5C 847.575,3206.31 849.909,3164.65 861,3123.5C 867.306,3102.89 876.473,3083.72 888.5,3066C 849.768,3055.38 833.601,3030.21 840,2990.5C 845.677,2973.49 856.844,2961.66 873.5,2955C 885.616,2950.94 897.95,2949.94 910.5,2952C 881.9,2959.07 870.4,2976.9 876,3005.5C 883.107,3020.47 894.941,3026.64 911.5,3024C 921.939,3021.45 931.272,3016.78 939.5,3010C 951.5,2999.33 962.833,2988 973.5,2976C 1044.04,2914.03 1125.38,2892.7 1217.5,2912C 1196.49,2884.27 1190.32,2853.43 1199,2819.5C 1208.44,2790.22 1227.94,2771.89 1257.5,2764.5 Z"/></g>
<g><path style="opacity:0.993" fill="#d7b568" d="M 7073.5,2764.5 C 7121.47,2761.64 7150.64,2783.64 7161,2830.5C 7165.36,2859.9 7158.86,2886.56 7141.5,2910.5C 7230.15,2893.24 7309.15,2913.41 7378.5,2971C 7392.25,2985.08 7406.25,2998.75 7420.5,3012C 7432.28,3021.26 7445.61,3025.26 7460.5,3024C 7475.51,3018.65 7483.17,3007.99 7483.5,2992C 7483.35,2978.36 7477.68,2967.69 7466.5,2960C 7460.27,2956.22 7453.61,2953.55 7446.5,2952C 7466.17,2948.6 7484.17,2952.6 7500.5,2964C 7519.23,2982.64 7524.06,3004.48 7515,3029.5C 7505.97,3049.36 7490.8,3061.69 7469.5,3066.5C 7499.26,3114.2 7511.42,3166.2 7506,3222.5C 7504.36,3242.97 7501.7,3263.3 7498,3283.5C 7493,3309.17 7488,3334.83 7483,3360.5C 7478.61,3383.35 7477.28,3406.35 7479,3429.5C 7480.56,3444.35 7485.4,3458.02 7493.5,3470.5C 7477.57,3464.08 7465.73,3452.75 7458,3436.5C 7455.78,3430.85 7453.78,3425.18 7452,3419.5C 7429.58,3449.43 7419.25,3483.1 7421,3520.5C 7425.46,3557.28 7445.62,3579.78 7481.5,3588C 7502.35,3589.87 7522.01,3585.87 7540.5,3576C 7550.27,3570.7 7559.44,3564.53 7568,3557.5C 7566.08,3598.84 7549.58,3633.01 7518.5,3660C 7483.26,3685.09 7444.6,3692.09 7402.5,3681C 7343.53,3662.24 7310.7,3622.07 7304,3560.5C 7302.22,3535.92 7303.89,3511.59 7309,3487.5C 7313.4,3469.87 7318.4,3452.54 7324,3435.5C 7272.75,3483.5 7259.08,3540.5 7283,3606.5C 7290.55,3623.6 7301.05,3638.6 7314.5,3651.5C 7314.17,3651.83 7313.83,3652.17 7313.5,3652.5C 7252.41,3609.41 7231.57,3551.41 7251,3478.5C 7260.44,3447.61 7275.11,3419.61 7295,3394.5C 7307.53,3379.27 7319.7,3363.77 7331.5,3348C 7302.28,3351.13 7274.95,3345.47 7249.5,3331C 7212.41,3303.41 7199.24,3266.91 7210,3221.5C 7225.43,3177.1 7256.76,3155.1 7304,3155.5C 7312.94,3155.28 7321.77,3156.11 7330.5,3158C 7313.1,3162.61 7298.27,3171.45 7286,3184.5C 7269.62,3207.62 7271.12,3229.45 7290.5,3250C 7302.62,3257.97 7315.62,3259.64 7329.5,3255C 7345.56,3247.61 7357.72,3236.11 7366,3220.5C 7390.22,3170 7388.55,3120.34 7361,3071.5C 7338.29,3037.47 7307.79,3012.97 7269.5,2998C 7259.99,2994.16 7250.32,2991.16 7240.5,2989C 7264.3,3013.08 7271.8,3041.58 7263,3074.5C 7259.49,3085.2 7254.15,3094.86 7247,3103.5C 7247.88,3059.39 7227.38,3030.55 7185.5,3017C 7109.62,3002.69 7045.79,3024.19 6994,3081.5C 6970.53,3110.77 6954.2,3143.77 6945,3180.5C 6917.77,3291.25 6930.44,3397.25 6983,3498.5C 7003.85,3537.69 7031.68,3571.19 7066.5,3599C 7101.8,3625.66 7139.14,3649.33 7178.5,3670C 7221.83,3692.33 7265.17,3714.67 7308.5,3737C 7356.49,3762.69 7401.49,3792.69 7443.5,3827C 7513.69,3887.48 7562.19,3962.31 7589,4051.5C 7620.07,4149.75 7627.73,4249.75 7612,4351.5C 7604.96,4395.42 7585.46,4432.59 7553.5,4463C 7507.38,4500.88 7456.05,4509.88 7399.5,4490C 7362.98,4474.48 7335.81,4448.98 7318,4413.5C 7305.93,4387.84 7298.93,4360.84 7297,4332.5C 7293.88,4296.2 7291.21,4259.87 7289,4223.5C 7287.02,4179.95 7278.02,4137.95 7262,4097.5C 7241.96,4052.79 7209.13,4021.96 7163.5,4005C 7196,4053.18 7218.83,4105.68 7232,4162.5C 7241.13,4210.17 7238.46,4257.17 7224,4303.5C 7220.06,4315.98 7215.73,4328.32 7211,4340.5C 7198.33,4369.83 7185.67,4399.17 7173,4428.5C 7162.11,4454.84 7155.11,4482.17 7152,4510.5C 7148.75,4551.84 7156.75,4590.84 7176,4627.5C 7209.45,4680.83 7257.95,4708.83 7321.5,4711.5C 7309.26,4729.88 7292.26,4741.38 7270.5,4746C 7299.54,4769.09 7321.87,4797.42 7337.5,4831C 7329.64,4827.41 7321.64,4823.74 7313.5,4820C 7288.25,4809.22 7262.92,4808.89 7237.5,4819C 7204.76,4836.64 7189.26,4864.14 7191,4901.5C 7195.39,4927.89 7209.22,4947.73 7232.5,4961C 7255.36,4972.43 7278.7,4982.77 7302.5,4992C 7310.99,4996.08 7319.32,5000.41 7327.5,5005C 7292.64,5013.77 7261.3,5029.43 7233.5,5052C 7256.1,5063.12 7276.77,5076.95 7295.5,5093.5C 7270.42,5094.94 7246.42,5100.77 7223.5,5111C 7189.22,5125.95 7159.39,5147.12 7134,5174.5C 7124.98,5185.53 7118.32,5197.87 7114,5211.5C 7110.18,5228.09 7113.85,5242.76 7125,5255.5C 7137.37,5266.2 7148.7,5277.87 7159,5290.5C 7169.13,5304.02 7172.13,5319.02 7168,5335.5C 7166.32,5341.37 7164.16,5347.03 7161.5,5352.5C 7174.49,5388.25 7169.99,5421.58 7148,5452.5C 7139.18,5463.32 7129.68,5473.49 7119.5,5483C 7118.67,5483.69 7118,5483.52 7117.5,5482.5C 7124.54,5458.28 7123.71,5434.28 7115,5410.5C 7111.98,5401.59 7106.48,5394.75 7098.5,5390C 7082.77,5389.84 7067.11,5388.84 7051.5,5387C 7034.86,5385.1 7020.69,5378.26 7009,5366.5C 6999.72,5352.22 6990.06,5338.22 6980,5324.5C 6964.92,5333.33 6954.59,5346 6949,5362.5C 6947.49,5369.43 6947.16,5376.43 6948,5383.5C 6950.94,5396.88 6953.11,5410.38 6954.5,5424C 6954.52,5434.59 6951.36,5444.09 6945,5452.5C 6923.11,5475.57 6896.28,5484.74 6864.5,5480C 6859.93,5479.54 6855.43,5478.7 6851,5477.5C 6850.17,5477.83 6849.33,5478.17 6848.5,5478.5C 6830.55,5504.51 6823.38,5533.18 6827,5564.5C 6828.54,5571.41 6831.04,5577.91 6834.5,5584C 6789.11,5577.07 6766.11,5550.24 6765.5,5503.5C 6765.52,5492.67 6766.85,5482 6769.5,5471.5C 6756.73,5442.17 6761.73,5416.34 6784.5,5394C 6790.5,5389.33 6796.5,5384.67 6802.5,5380C 6830.26,5365.87 6855.09,5347.7 6877,5325.5C 6881.53,5319.77 6885.03,5313.44 6887.5,5306.5C 6887.39,5305.56 6887.06,5304.72 6886.5,5304C 6856.64,5301.72 6828.97,5308.38 6803.5,5324C 6796.07,5329.43 6789.24,5335.59 6783,5342.5C 6770.33,5359.83 6757.67,5377.17 6745,5394.5C 6730.8,5412.18 6712.3,5420.51 6689.5,5419.5C 6666.52,5418.47 6644.36,5413.8 6623,5405.5C 6587.2,5419.47 6561.7,5444.14 6546.5,5479.5C 6539.35,5432.09 6551.18,5390.09 6582,5353.5C 6581,5331.16 6585.66,5310.16 6596,5290.5C 6609.86,5271.49 6628.69,5262.49 6652.5,5263.5C 6661.87,5263.87 6671.21,5264.7 6680.5,5266C 6705.41,5270.87 6730.41,5275.21 6755.5,5279C 6777.13,5280.09 6797.8,5276.09 6817.5,5267C 6840.43,5257.46 6860.27,5243.63 6877,5225.5C 6884.17,5217.84 6885.17,5209.51 6880,5200.5C 6872.19,5192.01 6862.69,5186.17 6851.5,5183C 6825.65,5175.65 6799.31,5172.98 6772.5,5175C 6758.69,5173.01 6747.53,5166.51 6739,5155.5C 6733.78,5147.72 6729.61,5139.39 6726.5,5130.5C 6703.96,5127.13 6682.63,5130.96 6662.5,5142C 6653.21,5148.06 6646.38,5156.23 6642,5166.5C 6634.74,5132.18 6646.24,5106.01 6676.5,5088C 6690.38,5079.82 6705.21,5073.98 6721,5070.5C 6736.37,5047.05 6758.2,5034.22 6786.5,5032C 6812.03,5028.4 6834.36,5035.07 6853.5,5052C 6861.7,5060.54 6869.54,5069.37 6877,5078.5C 6887.28,5093.12 6897.95,5107.45 6909,5121.5C 6919.51,5133.69 6932.01,5143.19 6946.5,5150C 6965.68,5156.48 6983.68,5154.15 7000.5,5143C 7019.85,5127.97 7034.35,5109.14 7044,5086.5C 7064.35,5042.16 7068.02,4996.49 7055,4949.5C 7048.13,4927.89 7041.46,4906.23 7035,4884.5C 7029.21,4862.88 7026.38,4840.88 7026.5,4818.5C 7026.74,4801.73 7027.9,4785.06 7030,4768.5C 6993.86,4748.36 6964.86,4720.7 6943,4685.5C 6926.75,4657.99 6909.75,4630.99 6892,4604.5C 6860.23,4559.69 6816.73,4536.53 6761.5,4535C 6750.17,4535 6738.83,4535 6727.5,4535C 6773.05,4474.03 6799.89,4405.53 6808,4329.5C 6813.29,4244.71 6788.29,4170.37 6733,4106.5C 6696.25,4066.39 6653.75,4033.89 6605.5,4009C 6555.49,3983.55 6502.82,3965.88 6447.5,3956C 6402.31,3948.68 6356.97,3942.35 6311.5,3937C 6220.6,3927.3 6141.94,3891.63 6075.5,3830C 6045.87,3801.89 6020.2,3770.72 5998.5,3736.5C 6033.91,3688.59 6078.91,3652.75 6133.5,3629C 6156.69,3619.35 6180.69,3616.35 6205.5,3620C 6220.87,3623.45 6234.87,3629.78 6247.5,3639C 6258.81,3648.25 6269.64,3658.08 6280,3668.5C 6293.37,3682.87 6306.37,3697.54 6319,3712.5C 6323.68,3717.35 6328.51,3722.02 6333.5,3726.5C 6337.94,3688.69 6343.44,3651.02 6350,3613.5C 6360.65,3549.58 6383.98,3490.91 6420,3437.5C 6423.67,3432.83 6427.33,3428.17 6431,3423.5C 6431.67,3422.83 6431.67,3422.17 6431,3421.5C 6388.93,3449.9 6358.26,3487.57 6339,3534.5C 6322.71,3573.64 6312.38,3614.31 6308,3656.5C 6271.05,3598.3 6218.55,3576.13 6150.5,3590C 6116.3,3598.77 6084.97,3613.44 6056.5,3634C 5974.9,3696.32 5919.4,3776.82 5890,3875.5C 5871.5,3852.16 5859.16,3825.82 5853,3796.5C 5850.89,3787.61 5851.05,3778.78 5853.5,3770C 5853.17,3769.5 5852.83,3769 5852.5,3768.5C 5814.03,3786.74 5792.2,3817.07 5787,3859.5C 5787.26,3880 5785.6,3900.33 5782,3920.5C 5779.81,3934.21 5773.98,3945.87 5764.5,3955.5C 5774.53,3986.88 5768.53,4014.71 5746.5,4039C 5728.66,4051.84 5708.66,4059.17 5686.5,4061C 5675.48,4061.89 5664.48,4062.73 5653.5,4063.5C 5653.17,4063.17 5652.83,4062.83 5652.5,4062.5C 5668.01,4055.16 5681.18,4044.83 5692,4031.5C 5702.79,4016.96 5707.62,4000.63 5706.5,3982.5C 5681.29,3976.28 5669.29,3960.12 5670.5,3934C 5671.29,3920.5 5671.46,3907 5671,3893.5C 5665.85,3876.34 5654.35,3868.84 5636.5,3871C 5611.29,3878.54 5594.12,3894.71 5585,3919.5C 5583.02,3925.41 5581.36,3931.41 5580,3937.5C 5579.22,3952.32 5576.22,3966.65 5571,3980.5C 5565.05,3992.45 5555.88,4000.95 5543.5,4006C 5535.41,4008.15 5527.25,4009.65 5519,4010.5C 5505.89,4038.45 5504.05,4067.11 5513.5,4096.5C 5482.79,4088.61 5463.95,4068.95 5457,4037.5C 5454.23,4016.33 5456.4,3995.67 5463.5,3975.5C 5461.02,3964.41 5462.86,3954.08 5469,3944.5C 5478.62,3929.21 5490.12,3915.37 5503.5,3903C 5513.94,3894.57 5523.77,3885.4 5533,3875.5C 5539.09,3868.81 5542.93,3860.98 5544.5,3852C 5542.75,3840.25 5535.92,3834.09 5524,3833.5C 5509.04,3835.4 5495.87,3841.23 5484.5,3851C 5479.33,3856.17 5474.17,3861.33 5469,3866.5C 5461.91,3877.01 5454.58,3887.34 5447,3897.5C 5431.71,3914.89 5413.71,3918.56 5393,3908.5C 5357.12,3917.04 5335.46,3939.38 5328,3975.5C 5301.45,3936.01 5305.62,3900.18 5340.5,3868C 5348.73,3861.3 5357.57,3855.46 5367,3850.5C 5367.79,3824.41 5380.29,3806.57 5404.5,3797C 5421.77,3792.75 5439.1,3788.75 5456.5,3785C 5464.88,3782.99 5472.88,3779.99 5480.5,3776C 5493.32,3768.21 5497.49,3757.04 5493,3742.5C 5490.5,3733.33 5484.67,3727.5 5475.5,3725C 5468.78,3724.23 5462.11,3724.56 5455.5,3726C 5432.21,3735.87 5408.21,3743.54 5383.5,3749C 5374.68,3751.3 5366.02,3750.97 5357.5,3748C 5353.81,3740.96 5349.14,3734.62 5343.5,3729C 5338.51,3726.3 5333.18,3724.8 5327.5,3724.5C 5300.78,3724.41 5282.61,3736.75 5273,3761.5C 5271.16,3767.53 5269.33,3773.53 5267.5,3779.5C 5252.38,3757.36 5246.55,3733.03 5250,3706.5C 5253.47,3694.03 5260.97,3684.87 5272.5,3679C 5295.78,3666.79 5320.44,3662.63 5346.5,3666.5C 5355.88,3643.8 5372.88,3634.64 5397.5,3639C 5412.35,3642.92 5426.68,3648.25 5440.5,3655C 5458.42,3662.75 5477.09,3665.75 5496.5,3664C 5517.77,3658.8 5538.43,3651.8 5558.5,3643C 5574.33,3637.23 5590.66,3633.9 5607.5,3633C 5640.93,3631.14 5674.1,3633.3 5707,3639.5C 5768.58,3631.86 5826.42,3613.03 5880.5,3583C 5892.03,3575.73 5903.03,3567.73 5913.5,3559C 5942.38,3530.67 5967.55,3499.5 5989,3465.5C 6012.18,3451.32 6036.68,3439.82 6062.5,3431C 6079.71,3425.26 6097.05,3419.93 6114.5,3415C 6171.69,3401.04 6229.02,3387.7 6286.5,3375C 6330.38,3365.03 6373.05,3351.36 6414.5,3334C 6451.37,3318.43 6483.21,3295.93 6510,3266.5C 6537.15,3233.09 6552.15,3194.75 6555,3151.5C 6561.72,3142.95 6568.22,3134.28 6574.5,3125.5C 6597.32,3177.66 6631.65,3220.66 6677.5,3254.5C 6668.91,3323.22 6665.07,3392.22 6666,3461.5C 6667.62,3526.97 6682.96,3588.97 6712,3647.5C 6741.68,3701.52 6783.18,3744.02 6836.5,3775C 6879.39,3798.63 6924.72,3815.96 6972.5,3827C 6993.02,3831.77 7013.68,3835.77 7034.5,3839C 7061.22,3842.3 7087.89,3845.97 7114.5,3850C 7161.81,3857.5 7205.47,3874.17 7245.5,3900C 7282.5,3926.67 7310.33,3960.83 7329,4002.5C 7345.14,4040.71 7356.14,4080.37 7362,4121.5C 7369.81,4178.26 7375.15,4235.26 7378,4292.5C 7380.59,4323.97 7391.59,4351.97 7411,4376.5C 7441.32,4404.9 7473.15,4406.73 7506.5,4382C 7520.05,4369.74 7528.55,4354.58 7532,4336.5C 7537.61,4266.46 7534.61,4196.79 7523,4127.5C 7500.92,3998.37 7433.75,3900.87 7321.5,3835C 7309.33,3827.75 7297,3820.75 7284.5,3814C 7234.78,3788.81 7184.78,3764.14 7134.5,3740C 7085.71,3715.83 7040.71,3686.17 6999.5,3651C 6925.82,3583.16 6881.32,3499.33 6866,3399.5C 6850.64,3305.45 6860.31,3214.12 6895,3125.5C 6913.47,3080.21 6940.13,3040.54 6975,3006.5C 6989.32,2987.17 7005.49,2969.34 7023.5,2953C 7047.24,2932.94 7070.07,2911.77 7092,2889.5C 7108.33,2871.18 7115,2849.85 7112,2825.5C 7105.53,2808.75 7093.2,2800.42 7075,2800.5C 7046.87,2802.46 7031.37,2817.46 7028.5,2845.5C 7029.21,2853.23 7030.88,2860.73 7033.5,2868C 7029.63,2867.18 7026.47,2865.01 7024,2861.5C 7011.05,2843.75 7009.05,2824.75 7018,2804.5C 7029.98,2782.01 7048.48,2768.68 7073.5,2764.5 Z"/></g>
<g><path style="opacity:0.983" fill="#d7b568" d="M 1851.5,3203.5 C 1887.55,3232.51 1928.55,3251.35 1974.5,3260C 2012.12,3265.99 2049.79,3271.33 2087.5,3276C 2067.99,3258.66 2048.66,3241.16 2029.5,3223.5C 2062.64,3231.28 2095.97,3239.11 2129.5,3247C 2160.51,3254.01 2190.17,3264.67 2218.5,3279C 2242.2,3291.03 2259.36,3309.2 2270,3333.5C 2272.47,3340.37 2274.47,3347.37 2276,3354.5C 2305.77,3342.55 2324.27,3320.89 2331.5,3289.5C 2358.49,3312.42 2387.33,3332.75 2418,3350.5C 2438.97,3391.16 2446.47,3434.16 2440.5,3479.5C 2412.78,3452.65 2381.11,3431.48 2345.5,3416C 2313,3402.28 2279.67,3390.95 2245.5,3382C 2177.79,3366.16 2110.13,3350.16 2042.5,3334C 1998.97,3322.83 1957.97,3305.83 1919.5,3283C 1892.42,3265.59 1871.26,3242.76 1856,3214.5C 1854.49,3210.81 1852.99,3207.15 1851.5,3203.5 Z"/></g>
<g><path style="opacity:0.983" fill="#d7b568" d="M 6504.5,3203.5 C 6505.57,3204.25 6505.74,3205.25 6505,3206.5C 6488.53,3240.64 6464.03,3267.47 6431.5,3287C 6395.89,3307.21 6358.22,3322.54 6318.5,3333C 6250.95,3349.47 6183.28,3365.47 6115.5,3381C 6066.86,3392.77 6020.52,3410.43 5976.5,3434C 5954.88,3446.98 5934.88,3462.15 5916.5,3479.5C 5910.64,3433.68 5918.47,3390.35 5940,3349.5C 5970.85,3332.81 5999.35,3312.81 6025.5,3289.5C 6032.79,3320.74 6051.29,3342.4 6081,3354.5C 6085.49,3330.02 6097.32,3309.86 6116.5,3294C 6134.05,3280.55 6153.39,3270.22 6174.5,3263C 6188.32,3258.06 6202.32,3253.73 6216.5,3250C 6253.92,3240.98 6291.25,3231.98 6328.5,3223C 6308.83,3240.67 6289.17,3258.33 6269.5,3276C 6307.21,3271.33 6344.88,3265.99 6382.5,3260C 6428.52,3252.15 6469.19,3233.31 6504.5,3203.5 Z"/></g>
<g><path style="opacity:0.965" fill="#d7b568" d="M 4519.5,3835.5 C 4542.88,3838.94 4565.88,3844.11 4588.5,3851C 4634.44,3864.94 4662.27,3895.44 4672,3942.5C 4674.65,3952.72 4676.32,3963.06 4677,3973.5C 4625.45,3928.31 4573.61,3883.48 4521.5,3839C 4520.18,3838.18 4519.51,3837.02 4519.5,3835.5 Z"/></g>
<g><path style="opacity:0.993" fill="#d7b568" d="M 2973.5,3954.5 C 2975.12,3954.36 2976.29,3955.03 2977,3956.5C 2983.97,4063.32 3001.64,4168.32 3030,4271.5C 3075.98,4434.86 3154.65,4579.53 3266,4705.5C 3328.3,4773.49 3395.8,4835.32 3468.5,4891C 3544.23,4948.04 3622.57,5001.38 3703.5,5051C 3861.1,5145.98 4021.1,5237.14 4183.5,5324.5C 4305.37,5258.11 4426.37,5190.27 4546.5,5121C 4627.68,5073.59 4707.35,5023.92 4785.5,4972C 4873.78,4912.98 4956.78,4846.98 5034.5,4774C 5203.02,4611.86 5310.86,4415.36 5358,4184.5C 5373.87,4108.57 5384.37,4031.9 5389.5,3954.5C 5399.37,3956.65 5409.37,3957.98 5419.5,3958.5C 5418.71,3964.12 5418.21,3969.78 5418,3975.5C 5405.78,4016.17 5410.78,4054.51 5433,4090.5C 5447.74,4110.57 5466.57,4125.41 5489.5,4135C 5502.02,4139.67 5514.68,4143.84 5527.5,4147.5C 5503.72,4302.34 5454.89,4448.68 5381,4586.5C 5324.64,4686.89 5255.97,4778.22 5175,4860.5C 5097.06,4937.49 5013.56,5007.32 4924.5,5070C 4824.37,5139.25 4721.37,5204.25 4615.5,5265C 4471.83,5346.65 4327.67,5427.48 4183,5507.5C 4030.95,5423.23 3879.45,5338.06 3728.5,5252C 3618.43,5188.32 3511.77,5119.65 3408.5,5046C 3324.39,4984.93 3245.89,4916.76 3173,4841.5C 3009.21,4668.29 2902.88,4463.96 2854,4228.5C 2848.56,4202.01 2843.39,4175.51 2838.5,4149C 2852.72,4143.48 2867.06,4138.15 2881.5,4133C 2923.59,4113.02 2947.76,4079.85 2954,4033.5C 2956.07,4012.86 2953.9,3992.7 2947.5,3973C 2948.14,3967.88 2948.14,3962.71 2947.5,3957.5C 2953.18,3957.67 2958.84,3957.5 2964.5,3957C 2967.74,3956.59 2970.74,3955.76 2973.5,3954.5 Z M 3877.5,3986.5 C 3873.54,3988.49 3869.88,3990.99 3866.5,3994C 3852.17,4004.99 3841.67,4018.82 3835,4035.5C 3832.08,4069.21 3828.08,4102.88 3823,4136.5C 3819.63,4157.62 3813.63,4177.96 3805,4197.5C 3803.54,4203.22 3803.54,4208.89 3805,4214.5C 3808.5,4214.93 3811.5,4213.6 3814,4210.5C 3835.84,4180.34 3849.51,4146.67 3855,4109.5C 3860.56,4068.12 3868.06,4027.12 3877.5,3986.5 Z M 3558.5,4100.5 C 3553.1,4103.03 3547.77,4105.87 3542.5,4109C 3482.38,4126.6 3422.38,4144.6 3362.5,4163C 3343.11,4172.72 3328.78,4187.39 3319.5,4207C 3388.63,4185.62 3457.63,4163.62 3526.5,4141C 3543.13,4133.85 3557.46,4123.52 3569.5,4110C 3567.48,4104.81 3563.82,4101.64 3558.5,4100.5 Z M 3733.5,4149.5 C 3711.36,4184.72 3697.2,4223.06 3691,4264.5C 3685.67,4298.5 3680.33,4332.5 3675,4366.5C 3672.03,4382.34 3668.7,4398.01 3665,4413.5C 3671.59,4408.45 3678.09,4403.29 3684.5,4398C 3691.6,4390.9 3697.1,4382.74 3701,4373.5C 3711.22,4339.97 3719.55,4305.97 3726,4271.5C 3732.56,4233.95 3739.4,4196.45 3746.5,4159C 3745.41,4151.41 3741.07,4148.24 3733.5,4149.5 Z M 3805.5,4636.5 C 3794.99,4656.36 3784.32,4676.19 3773.5,4696C 3750.77,4698.93 3728.1,4701.93 3705.5,4705C 3721.35,4721.35 3737.02,4737.85 3752.5,4754.5C 3747.45,4776.42 3742.78,4798.42 3738.5,4820.5C 3759.28,4811.53 3779.78,4801.86 3800,4791.5C 3819.67,4802.83 3839.33,4814.17 3859,4825.5C 3857.03,4802.88 3854.19,4780.38 3850.5,4758C 3867.2,4742.3 3884.2,4726.96 3901.5,4712C 3879.23,4707.41 3856.89,4703.08 3834.5,4699C 3824.93,4678.03 3815.26,4657.2 3805.5,4636.5 Z M 4561.5,4646.5 C 4551.05,4666.56 4540.72,4686.73 4530.5,4707C 4507.81,4710 4485.14,4713.17 4462.5,4716.5C 4478.5,4732.83 4494.5,4749.17 4510.5,4765.5C 4506.17,4787.5 4501.83,4809.5 4497.5,4831.5C 4518,4822.34 4538.5,4812.34 4559,4801.5C 4578.84,4812.75 4598.84,4823.75 4619,4834.5C 4616.34,4814.18 4613.34,4793.85 4610,4773.5C 4609.33,4770.83 4609.33,4768.17 4610,4765.5C 4626.45,4750.68 4642.62,4735.51 4658.5,4720C 4635.81,4715.94 4613.15,4711.77 4590.5,4707.5C 4581.06,4686.95 4571.39,4666.62 4561.5,4646.5 Z M 4174.5,4747.5 C 4162.31,4774.72 4149.97,4801.89 4137.5,4829C 4107.54,4834.79 4077.54,4840.46 4047.5,4846C 4069.67,4866.17 4091.83,4886.33 4114,4906.5C 4110.42,4936.84 4106.75,4967.18 4103,4997.5C 4129.07,4982.3 4155.4,4967.63 4182,4953.5C 4209.25,4965.96 4236.25,4978.96 4263,4992.5C 4258.01,4962.72 4252.18,4933.05 4245.5,4903.5C 4266.32,4881.51 4287.32,4859.68 4308.5,4838C 4278.61,4833.83 4248.61,4830.16 4218.5,4827C 4204.12,4801.07 4190.12,4774.91 4176.5,4748.5C 4176.04,4747.7 4175.38,4747.37 4174.5,4747.5 Z"/></g>
<g><path style="opacity:0.992" fill="#d7b568" d="M 4871.5,3975.5 C 4913.92,3974.45 4944.08,3993.12 4962,4031.5C 4967,4042.15 4970.16,4053.32 4971.5,4065C 4971.88,4079.24 4966.21,4090.24 4954.5,4098C 4928.76,4116.21 4901.43,4131.88 4872.5,4145C 4864.85,4148.61 4856.85,4151.11 4848.5,4152.5C 4820.52,4148.91 4795.52,4155.74 4773.5,4173C 4758.67,4187.82 4749.5,4205.66 4746,4226.5C 4744.26,4237.09 4743.26,4247.76 4743,4258.5C 4736.71,4274.12 4728.71,4288.79 4719,4302.5C 4704.95,4323.38 4688.45,4342.22 4669.5,4359C 4659.6,4363.84 4649.27,4364.84 4638.5,4362C 4617.99,4356.83 4601.16,4346 4588,4329.5C 4576.85,4316.34 4568.18,4301.67 4562,4285.5C 4557.64,4266.33 4560.64,4248.33 4571,4231.5C 4581.23,4216.6 4592.23,4202.26 4604,4188.5C 4613.42,4176.25 4618.92,4162.42 4620.5,4147C 4619.34,4133.51 4615.18,4121.01 4608,4109.5C 4602.33,4092.34 4608.16,4081.17 4625.5,4076C 4636.46,4074.74 4647.46,4073.74 4658.5,4073C 4669.51,4071.59 4677.01,4065.76 4681,4055.5C 4682.97,4046.96 4683.97,4038.29 4684,4029.5C 4684.9,4021.81 4687.56,4014.81 4692,4008.5C 4698.52,4002.42 4706.02,4000.92 4714.5,4004C 4724.78,4011.47 4736.12,4016.81 4748.5,4020C 4765.62,4022.39 4781.62,4019.06 4796.5,4010C 4811.18,3999.99 4826.51,3990.99 4842.5,3983C 4852.02,3979.37 4861.69,3976.87 4871.5,3975.5 Z"/></g>
<g><path style="opacity:0.992" fill="#d7b568" d="M 1949.5,4015.5 C 2072.25,4010.62 2168.41,4058.29 2238,4158.5C 2264.3,4197.43 2284.46,4239.43 2298.5,4284.5C 2298.17,4284.83 2297.83,4285.17 2297.5,4285.5C 2259.18,4253.5 2217.18,4227.33 2171.5,4207C 2188.3,4229.18 2201.8,4253.35 2212,4279.5C 2224.36,4312.1 2233.19,4345.6 2238.5,4380C 2237.09,4380.32 2235.76,4379.98 2234.5,4379C 2210.79,4357.78 2185.79,4338.28 2159.5,4320.5C 2160.19,4350.28 2157.02,4379.61 2150,4408.5C 2144.02,4424.8 2136.68,4440.47 2128,4455.5C 2121.15,4469.37 2115.49,4483.7 2111,4498.5C 2108.31,4508.1 2107.98,4517.77 2110,4527.5C 2126.13,4563.79 2146.8,4597.12 2172,4627.5C 2179.84,4635.69 2189.01,4641.85 2199.5,4646C 2208.79,4647.9 2217.12,4645.9 2224.5,4640C 2228.63,4636.87 2232.47,4633.37 2236,4629.5C 2247.76,4613.65 2259.76,4597.99 2272,4582.5C 2298.03,4551.95 2330.19,4543.12 2368.5,4556C 2383.99,4561.67 2395.99,4571.5 2404.5,4585.5C 2428.28,4590.63 2448.78,4601.63 2466,4618.5C 2478.84,4634.52 2482.67,4652.52 2477.5,4672.5C 2471.24,4660.02 2461.57,4651.19 2448.5,4646C 2433.02,4640.24 2417.02,4638.07 2400.5,4639.5C 2391.36,4671.66 2370.19,4685.33 2337,4680.5C 2313.52,4680.2 2291.35,4685.36 2270.5,4696C 2263.15,4700.55 2259.32,4707.05 2259,4715.5C 2262.59,4723.76 2267.75,4730.93 2274.5,4737C 2295.73,4754.28 2319.73,4766.28 2346.5,4773C 2354.78,4774.62 2363.11,4775.29 2371.5,4775C 2395.27,4771.65 2418.94,4767.65 2442.5,4763C 2458.94,4759.43 2475.27,4759.76 2491.5,4764C 2509.16,4770.33 2520.66,4782.5 2526,4800.5C 2529.75,4813.89 2531.41,4827.56 2531,4841.5C 2559.24,4874.76 2570.24,4913.09 2564,4956.5C 2550.15,4924.49 2526.99,4902.15 2494.5,4889.5C 2466.64,4901.07 2437.97,4903.9 2408.5,4898C 2404.01,4895.92 2399.67,4893.59 2395.5,4891C 2392,4887.5 2388.5,4884 2385,4880.5C 2372.76,4864.34 2360.76,4848.01 2349,4831.5C 2330.7,4812.16 2308.2,4800.99 2281.5,4798C 2272.5,4797.33 2263.5,4797.33 2254.5,4798C 2256.82,4805.14 2260.32,4811.64 2265,4817.5C 2283.64,4836.48 2304.81,4851.98 2328.5,4864C 2340.26,4871.43 2350.43,4880.6 2359,4891.5C 2370.55,4910.25 2371.38,4929.42 2361.5,4949C 2368.57,4973.7 2366.41,4997.53 2355,5020.5C 2342.11,5038.53 2324.61,5048.7 2302.5,5051C 2310.68,5036.1 2313.18,5020.27 2310,5003.5C 2306.53,4986.24 2300.03,4970.24 2290.5,4955.5C 2289.67,4955.17 2288.83,4954.83 2288,4954.5C 2261.71,4961.36 2237.21,4957.53 2214.5,4943C 2206.06,4936.56 2199.9,4928.39 2196,4918.5C 2194.99,4914.4 2194.49,4910.24 2194.5,4906C 2195.43,4894.36 2197.26,4882.86 2200,4871.5C 2202.65,4857.43 2199.65,4844.76 2191,4833.5C 2185.24,4826.9 2178.74,4821.23 2171.5,4816.5C 2162.14,4829.36 2152.97,4842.36 2144,4855.5C 2134.4,4864.05 2123.23,4869.55 2110.5,4872C 2095.58,4874 2080.58,4875 2065.5,4875C 2061.53,4875.96 2058.36,4878.13 2056,4881.5C 2044.13,4902.35 2040.13,4924.69 2044,4948.5C 2044.76,4951.69 2045.59,4954.85 2046.5,4958C 2046.17,4958.5 2045.83,4959 2045.5,4959.5C 2023.45,4942.06 2008.95,4919.73 2002,4892.5C 1998.83,4874.94 2000.66,4857.94 2007.5,4841.5C 1995.52,4819.71 1997.02,4799.04 2012,4779.5C 2022.82,4768.36 2034.65,4758.52 2047.5,4750C 2060.81,4738.73 2065.31,4724.56 2061,4707.5C 2055.03,4687.21 2044.69,4669.55 2030,4654.5C 2013.39,4637.61 1994.55,4623.78 1973.5,4613C 1937.03,4597.29 1899.7,4583.96 1861.5,4573C 1885.35,4559.94 1910.35,4549.61 1936.5,4542C 1908.74,4524.96 1879.74,4510.29 1849.5,4498C 1878.71,4481.8 1902.87,4459.97 1922,4432.5C 1942.56,4395.91 1936.39,4364.75 1903.5,4339C 1874.47,4321.16 1842.81,4311.82 1808.5,4311C 1755.94,4309.65 1704.61,4316.98 1654.5,4333C 1636.9,4338.48 1619.57,4344.64 1602.5,4351.5C 1596.78,4294.38 1607.28,4240.38 1634,4189.5C 1663.66,4162.88 1696.83,4141.38 1733.5,4125C 1767.39,4109.37 1802.39,4096.7 1838.5,4087C 1799.46,4081.8 1760.62,4082.97 1722,4090.5C 1721.38,4089.55 1721.55,4088.72 1722.5,4088C 1756.73,4063.72 1793.73,4044.38 1833.5,4030C 1872.05,4023.01 1910.72,4018.18 1949.5,4015.5 Z"/></g>
<g><path style="opacity:0.992" fill="#d7b568" d="M 6369.5,4015.5 C 6393.21,4015.1 6416.88,4015.94 6440.5,4018C 6467.58,4021.11 6494.58,4024.77 6521.5,4029C 6562.89,4043.52 6601.22,4063.52 6636.5,4089C 6623.53,4087.77 6610.53,4086.43 6597.5,4085C 6575.5,4083 6553.5,4083 6531.5,4085C 6527.31,4085.07 6523.31,4085.74 6519.5,4087C 6578.52,4102.85 6633.85,4126.85 6685.5,4159C 6698.57,4168.07 6711.07,4177.9 6723,4188.5C 6749.97,4239.69 6760.64,4294.02 6755,4351.5C 6701.34,4329.13 6645.51,4315.63 6587.5,4311C 6550.46,4307.96 6514.46,4312.63 6479.5,4325C 6461.84,4332 6447,4342.84 6435,4357.5C 6419.82,4382.04 6419.82,4406.71 6435,4431.5C 6447.74,4451.58 6463.91,4468.41 6483.5,4482C 6491.5,4487.33 6499.5,4492.67 6507.5,4498C 6477.59,4510.12 6448.92,4524.62 6421.5,4541.5C 6447.25,4549.54 6471.92,4560.04 6495.5,4573C 6451.7,4585.26 6409.37,4601.26 6368.5,4621C 6341.24,4638.26 6319.41,4660.76 6303,4688.5C 6295.19,4703.54 6293.53,4719.2 6298,4735.5C 6299.78,4738.94 6301.94,4742.11 6304.5,4745C 6315.83,4754 6327.17,4763 6338.5,4772C 6359.73,4792.08 6363.73,4815.25 6350.5,4841.5C 6362.33,4875.17 6357.5,4906.17 6336,4934.5C 6329.19,4943.61 6321.35,4951.78 6312.5,4959C 6311.67,4959.69 6311,4959.52 6310.5,4958.5C 6316.38,4936.61 6315.54,4914.94 6308,4893.5C 6305.26,4885.11 6300.09,4878.94 6292.5,4875C 6276.03,4875.16 6259.7,4873.83 6243.5,4871C 6230.99,4868.67 6220.49,4862.83 6212,4853.5C 6203.72,4840.73 6194.88,4828.39 6185.5,4816.5C 6167.85,4826.63 6158.19,4841.8 6156.5,4862C 6158.77,4876.84 6161.1,4891.67 6163.5,4906.5C 6161.52,4924.65 6152.52,4938.15 6136.5,4947C 6114.53,4958.28 6091.69,4960.45 6068,4953.5C 6051.96,4976.35 6044.96,5001.68 6047,5029.5C 6048.41,5036.89 6050.91,5043.89 6054.5,5050.5C 6032.24,5048.44 6014.74,5038.11 6002,5019.5C 5990.93,4997.04 5988.76,4973.71 5995.5,4949.5C 5986.53,4929.16 5987.7,4909.49 5999,4890.5C 6004.13,4884.36 6009.63,4878.53 6015.5,4873C 6028,4864.25 6041,4856.25 6054.5,4849C 6070.46,4839.38 6084.29,4827.21 6096,4812.5C 6099.27,4807.96 6101.44,4802.96 6102.5,4797.5C 6066.66,4794.17 6035.83,4804.83 6010,4829.5C 5997.76,4845.66 5985.76,4861.99 5974,4878.5C 5958.15,4897.23 5937.98,4904.73 5913.5,4901C 5896.18,4899.29 5879.34,4895.46 5863,4889.5C 5830.19,4901.8 5807.03,4924.14 5793.5,4956.5C 5787.08,4913.17 5797.91,4874.84 5826,4841.5C 5825.15,4821.75 5829.15,4803.08 5838,4785.5C 5850.65,4767.84 5867.99,4759.51 5890,4760.5C 5898.88,4760.84 5907.71,4761.67 5916.5,4763C 5941.35,4768.25 5966.35,4772.42 5991.5,4775.5C 6030.16,4771.25 6063.33,4755.58 6091,4728.5C 6101.76,4717.05 6100.92,4706.55 6088.5,4697C 6074.6,4688.81 6059.6,4683.81 6043.5,4682C 6027.19,4680.82 6010.86,4680.15 5994.5,4680C 5980.36,4676.51 5969.86,4668.35 5963,4655.5C 5960.54,4650.62 5958.37,4645.62 5956.5,4640.5C 5934.7,4637.16 5914.36,4641.33 5895.5,4653C 5888.81,4658.35 5883.64,4664.85 5880,4672.5C 5873.54,4640.92 5884.37,4617.08 5912.5,4601C 5924.74,4594.05 5937.74,4589.05 5951.5,4586C 5970.7,4558.91 5997.04,4547.24 6030.5,4551C 6051.78,4553.56 6069.28,4563.06 6083,4579.5C 6095.38,4594.88 6107.38,4610.55 6119,4626.5C 6124.95,4633.46 6131.78,4639.29 6139.5,4644C 6148.3,4647.47 6156.97,4647.14 6165.5,4643C 6177.91,4635.25 6188.41,4625.42 6197,4613.5C 6216.47,4586.91 6233.13,4558.58 6247,4528.5C 6249.91,4513.35 6248.24,4498.69 6242,4484.5C 6233.48,4463.62 6223.82,4443.28 6213,4423.5C 6205.87,4405.84 6201.53,4387.51 6200,4368.5C 6199.11,4352.5 6198.27,4336.5 6197.5,4320.5C 6170.69,4338.97 6145.02,4358.97 6120.5,4380.5C 6126,4330.84 6140.5,4283.84 6164,4239.5C 6170.55,4228.24 6177.71,4217.4 6185.5,4207C 6139.9,4227.21 6098.07,4253.38 6060,4285.5C 6081.66,4207.66 6122.49,4141.83 6182.5,4088C 6236.64,4043.11 6298.97,4018.95 6369.5,4015.5 Z"/></g>
<g><path style="opacity:0.955" fill="#d7b568" d="M 7419.5,5822.5 C 7502.45,5820.38 7561.95,5856.38 7598,5930.5C 7622.38,5994.44 7614.72,6054.1 7575,6109.5C 7525.08,6168.47 7462.25,6189.31 7386.5,6172C 7325.53,6153.27 7284.69,6113.77 7264,6053.5C 7247.23,5992.71 7257.89,5937.38 7296,5887.5C 7328.43,5849.37 7369.6,5827.7 7419.5,5822.5 Z M 7423.5,5843.5 C 7486.59,5842.29 7535.09,5867.96 7569,5920.5C 7597.29,5972.99 7597.62,6025.65 7570,6078.5C 7538.79,6128.63 7493.46,6154.96 7434,6157.5C 7363.45,6153.58 7314.45,6119.24 7287,6054.5C 7265.83,5987.01 7281,5929.18 7332.5,5881C 7358.97,5859.1 7389.3,5846.6 7423.5,5843.5 Z M 7389.5,5933.5 C 7409.5,5933.33 7429.5,5933.5 7449.5,5934C 7473.27,5936.06 7482.77,5948.56 7478,5971.5C 7472.67,5982.43 7463.84,5988.26 7451.5,5989C 7430.84,5989.5 7410.17,5989.67 7389.5,5989.5C 7389.5,5970.83 7389.5,5952.17 7389.5,5933.5 Z"/></g>
<g><path style="opacity:0.993" fill="#d7b568" d="M 796.5,5901.5 C 926.834,5901.33 1057.17,5901.5 1187.5,5902C 1239.06,5903.3 1287.39,5916.3 1332.5,5941C 1401.81,5984.38 1439.31,6047.22 1445,6129.5C 1448.97,6174.36 1441.97,6217.36 1424,6258.5C 1405.8,6294.53 1378.97,6322.2 1343.5,6341.5C 1417.84,6379.09 1462.34,6439.09 1477,6521.5C 1484.07,6577.89 1477.4,6632.56 1457,6685.5C 1429.17,6748.33 1383.34,6792.5 1319.5,6818C 1280.85,6832.66 1240.85,6840.66 1199.5,6842C 1065.17,6842.5 930.834,6842.67 796.5,6842.5C 796.5,6528.83 796.5,6215.17 796.5,5901.5 Z M 930.5,6027.5 C 1014.17,6027.33 1097.83,6027.5 1181.5,6028C 1215.08,6029.74 1245.08,6040.74 1271.5,6061C 1297.21,6086.11 1309.21,6116.78 1307.5,6153C 1308.05,6226.43 1272.72,6271.77 1201.5,6289C 1189.94,6291.4 1178.27,6293.07 1166.5,6294C 1087.83,6294.5 1009.17,6294.67 930.5,6294.5C 930.5,6205.5 930.5,6116.5 930.5,6027.5 Z M 930.5,6417.5 C 1014.5,6417.33 1098.5,6417.5 1182.5,6418C 1221.39,6418.41 1257.05,6429.08 1289.5,6450C 1319.18,6473.52 1335.68,6504.35 1339,6542.5C 1345.27,6587.75 1334.27,6628.09 1306,6663.5C 1282.64,6687.44 1254.48,6702.94 1221.5,6710C 1209.61,6712.49 1197.61,6714.15 1185.5,6715C 1100.5,6715.5 1015.5,6715.67 930.5,6715.5C 930.5,6616.17 930.5,6516.83 930.5,6417.5 Z"/></g>
<g><path style="opacity:0.993" fill="#d7b568" d="M 1901.5,5901.5 C 1953.07,5901.17 2004.57,5901.5 2056,5902.5C 2167.67,6205.5 2279.33,6508.5 2391,6811.5C 2392.43,6821.75 2392.93,6832.09 2392.5,6842.5C 2345.83,6842.83 2299.16,6842.5 2252.5,6841.5C 2224.17,6762.17 2195.83,6682.83 2167.5,6603.5C 2041.17,6602.33 1914.83,6602.17 1788.5,6603C 1760.27,6682.52 1731.94,6762.02 1703.5,6841.5C 1657.84,6842.5 1612.17,6842.83 1566.5,6842.5C 1566.33,6832.49 1566.5,6822.49 1567,6812.5C 1678.52,6508.81 1790.02,6205.14 1901.5,5901.5 Z M 1977.5,6068.5 C 2026.4,6204.54 2074.74,6340.88 2122.5,6477.5C 2025.83,6477.67 1929.17,6477.5 1832.5,6477C 1881.13,6340.94 1929.46,6204.77 1977.5,6068.5 Z"/></g>
<g><path style="opacity:0.995" fill="#d7b568" d="M 2537.5,5901.5 C 2584.5,5901.17 2631.5,5901.5 2678.5,5902.5C 2827.75,6138.67 2977.25,6374.67 3127,6610.5C 3127.5,6374.17 3127.67,6137.83 3127.5,5901.5C 3172.17,5901.5 3216.83,5901.5 3261.5,5901.5C 3261.5,6215.17 3261.5,6528.83 3261.5,6842.5C 3214.17,6842.67 3166.83,6842.5 3119.5,6842C 2969.67,6606.83 2819.83,6371.67 2670,6136.5C 2669.5,6371.83 2669.33,6607.17 2669.5,6842.5C 2625.5,6842.5 2581.5,6842.5 2537.5,6842.5C 2537.5,6528.83 2537.5,6215.17 2537.5,5901.5 Z"/></g>
<g><path style="opacity:0.994" fill="#d7b568" d="M 3496.5,5901.5 C 3607.17,5901.33 3717.83,5901.5 3828.5,5902C 3920.06,5904.07 4001.39,5933.4 4072.5,5990C 4132.43,6042.65 4173.6,6107.49 4196,6184.5C 4214.12,6245.68 4222.62,6308.18 4221.5,6372C 4223.28,6455.76 4208.11,6536.26 4176,6613.5C 4123.26,6730.23 4034.43,6803.06 3909.5,6832C 3882.12,6837.71 3854.45,6841.05 3826.5,6842C 3716.5,6842.5 3606.5,6842.67 3496.5,6842.5C 3496.5,6528.83 3496.5,6215.17 3496.5,5901.5 Z M 3631.5,6029.5 C 3691.5,6029.33 3751.5,6029.5 3811.5,6030C 3931.18,6036.4 4012.68,6095.23 4056,6206.5C 4077.94,6270.71 4086.61,6336.71 4082,6404.5C 4079.92,6467.8 4064.26,6527.47 4035,6583.5C 3994.19,6654.19 3933.36,6696.69 3852.5,6711C 3840.56,6712.92 3828.56,6714.25 3816.5,6715C 3754.83,6715.5 3693.17,6715.67 3631.5,6715.5C 3631.5,6486.83 3631.5,6258.17 3631.5,6029.5 Z"/></g>
<g><path style="opacity:0.994" fill="#d7b568" d="M 4405.5,5901.5 C 4606.83,5901.5 4808.17,5901.5 5009.5,5901.5C 5009.5,5944.17 5009.5,5986.83 5009.5,6029.5C 4853.17,6029.5 4696.83,6029.5 4540.5,6029.5C 4540.5,6117.5 4540.5,6205.5 4540.5,6293.5C 4683.5,6293.5 4826.5,6293.5 4969.5,6293.5C 4969.5,6336.17 4969.5,6378.83 4969.5,6421.5C 4826.5,6421.5 4683.5,6421.5 4540.5,6421.5C 4540.5,6519.5 4540.5,6617.5 4540.5,6715.5C 4696.83,6715.5 4853.17,6715.5 5009.5,6715.5C 5009.5,6757.83 5009.5,6800.17 5009.5,6842.5C 4808.17,6842.5 4606.83,6842.5 4405.5,6842.5C 4405.5,6528.83 4405.5,6215.17 4405.5,5901.5 Z"/></g>
<g><path style="opacity:0.994" fill="#d7b568" d="M 5193.5,5901.5 C 5240.5,5901.17 5287.5,5901.5 5334.5,5902.5C 5483.75,6138.67 5633.25,6374.67 5783,6610.5C 5783.5,6374.17 5783.67,6137.83 5783.5,5901.5C 5828.17,5901.5 5872.83,5901.5 5917.5,5901.5C 5917.5,6215.17 5917.5,6528.83 5917.5,6842.5C 5869.93,6842.83 5822.43,6842.5 5775,6841.5C 5625.33,6606.5 5475.67,6371.5 5326,6136.5C 5325.5,6371.83 5325.33,6607.17 5325.5,6842.5C 5281.5,6842.5 5237.5,6842.5 5193.5,6842.5C 5193.5,6528.83 5193.5,6215.17 5193.5,5901.5 Z"/></g>
<g><path style="opacity:0.99" fill="#d7b568" d="M 6152.5,5901.5 C 6198.17,5901.5 6243.83,5901.5 6289.5,5901.5C 6289.5,6215.17 6289.5,6528.83 6289.5,6842.5C 6243.83,6842.5 6198.17,6842.5 6152.5,6842.5C 6152.5,6528.83 6152.5,6215.17 6152.5,5901.5 Z"/></g>
<g><path style="opacity:0.993" fill="#d7b568" d="M 6769.5,5901.5 C 6821.07,5901.17 6872.57,5901.5 6924,5902.5C 7035.67,6205.5 7147.33,6508.5 7259,6811.5C 7260.43,6821.75 7260.93,6832.09 7260.5,6842.5C 7213.83,6842.83 7167.16,6842.5 7120.5,6841.5C 7092.17,6762.17 7063.83,6682.83 7035.5,6603.5C 6909.17,6602.17 6782.83,6602.17 6656.5,6603.5C 6628.17,6682.83 6599.83,6762.17 6571.5,6841.5C 6525.84,6842.5 6480.17,6842.83 6434.5,6842.5C 6434.33,6832.49 6434.5,6822.49 6435,6812.5C 6546.52,6508.81 6658.02,6205.14 6769.5,5901.5 Z M 6845.5,6067.5 C 6894.21,6203.95 6942.54,6340.62 6990.5,6477.5C 6893.83,6477.67 6797.17,6477.5 6700.5,6477C 6749.33,6340.67 6797.67,6204.17 6845.5,6067.5 Z"/></g>
<g><path style="opacity:0.958" fill="#d7b568" d="M 7365.5,5913.5 C 7394.5,5913.33 7423.5,5913.5 7452.5,5914C 7489.07,5914.57 7506.24,5933.07 7504,5969.5C 7501.77,5982.81 7494.93,5992.98 7483.5,6000C 7475.5,6004.08 7467.17,6007.08 7458.5,6009C 7468.2,6014.36 7476.37,6021.53 7483,6030.5C 7494.83,6048.83 7506.67,6067.17 7518.5,6085.5C 7508.52,6086.67 7498.52,6086.83 7488.5,6086C 7475.45,6064.06 7461.28,6042.89 7446,6022.5C 7440.66,6016.75 7434.16,6012.91 7426.5,6011C 7414.17,6010.5 7401.84,6010.33 7389.5,6010.5C 7389.5,6035.83 7389.5,6061.17 7389.5,6086.5C 7381.5,6086.5 7373.5,6086.5 7365.5,6086.5C 7365.5,6028.83 7365.5,5971.17 7365.5,5913.5 Z M 7389.5,5933.5 C 7389.5,5952.17 7389.5,5970.83 7389.5,5989.5C 7410.17,5989.67 7430.84,5989.5 7451.5,5989C 7463.84,5988.26 7472.67,5982.43 7478,5971.5C 7482.77,5948.56 7473.27,5936.06 7449.5,5934C 7429.5,5933.5 7409.5,5933.33 7389.5,5933.5 Z"/></g>
<g><path style="opacity:0.984" fill="#d7b568" d="M 1497.5,7215.5 C 1541.21,7210.93 1581.21,7220.76 1617.5,7245C 1626.31,7251.31 1633.98,7258.81 1640.5,7267.5C 1626.15,7282.02 1611.31,7296.02 1596,7309.5C 1567.16,7277.89 1531.99,7267.72 1490.5,7279C 1456.58,7290.25 1436.08,7313.42 1429,7348.5C 1422.21,7384.45 1431.71,7415.29 1457.5,7441C 1491.86,7466.69 1528.52,7470.36 1567.5,7452C 1577.89,7445.28 1587.39,7437.44 1596,7428.5C 1610.65,7441.82 1625.32,7455.15 1640,7468.5C 1639.96,7470.28 1639.29,7471.95 1638,7473.5C 1605.44,7507.59 1565.44,7523.92 1518,7522.5C 1463.39,7523.36 1419.06,7502.69 1385,7460.5C 1359.12,7422.1 1350.79,7380.1 1360,7334.5C 1374.24,7276.93 1409.74,7239.43 1466.5,7222C 1476.85,7219.23 1487.18,7217.06 1497.5,7215.5 Z"/></g>
<g><path style="opacity:0.986" fill="#d7b568" d="M 3616.5,7215.5 C 3656.21,7211.54 3693.54,7219.04 3728.5,7238C 3741.15,7245.47 3752.15,7254.97 3761.5,7266.5C 3746.83,7280.34 3732,7294 3717,7307.5C 3683.24,7275.01 3644.07,7266.51 3599.5,7282C 3562.8,7299.1 3544.13,7328.1 3543.5,7369C 3545.34,7415.14 3568.01,7445.47 3611.5,7460C 3639.59,7466.97 3666.42,7463.8 3692,7450.5C 3692.5,7421.5 3692.67,7392.5 3692.5,7363.5C 3713.5,7363.5 3734.5,7363.5 3755.5,7363.5C 3755.83,7404.51 3755.5,7445.51 3754.5,7486.5C 3701.92,7521.15 3644.92,7530.99 3583.5,7516C 3518.46,7494.96 3481.96,7450.46 3474,7382.5C 3470.38,7308.52 3502.22,7256.69 3569.5,7227C 3584.88,7221.4 3600.55,7217.57 3616.5,7215.5 Z"/></g>
<g><path style="opacity:0.986" fill="#d7b568" d="M 5062.5,7215.5 C 5107.83,7211 5149.16,7221.5 5186.5,7247C 5231.11,7283.1 5250.61,7329.93 5245,7387.5C 5236.55,7447.94 5204.05,7489.44 5147.5,7512C 5115.19,7522.83 5082.19,7525.5 5048.5,7520C 4994.17,7509.6 4955.33,7479.44 4932,7429.5C 4914.16,7381.79 4917.16,7335.45 4941,7290.5C 4969.66,7246.57 5010.16,7221.57 5062.5,7215.5 Z M 5073.5,7274.5 C 5111.53,7271.93 5141.03,7286.27 5162,7317.5C 5177.58,7346.92 5179.58,7377.25 5168,7408.5C 5149.05,7447.91 5117.55,7466.07 5073.5,7463C 5027.25,7456.09 5000.09,7429.59 4992,7383.5C 4987.42,7348.56 4997.92,7319.06 5023.5,7295C 5038.31,7283.42 5054.98,7276.59 5073.5,7274.5 Z"/></g>
<g><path style="opacity:0.986" fill="#d7b568" d="M 5986.5,7215.5 C 6026.21,7211.54 6063.54,7219.04 6098.5,7238C 6111.15,7245.47 6122.15,7254.97 6131.5,7266.5C 6116.83,7280.34 6102,7294 6087,7307.5C 6053.24,7275.01 6014.07,7266.51 5969.5,7282C 5932.8,7299.1 5914.13,7328.1 5913.5,7369C 5915.34,7415.14 5938.01,7445.47 5981.5,7460C 6009.59,7466.97 6036.42,7463.8 6062,7450.5C 6062.5,7421.5 6062.67,7392.5 6062.5,7363.5C 6083.5,7363.5 6104.5,7363.5 6125.5,7363.5C 6125.83,7404.51 6125.5,7445.51 6124.5,7486.5C 6071.92,7521.15 6014.92,7530.99 5953.5,7516C 5888.46,7494.96 5851.96,7450.46 5844,7382.5C 5840.38,7308.52 5872.22,7256.69 5939.5,7227C 5954.88,7221.4 5970.55,7217.57 5986.5,7215.5 Z"/></g>
<g><path style="opacity:0.986" fill="#d7b568" d="M 6633.5,7215.5 C 6673.21,7211.54 6710.54,7219.04 6745.5,7238C 6758.15,7245.47 6769.15,7254.97 6778.5,7266.5C 6763.83,7280.34 6749,7294 6734,7307.5C 6700.24,7275.01 6661.07,7266.51 6616.5,7282C 6579.8,7299.1 6561.13,7328.1 6560.5,7369C 6562.34,7415.14 6585.01,7445.47 6628.5,7460C 6656.59,7466.97 6683.42,7463.8 6709,7450.5C 6709.5,7421.5 6709.67,7392.5 6709.5,7363.5C 6730.5,7363.5 6751.5,7363.5 6772.5,7363.5C 6772.83,7404.51 6772.5,7445.51 6771.5,7486.5C 6718.92,7521.15 6661.92,7530.99 6600.5,7516C 6535.46,7494.96 6498.96,7450.46 6491,7382.5C 6487.38,7308.52 6519.22,7256.69 6586.5,7227C 6601.88,7221.4 6617.55,7217.57 6633.5,7215.5 Z"/></g>
<g><path style="opacity:0.99" fill="#d7b568" d="M 4103.5,7219.5 C 4153.51,7219.1 4203.51,7219.6 4253.5,7221C 4286.67,7223.26 4314.84,7236.09 4338,7259.5C 4358.14,7285.83 4365.47,7315.5 4360,7348.5C 4356.05,7371.91 4345.22,7391.41 4327.5,7407C 4319.21,7413.13 4310.55,7418.63 4301.5,7423.5C 4323.41,7454.33 4345.08,7485.33 4366.5,7516.5C 4341.51,7517.67 4316.51,7517.83 4291.5,7517C 4272.96,7490.08 4254.29,7463.25 4235.5,7436.5C 4214.51,7435.5 4193.51,7435.17 4172.5,7435.5C 4172.5,7462.83 4172.5,7490.17 4172.5,7517.5C 4149.5,7517.5 4126.5,7517.5 4103.5,7517.5C 4103.5,7418.17 4103.5,7318.83 4103.5,7219.5 Z M 4172.5,7276.5 C 4192.17,7276.33 4211.84,7276.5 4231.5,7277C 4276.14,7278.28 4295.31,7300.78 4289,7344.5C 4282.58,7363.48 4269.41,7374.65 4249.5,7378C 4243.54,7379 4237.54,7379.66 4231.5,7380C 4211.84,7380.5 4192.17,7380.67 4172.5,7380.5C 4172.5,7345.83 4172.5,7311.17 4172.5,7276.5 Z"/></g>
<g><path style="opacity:0.99" fill="#d7b568" d="M 5297.5,7219.5 C 5347.51,7219.1 5397.51,7219.6 5447.5,7221C 5480.67,7223.26 5508.84,7236.09 5532,7259.5C 5552.14,7285.83 5559.47,7315.5 5554,7348.5C 5550.05,7371.91 5539.22,7391.41 5521.5,7407C 5513.21,7413.13 5504.55,7418.63 5495.5,7423.5C 5517.41,7454.33 5539.08,7485.33 5560.5,7516.5C 5535.51,7517.67 5510.51,7517.83 5485.5,7517C 5466.96,7490.08 5448.29,7463.25 5429.5,7436.5C 5408.51,7435.5 5387.51,7435.17 5366.5,7435.5C 5366.5,7462.83 5366.5,7490.17 5366.5,7517.5C 5343.5,7517.5 5320.5,7517.5 5297.5,7517.5C 5297.5,7418.17 5297.5,7318.83 5297.5,7219.5 Z M 5366.5,7276.5 C 5386.17,7276.33 5405.84,7276.5 5425.5,7277C 5470.14,7278.28 5489.31,7300.78 5483,7344.5C 5476.58,7363.48 5463.41,7374.65 5443.5,7378C 5437.54,7379 5431.54,7379.66 5425.5,7380C 5405.84,7380.5 5386.17,7380.67 5366.5,7380.5C 5366.5,7345.83 5366.5,7311.17 5366.5,7276.5 Z"/></g>
<g><path style="opacity:0.991" fill="#d7b568" d="M 5570.5,7219.5 C 5656.83,7219.5 5743.17,7219.5 5829.5,7219.5C 5829.5,7238.5 5829.5,7257.5 5829.5,7276.5C 5797.83,7276.5 5766.17,7276.5 5734.5,7276.5C 5734.5,7356.83 5734.5,7437.17 5734.5,7517.5C 5711.5,7517.5 5688.5,7517.5 5665.5,7517.5C 5665.5,7437.17 5665.5,7356.83 5665.5,7276.5C 5633.83,7276.5 5602.17,7276.5 5570.5,7276.5C 5570.5,7257.5 5570.5,7238.5 5570.5,7219.5 Z"/></g>
<g><path style="opacity:0.997" fill="#d7b568" d="M 1686.5,7220.5 C 1709.5,7220.5 1732.5,7220.5 1755.5,7220.5C 1755.5,7259.5 1755.5,7298.5 1755.5,7337.5C 1800.17,7337.5 1844.83,7337.5 1889.5,7337.5C 1889.5,7298.5 1889.5,7259.5 1889.5,7220.5C 1912.5,7220.5 1935.5,7220.5 1958.5,7220.5C 1958.5,7319.5 1958.5,7418.5 1958.5,7517.5C 1935.5,7517.5 1912.5,7517.5 1889.5,7517.5C 1889.5,7476.83 1889.5,7436.17 1889.5,7395.5C 1844.83,7395.5 1800.17,7395.5 1755.5,7395.5C 1755.5,7436.17 1755.5,7476.83 1755.5,7517.5C 1732.5,7517.5 1709.5,7517.5 1686.5,7517.5C 1686.5,7418.5 1686.5,7319.5 1686.5,7220.5 Z"/></g>
<g><path style="opacity:0.986" fill="#d7b568" d="M 2121.5,7220.5 C 2144.74,7220.17 2167.91,7220.51 2191,7221.5C 2235.13,7320.08 2278.96,7418.75 2322.5,7517.5C 2298.16,7517.83 2273.82,7517.5 2249.5,7516.5C 2240.96,7495.93 2232.3,7475.43 2223.5,7455C 2177.83,7454.17 2132.16,7454.33 2086.5,7455.5C 2077.59,7475.97 2069.26,7496.64 2061.5,7517.5C 2037.49,7517.83 2013.49,7517.5 1989.5,7516.5C 2033.51,7417.81 2077.51,7319.14 2121.5,7220.5 Z M 2154.5,7290.5 C 2155.5,7290.47 2156.16,7290.97 2156.5,7292C 2171.4,7328.21 2186.4,7364.37 2201.5,7400.5C 2170.83,7401.83 2140.17,7401.83 2109.5,7400.5C 2124.9,7363.96 2139.9,7327.29 2154.5,7290.5 Z"/></g>
<g><path style="opacity:0.997" fill="#d7b568" d="M 2353.5,7220.5 C 2376.5,7220.5 2399.5,7220.5 2422.5,7220.5C 2422.5,7300.83 2422.5,7381.17 2422.5,7461.5C 2472.17,7461.5 2521.83,7461.5 2571.5,7461.5C 2571.5,7480.17 2571.5,7498.83 2571.5,7517.5C 2498.83,7517.5 2426.17,7517.5 2353.5,7517.5C 2353.5,7418.5 2353.5,7319.5 2353.5,7220.5 Z"/></g>
<g><path style="opacity:0.997" fill="#d7b568" d="M 2609.5,7220.5 C 2632.5,7220.5 2655.5,7220.5 2678.5,7220.5C 2678.5,7300.83 2678.5,7381.17 2678.5,7461.5C 2728.17,7461.5 2777.83,7461.5 2827.5,7461.5C 2827.5,7480.17 2827.5,7498.83 2827.5,7517.5C 2754.83,7517.5 2682.17,7517.5 2609.5,7517.5C 2609.5,7418.5 2609.5,7319.5 2609.5,7220.5 Z"/></g>
<g><path style="opacity:0.99" fill="#d7b568" d="M 2865.5,7220.5 C 2940.5,7220.5 3015.5,7220.5 3090.5,7220.5C 3090.5,7239.17 3090.5,7257.83 3090.5,7276.5C 3038.5,7276.5 2986.5,7276.5 2934.5,7276.5C 2934.5,7297.83 2934.5,7319.17 2934.5,7340.5C 2980.17,7340.5 3025.83,7340.5 3071.5,7340.5C 3071.5,7358.5 3071.5,7376.5 3071.5,7394.5C 3025.83,7394.5 2980.17,7394.5 2934.5,7394.5C 2934.5,7416.83 2934.5,7439.17 2934.5,7461.5C 2988.17,7461.5 3041.83,7461.5 3095.5,7461.5C 3095.5,7480.17 3095.5,7498.83 3095.5,7517.5C 3018.83,7517.5 2942.17,7517.5 2865.5,7517.5C 2865.5,7418.5 2865.5,7319.5 2865.5,7220.5 Z"/></g>
<g><path style="opacity:0.993" fill="#d7b568" d="M 3149.5,7220.5 C 3168.84,7220.33 3188.17,7220.5 3207.5,7221C 3256,7280.17 3304.5,7339.33 3353,7398.5C 3353.5,7339.17 3353.67,7279.83 3353.5,7220.5C 3376.17,7220.5 3398.83,7220.5 3421.5,7220.5C 3421.5,7319.5 3421.5,7418.5 3421.5,7517.5C 3402.16,7517.83 3382.82,7517.5 3363.5,7516.5C 3314.76,7457.35 3266.26,7398.02 3218,7338.5C 3217.5,7398.17 3217.33,7457.83 3217.5,7517.5C 3194.83,7517.5 3172.17,7517.5 3149.5,7517.5C 3149.5,7418.5 3149.5,7319.5 3149.5,7220.5 Z"/></g>
<g><path style="opacity:0.99" fill="#d7b568" d="M 3819.5,7220.5 C 3894.5,7220.5 3969.5,7220.5 4044.5,7220.5C 4044.5,7239.17 4044.5,7257.83 4044.5,7276.5C 3992.5,7276.5 3940.5,7276.5 3888.5,7276.5C 3888.5,7297.83 3888.5,7319.17 3888.5,7340.5C 3934.17,7340.5 3979.83,7340.5 4025.5,7340.5C 4025.5,7358.5 4025.5,7376.5 4025.5,7394.5C 3979.83,7394.5 3934.17,7394.5 3888.5,7394.5C 3888.5,7416.83 3888.5,7439.17 3888.5,7461.5C 3942.17,7461.5 3995.83,7461.5 4049.5,7461.5C 4049.5,7480.17 4049.5,7498.83 4049.5,7517.5C 3972.83,7517.5 3896.17,7517.5 3819.5,7517.5C 3819.5,7418.5 3819.5,7319.5 3819.5,7220.5 Z"/></g>
<g><path style="opacity:0.989" fill="#d7b568" d="M 4534.5,7220.5 C 4554.08,7220.17 4573.58,7220.51 4593,7221.5C 4629.01,7282.2 4665.51,7342.53 4702.5,7402.5C 4738.74,7342.37 4774.74,7282.03 4810.5,7221.5C 4829.82,7220.5 4849.16,7220.17 4868.5,7220.5C 4869.31,7319.5 4869.64,7418.5 4869.5,7517.5C 4847.83,7517.5 4826.17,7517.5 4804.5,7517.5C 4804.49,7459.16 4803.99,7400.83 4803,7342.5C 4774.92,7390.33 4746.59,7438 4718,7485.5C 4707.24,7486.65 4696.41,7486.82 4685.5,7486C 4657,7439.5 4628.5,7393 4600,7346.5C 4599.5,7403.5 4599.33,7460.5 4599.5,7517.5C 4577.83,7517.5 4556.17,7517.5 4534.5,7517.5C 4534.5,7418.5 4534.5,7319.5 4534.5,7220.5 Z"/></g>
<g><path style="opacity:0.986" fill="#d7b568" d="M 6281.5,7220.5 C 6304.74,7220.17 6327.91,7220.51 6351,7221.5C 6395.13,7320.08 6438.96,7418.75 6482.5,7517.5C 6458.16,7517.83 6433.82,7517.5 6409.5,7516.5C 6400.96,7495.93 6392.3,7475.43 6383.5,7455C 6337.83,7454.17 6292.16,7454.33 6246.5,7455.5C 6237.59,7475.97 6229.26,7496.64 6221.5,7517.5C 6197.49,7517.83 6173.49,7517.5 6149.5,7516.5C 6193.51,7417.81 6237.51,7319.14 6281.5,7220.5 Z M 6314.5,7290.5 C 6315.5,7290.47 6316.16,7290.97 6316.5,7292C 6331.4,7328.21 6346.4,7364.37 6361.5,7400.5C 6330.83,7401.83 6300.17,7401.83 6269.5,7400.5C 6284.9,7363.96 6299.9,7327.29 6314.5,7290.5 Z"/></g>
<g><path style="opacity:0.99" fill="#d7b568" d="M 6835.5,7220.5 C 6910.5,7220.5 6985.5,7220.5 7060.5,7220.5C 7060.5,7239.17 7060.5,7257.83 7060.5,7276.5C 7008.5,7276.5 6956.5,7276.5 6904.5,7276.5C 6904.5,7297.83 6904.5,7319.17 6904.5,7340.5C 6950.17,7340.5 6995.83,7340.5 7041.5,7340.5C 7041.5,7358.5 7041.5,7376.5 7041.5,7394.5C 6995.83,7394.5 6950.17,7394.5 6904.5,7394.5C 6904.5,7416.83 6904.5,7439.17 6904.5,7461.5C 6958.17,7461.5 7011.83,7461.5 7065.5,7461.5C 7065.5,7480.17 7065.5,7498.83 7065.5,7517.5C 6988.83,7517.5 6912.17,7517.5 6835.5,7517.5C 6835.5,7418.5 6835.5,7319.5 6835.5,7220.5 Z"/></g>
<g><path style="opacity:0.988" fill="#d7b568" d="M 636.5,7342.5 C 769.833,7342.5 903.167,7342.5 1036.5,7342.5C 1036.5,7357.83 1036.5,7373.17 1036.5,7388.5C 903.167,7388.5 769.833,7388.5 636.5,7388.5C 636.5,7373.17 636.5,7357.83 636.5,7342.5 Z"/></g>
<g><path style="opacity:0.988" fill="#d7b568" d="M 7295.5,7342.5 C 7428.83,7342.5 7562.17,7342.5 7695.5,7342.5C 7695.5,7357.83 7695.5,7373.17 7695.5,7388.5C 7562.17,7388.5 7428.83,7388.5 7295.5,7388.5C 7295.5,7373.17 7295.5,7357.83 7295.5,7342.5 Z"/></g>
</svg>