<svg id="Layer_1" data-name="Layer 1" xmlns="http://www.w3.org/2000/svg" viewBox="0 0 512 300"><defs><style>.cls-1{fill:#5336ff;}.cls-2{fill:#0b2e4e;}</style></defs><path class="cls-1" d="M413.39,160.07l6.54-8.24,1.27-1.6-1-1.82-4.41-7.94c-1.47-2.65-3-5.29-4.45-7.93s-3-5.28-4.49-7.9l-2-3.54,1,0,6.09-.12,6.09-.14,4.74-.13,3.68,6,4.51,7.23,1.29,2.08,1.56-1.67c1.72-1.83,3.45-3.65,5.16-5.49s3.43-3.68,5.13-5.53l5.07-5.59c.85-.92,1.68-1.87,2.51-2.81s1.67-1.88,2.49-2.84c-1,.79-1.95,1.6-2.91,2.4s-1.94,1.6-2.9,2.42l-5.74,4.89q-2.86,2.46-5.69,4.94-1.93,1.68-3.84,3.38l-2.87-5.55-4-7.54-.63-1.2-1.5,0-6.09-.17-6.09-.14-6.09-.12-6.09-.1-5-.08,2.42,4.51c1.43,2.67,2.9,5.31,4.35,8s2.92,5.32,4.4,8,2.93,5.3,4.42,7.93l3.47,6.15-5.12,6.71-6.33,8.41c-4.19,5.62-8.37,11.25-12.48,16.94s-8.2,11.39-12.22,17.15c-2,2.88-4,5.77-6,8.68s-3.94,5.82-5.85,8.77c2.39-2.58,4.74-5.2,7.06-7.83s4.65-5.27,6.95-7.92q6.9-8,13.62-16.06t13.36-16.26Z"/><path class="cls-1" d="M487.48,91.49q-3.51,3.93-7,7.92-6.88,8-13.62,16.06t-13.36,16.26l-6.59,8.2-6.54,8.24-1.27,1.59,1,1.82,4.41,7.95c1.47,2.65,3,5.28,4.45,7.92s3,5.28,4.49,7.91l2,3.53-1,0-6.09.12-6.09.14-4.75.13-3.67-6-4.51-7.24L428.14,164l-1.57,1.66c-1.71,1.83-3.45,3.65-5.16,5.5s-3.42,3.67-5.12,5.53l-5.08,5.58c-.84.93-1.67,1.88-2.51,2.82s-1.67,1.88-2.49,2.83c1-.79,2-1.59,2.92-2.4s1.94-1.6,2.89-2.42l5.74-4.89c1.91-1.64,3.81-3.28,5.7-4.94l3.83-3.38,2.88,5.56,4,7.54.64,1.19,1.49,0,6.09.17,6.09.14,6.09.12,6.09.1,5,.08-2.41-4.5c-1.43-2.68-2.91-5.32-4.36-8s-2.92-5.31-4.39-8-2.94-5.3-4.43-7.94l-3.47-6.14,5.12-6.71,6.33-8.41c4.19-5.62,8.37-11.25,12.48-16.94s8.2-11.39,12.22-17.15q3-4.32,6-8.68t5.85-8.77C492.15,86.24,489.81,88.86,487.48,91.49Z"/><path class="cls-2" d="M44.15,175q-13,0-19.84-6.73t-6.86-21.09q0-13.86,6.53-21t20.17-7.1a37.39,37.39,0,0,1,8.62,1,49.93,49.93,0,0,1,8.54,2.89V135.6a34.14,34.14,0,0,0-8.14-4.13,22.72,22.72,0,0,0-7-1.24,16,16,0,0,0-7.37,1.56A10.36,10.36,0,0,0,34.09,137c-1.1,2.47-1.64,5.88-1.64,10.27a24.6,24.6,0,0,0,1.68,10A10,10,0,0,0,39,162.49,18.33,18.33,0,0,0,46.8,164a21.55,21.55,0,0,0,6.45-1.2,34.82,34.82,0,0,0,8.06-4v12.51a28.48,28.48,0,0,1-5.09,2,48,48,0,0,1-6.1,1.32A41.2,41.2,0,0,1,44.15,175Z"/><path class="cls-2" d="M84.4,175.12a36.56,36.56,0,0,1-7.26-.68,17,17,0,0,1-5.81-2.29,10.91,10.91,0,0,1-3.89-4.41,15.26,15.26,0,0,1-1.4-6.9,12.52,12.52,0,0,1,1.52-6.25,10.7,10.7,0,0,1,4.73-4.33,18.25,18.25,0,0,1,8.18-1.6,22.27,22.27,0,0,1,5.21.6,23.07,23.07,0,0,1,4.65,1.6,10.78,10.78,0,0,1,3.21,2.21L94,159a15.69,15.69,0,0,0-3.62-1.41,16.75,16.75,0,0,0-4.16-.52,10.81,10.81,0,0,0-5.34,1,3.52,3.52,0,0,0-1.64,3.25,3.82,3.82,0,0,0,.76,2.32,5.65,5.65,0,0,0,2,1.69,5.85,5.85,0,0,0,2.68.64,19,19,0,0,0,5.26-.48,1.94,1.94,0,0,0,1.4-2V149.37q0-3.52-2.28-5.09a11.4,11.4,0,0,0-6.46-1.57,20.24,20.24,0,0,0-7.21,1.37,20.59,20.59,0,0,0-5.7,3V135.5A21.76,21.76,0,0,1,76,133.09,41.89,41.89,0,0,1,86.25,132a36.75,36.75,0,0,1,4,.28,25.48,25.48,0,0,1,4.81,1.08,16.44,16.44,0,0,1,4.57,2.37,11.14,11.14,0,0,1,3.41,4.16,14.85,14.85,0,0,1,1.28,6.54l-.08,19.08a7.19,7.19,0,0,1-2.28,5.45,14.13,14.13,0,0,1-6.69,3.17A49.6,49.6,0,0,1,84.4,175.12Z"/><path class="cls-2" d="M151.18,146.34v27.57H137.87V149.38a9.2,9.2,0,0,0-.41-2.85,4.48,4.48,0,0,0-1.28-2,5.65,5.65,0,0,0-2.25-1.21,11.63,11.63,0,0,0-3.28-.4,9.63,9.63,0,0,0-3,.44,5.92,5.92,0,0,0-1.88.92v29.67H112.45v-37.2a21.24,21.24,0,0,1,4-1.6c1.72-.54,3.61-1,5.7-1.49s4.19-.83,6.33-1.12a43.94,43.94,0,0,1,5.85-.44,28.41,28.41,0,0,1,9.14,1.28,10.57,10.57,0,0,1,5.73,4.41C150.53,139.84,151.18,142.7,151.18,146.34Zm-13.31-6.66a24.14,24.14,0,0,1,6.21-3.93,45.33,45.33,0,0,1,7.82-2.68,32,32,0,0,1,7.62-1,28.74,28.74,0,0,1,9.14,1.28,10.57,10.57,0,0,1,5.73,4.41q2,3.13,2,8.58v27.58H163V149.38a9.41,9.41,0,0,0-.4-2.84,4.68,4.68,0,0,0-1.29-2,5.76,5.76,0,0,0-2.25-1.2,11.55,11.55,0,0,0-3.28-.41,8.56,8.56,0,0,0-3,.49,4.48,4.48,0,0,0-1.88,1.12Z"/><path class="cls-2" d="M207.7,175.12c-.75,0-1.9-.05-3.45-.16a19.59,19.59,0,0,1-4.89-1A10.57,10.57,0,0,1,195,171l2.49-4.17v20.93h-13v-45.7a7.12,7.12,0,0,1,1.53-4.57,11.44,11.44,0,0,1,4.2-3.21,24.54,24.54,0,0,1,6.34-1.92,45.38,45.38,0,0,1,7.9-.64,27.5,27.5,0,0,1,11,2,15.22,15.22,0,0,1,7.34,6.86q2.64,4.82,2.64,13.15a26.81,26.81,0,0,1-2.17,11.14,17.42,17.42,0,0,1-6.09,7.49A16.36,16.36,0,0,1,207.7,175.12Zm-4.33-10.5a10.58,10.58,0,0,0,4.85-1,6.35,6.35,0,0,0,3-3.44,18.83,18.83,0,0,0,1-6.86,18.39,18.39,0,0,0-.8-5.81,6.54,6.54,0,0,0-2.61-3.52,9,9,0,0,0-4.93-1.16c-2.51,0-4.2.22-5.09.68a2,2,0,0,0-1.32,1.8v17.88a11.8,11.8,0,0,0,3,1.08A13.72,13.72,0,0,0,203.37,164.62Z"/><path class="cls-2" d="M247.14,175.12a36.38,36.38,0,0,1-7.25-.68,16.86,16.86,0,0,1-5.81-2.29,10.91,10.91,0,0,1-3.89-4.41,15.26,15.26,0,0,1-1.41-6.9,12.53,12.53,0,0,1,1.53-6.25,10.65,10.65,0,0,1,4.73-4.33,18.2,18.2,0,0,1,8.17-1.6,22.3,22.3,0,0,1,5.22.6,23.07,23.07,0,0,1,4.65,1.6,10.72,10.72,0,0,1,3.2,2.21l.4,5.93a15.7,15.7,0,0,0-3.6-1.41,16.89,16.89,0,0,0-4.17-.52,10.74,10.74,0,0,0-5.33,1,3.51,3.51,0,0,0-1.65,3.25,3.83,3.83,0,0,0,.77,2.32,5.53,5.53,0,0,0,2,1.69,5.89,5.89,0,0,0,2.69.64,19,19,0,0,0,5.25-.48,1.94,1.94,0,0,0,1.4-2V149.37q0-3.52-2.28-5.09a11.34,11.34,0,0,0-6.45-1.57,20.26,20.26,0,0,0-7.22,1.37,20.51,20.51,0,0,0-5.69,3V135.5a21.56,21.56,0,0,1,6.37-2.41A42,42,0,0,1,249,132a36.58,36.58,0,0,1,4,.28,25.3,25.3,0,0,1,4.81,1.08,16.5,16.5,0,0,1,4.58,2.37,11.21,11.21,0,0,1,3.4,4.16,14.85,14.85,0,0,1,1.29,6.54L267,165.48a7.17,7.17,0,0,1-2.29,5.45,14.08,14.08,0,0,1-6.69,3.17A49.54,49.54,0,0,1,247.14,175.12Z"/><path class="cls-2" d="M275.2,128.05V118.2h13.63v9.85Zm.17,45.87v-40h13.31l.16,40Z"/><path class="cls-2" d="M312.32,175.12a21.76,21.76,0,0,1-9.34-2.53,15,15,0,0,1-6.17-6.57,24.64,24.64,0,0,1-2.21-11.18,33.35,33.35,0,0,1,1.6-11.11,16.12,16.12,0,0,1,4.66-7,18.14,18.14,0,0,1,7.45-3.65,42.27,42.27,0,0,1,10-1.08,28.16,28.16,0,0,1,9.18,1.33,12.77,12.77,0,0,1,5.85,3.81,9.15,9.15,0,0,1,2,6v31a19.8,19.8,0,0,1-1.48,8,14.35,14.35,0,0,1-4.33,5.61,18.82,18.82,0,0,1-6.77,3.33A33.29,33.29,0,0,1,314,192.2a50.61,50.61,0,0,1-9.7-.8,21.45,21.45,0,0,1-6-1.93v-11.7a27.16,27.16,0,0,0,3.65,1.48,42.81,42.81,0,0,0,5.53,1.45,32.07,32.07,0,0,0,6.13.6,11.74,11.74,0,0,0,5.3-1,5.85,5.85,0,0,0,2.72-2.73,9.37,9.37,0,0,0,.8-4v-6.66l2.49,1.61A14.61,14.61,0,0,1,322,172a12.36,12.36,0,0,1-4,2.33A17.17,17.17,0,0,1,312.32,175.12Zm3.77-9.7a13.4,13.4,0,0,0,3.48-.41,9.78,9.78,0,0,0,2.85-1.2V146.18a3.19,3.19,0,0,0-.84-2.41,4.47,4.47,0,0,0-2.21-1.08,13.57,13.57,0,0,0-2.8-.28,8.48,8.48,0,0,0-5.13,1.41,7.93,7.93,0,0,0-2.8,4,19.56,19.56,0,0,0-.88,6.18q0,5.29,2.4,8.34A7.27,7.27,0,0,0,316.09,165.42Z"/><path class="cls-2" d="M342.87,136.71a22.84,22.84,0,0,1,4-1.6c1.71-.53,3.6-1,5.69-1.48s4.2-.83,6.33-1.12a42.44,42.44,0,0,1,5.85-.45,30,30,0,0,1,9.31,1.29,11.28,11.28,0,0,1,6.05,4.41q2.11,3.12,2.12,8.58v27.57H369V149.38a8.36,8.36,0,0,0-.45-2.85,4.82,4.82,0,0,0-1.32-2,5.78,5.78,0,0,0-2.25-1.21,11.63,11.63,0,0,0-3.28-.4,13.13,13.13,0,0,0-3.29.44,6.37,6.37,0,0,0-2.25.92v29.67h-13.3Z"/></svg>