<svg width="97" height="53" viewBox="0 0 97 53" fill="none" xmlns="http://www.w3.org/2000/svg">
<path d="M0 41.9999V9.98389H7.776V22.9439H19.536V9.98389H27.264V41.9999H19.536V29.2799H7.776V41.9999H0Z" fill="#2BA3C2"/>
<path d="M19.0781 41.9999V9.98389H34.6781C38.2941 9.98389 41.1261 10.8319 43.1741 12.5279C45.2221 14.1919 46.2461 16.7359 46.2461 20.1599C46.2461 21.5679 45.9581 22.9599 45.3821 24.3359C44.8061 25.6799 43.9581 26.8479 42.8381 27.8399C41.7181 28.7999 40.3101 29.4239 38.6141 29.7119L38.1341 27.0719L47.8781 41.9999H37.9901L29.9741 28.0319L33.4301 30.9599H26.8541V41.9999H19.0781ZM26.8541 25.2479H33.3821C34.7581 25.2479 35.8461 24.8799 36.6461 24.1439C37.4461 23.4079 37.8461 22.1919 37.8461 20.4959C37.8461 19.0239 37.4781 17.9039 36.7421 17.1359C36.0381 16.3679 35.0301 15.9839 33.7181 15.9839H26.8541V25.2479Z" fill="#2BA3C2"/>
<path d="M64.293 30.5222L66.8621 27.2306L67.3603 26.5922L66.9626 25.8653L65.229 22.6918C64.6526 21.6333 64.0651 20.5792 63.482 19.5252C62.8989 18.4712 62.3136 17.4171 61.7193 16.3676C61.4535 15.8974 61.1899 15.4272 60.924 14.9547L61.3127 14.9479L63.7054 14.9001L66.0981 14.8434L67.9635 14.7911L69.4067 17.1831L71.1783 20.0727L71.6854 20.9018L72.2998 20.2362C72.9744 19.5047 73.6558 18.7778 74.3283 18.0418C75.0029 17.3081 75.6732 16.5721 76.3411 15.8315L78.3339 13.6008C78.6668 13.2305 78.9929 12.8511 79.3213 12.4763C79.6497 12.1015 79.9782 11.7244 80.2999 11.3428C79.9156 11.6585 79.5336 11.9811 79.1538 12.3014C78.774 12.6217 78.392 12.942 78.0167 13.2691L75.7603 15.2227C75.0119 15.877 74.2657 16.5357 73.524 17.1968C73.0191 17.6443 72.5165 18.0941 72.016 18.5461L70.8878 16.3267L69.3285 13.3146L69.0805 12.8375L68.493 12.8216L66.1003 12.7535L63.7076 12.6967L61.315 12.649L58.9223 12.6103L56.9541 12.5785L57.9014 14.3777C58.4643 15.4453 59.043 16.5016 59.6126 17.5648C60.1823 18.6279 60.7609 19.6865 61.3396 20.7428C61.9182 21.8014 62.4923 22.8599 63.0799 23.9117L64.4426 26.3673L62.4298 29.0501L59.9433 32.4076C58.2968 34.6543 56.6548 36.9055 55.0396 39.1771C53.4199 41.4442 51.8181 43.7272 50.2386 46.0283C49.4478 47.1778 48.6636 48.3318 47.8906 49.4948C47.1132 50.6534 46.3447 51.821 45.5918 53C46.5323 51.9686 47.455 50.9237 48.3687 49.8719C49.2891 48.8247 50.1962 47.7684 51.0987 46.7075C52.9038 44.5858 54.6866 42.4482 56.4515 40.2925C58.2186 38.1412 59.9634 35.9718 61.6992 33.7956L64.293 30.5222Z" fill="#0C4854"/>
<path d="M93.4035 3.1235C92.4831 4.17072 91.5761 5.22703 90.6735 6.28788C88.8684 8.40958 87.0857 10.5472 85.3208 12.703C83.5536 14.8542 81.8088 17.0236 80.073 19.1998L77.4815 22.4755L74.9124 25.7671L74.4142 26.4055L74.8118 27.1324L76.5455 30.3059C77.1218 31.3644 77.7094 32.4185 78.2925 33.4725C78.8756 34.5265 79.4609 35.5806 80.0551 36.6301C80.321 37.1003 80.5846 37.5705 80.8504 38.043L80.4617 38.0499L78.0691 38.0976L75.6764 38.1543L73.811 38.2066L72.3678 35.8146L70.5962 32.925L70.0891 32.0959L69.4747 32.7615C68.8 33.493 68.1186 34.2199 67.4462 34.9559C66.7715 35.6896 66.1013 36.4256 65.4333 37.1662L63.4406 39.3969C63.1077 39.7672 62.7815 40.1466 62.4531 40.5214C62.1247 40.8962 61.7963 41.2733 61.4746 41.6549C61.8589 41.3392 62.2409 41.0166 62.6207 40.6963C63.0005 40.376 63.3825 40.0557 63.7578 39.7286L66.0142 37.775C66.7626 37.1208 67.5088 36.462 68.2505 35.8009C68.7554 35.3534 69.258 34.9036 69.7584 34.4516L70.8866 36.671L72.446 39.6832L72.694 40.1602L73.2815 40.1761L75.6742 40.2442L78.0668 40.301L80.4595 40.3487L82.8521 40.3874L84.8203 40.4192L83.8731 38.62C83.3101 37.5524 82.7315 36.4961 82.1618 35.4329C81.5921 34.3698 81.0135 33.3112 80.4349 32.2549C79.8563 31.1963 79.2822 30.1378 78.6946 29.086L77.3318 26.6326L79.3447 23.9498L81.8312 20.5924C83.4777 18.3457 85.1197 16.0945 86.7349 13.8229C88.3546 11.5558 89.9564 9.27281 91.5359 6.97164C92.3267 5.8222 93.1109 4.66821 93.8838 3.50513C94.6613 2.3466 95.4298 1.17898 96.1827 0C95.2399 1.02678 94.3172 2.07173 93.4035 3.1235Z" fill="#2BA3C2"/>
</svg>
