<svg width="132" height="32" viewBox="0 0 145 48" fill="none" xmlns="http://www.w3.org/2000/svg">
<path d="M27.5716 27.3216V13.7858C27.5716 11.9751 27.9282 10.1823 28.6212 8.50948C29.3142 6.83671 30.33 5.31684 31.6104 4.03667C32.8909 2.7565 34.411 1.74111 36.0839 1.04849C37.7568 0.355876 39.5498 -0.00040499 41.3604 3.45469e-07V27.3154C41.3604 29.1439 40.634 30.8976 39.3411 32.1905C38.0481 33.4835 36.2945 34.2098 34.466 34.2098C32.6375 34.2098 30.8838 33.4835 29.5909 32.1905C28.2979 30.8976 27.5716 29.1439 27.5716 27.3154V27.3216ZM13.7858 27.6734C13.7858 27.5561 13.7858 27.4358 13.7858 27.3216V13.7858C13.7858 10.1296 12.3334 6.6231 9.74802 4.03776C7.16268 1.45243 3.65622 3.45469e-07 1.34384e-06 3.45469e-07V27.3154C-0.00119145 30.6242 0.791673 33.8849 2.31199 36.8237C3.83231 39.7625 6.03569 42.2935 8.73703 44.2042C11.4384 46.1148 14.5588 47.3493 17.8362 47.8039C21.1135 48.2585 24.4522 47.92 27.5716 46.8167C23.5959 45.4121 20.1448 42.8255 17.6808 39.404C15.2168 35.9824 13.8577 31.8893 13.7858 27.6734Z" fill="white"/>
<path d="M57.9916 31.5558C56.8776 31.574 55.7717 31.3639 54.7419 30.9386C53.8542 30.5688 53.1005 29.9368 52.5816 29.127C52.0372 28.1924 51.7716 27.1215 51.8163 26.0409V17.6126H55.2295V25.6736C55.2295 26.6797 55.4517 27.4204 55.8992 27.9018C56.3467 28.3832 57.0535 28.6301 58.0256 28.6301C58.9977 28.6301 59.6983 28.3863 60.1334 27.9018C60.5686 27.4173 60.7908 26.6673 60.7908 25.6736V17.6126H64.0466V26.0532C64.0466 27.9049 63.5086 29.2875 62.4326 30.201C61.3494 31.096 59.8742 31.5558 57.9916 31.5558Z" fill="white"/>
<path d="M74.5457 31.5311C74.1326 31.5242 73.7204 31.4922 73.3112 31.4354C72.7808 31.3668 72.2586 31.2448 71.7527 31.0713C71.2508 30.908 70.7884 30.6421 70.3948 30.2905L71.1447 29.1918V36.2899H67.7932V20.3531C67.7787 19.8203 67.9649 19.3016 68.3148 18.8995C68.7038 18.4791 69.1813 18.1502 69.7128 17.9366C70.3459 17.6719 71.0093 17.4863 71.6879 17.3842C72.4442 17.264 73.209 17.2052 73.9747 17.2083C75.1518 17.1884 76.3193 17.4232 77.3973 17.8965C78.4265 18.3703 79.2682 19.174 79.789 20.1803C80.3713 21.246 80.6624 22.7109 80.6624 24.5749C80.69 25.8355 80.4414 27.0869 79.9341 28.2413C79.4952 29.2399 78.7703 30.0861 77.8509 30.6731C76.8536 31.2685 75.7067 31.5662 74.5457 31.5311ZM73.7124 28.7351C74.3952 28.7612 75.0723 28.6023 75.6721 28.2752C76.2064 27.952 76.618 27.4602 76.8418 26.8772C77.1251 26.1031 77.2561 25.2815 77.2275 24.4577C77.2401 23.6922 77.1455 22.9287 76.9467 22.1893C76.7885 21.5751 76.4288 21.0318 75.9252 20.6463C75.3077 20.2416 74.5758 20.0477 73.8389 20.0939C73.1617 20.0646 72.4847 20.1555 71.8391 20.3624C71.3824 20.5414 71.154 20.7882 71.154 21.1123V28.0438C71.5568 28.2741 71.99 28.4466 72.4409 28.5561C72.8557 28.668 73.2828 28.7281 73.7124 28.7351Z" fill="white"/>
<path d="M87.6834 31.5558C86.8499 31.5712 86.0185 31.4673 85.2145 31.2472C84.5448 31.0462 83.8899 30.7987 83.2548 30.5065V27.4203C83.6683 27.6888 84.1003 27.9419 84.5602 28.1857C85.0289 28.4323 85.5237 28.6259 86.0354 28.7628C86.6003 28.911 87.1826 28.9826 87.7667 28.9758C88.3209 29.0159 88.8732 28.8751 89.3406 28.5746C89.5037 28.4592 89.6364 28.306 89.7272 28.1281C89.8181 27.9501 89.8644 27.7528 89.8622 27.553C89.8691 27.3901 89.8362 27.2279 89.7663 27.0806C89.6963 26.9332 89.5916 26.8052 89.461 26.7074C89.1423 26.4771 88.7877 26.3009 88.4117 26.1859C87.9827 26.0408 87.5229 25.8958 87.0414 25.7569C86.5796 25.645 86.1259 25.5017 85.6835 25.3279C85.2307 25.1563 84.8071 24.9158 84.4275 24.615C84.042 24.2989 83.7338 23.8988 83.5263 23.4454C83.2883 22.9 83.1734 22.3089 83.1899 21.7141C83.165 21.0033 83.3313 20.2988 83.6714 19.6741C83.9847 19.1284 84.4211 18.6634 84.946 18.3162C85.4703 17.9642 86.0536 17.7092 86.668 17.5632C87.2598 17.4133 87.8693 17.3448 88.4796 17.3595C89.3245 17.3514 90.1659 17.4689 90.9763 17.7083C91.5892 17.9143 92.1821 18.1756 92.7477 18.4891V21.2851C92.1305 20.9487 91.5133 20.6401 90.9361 20.3593C90.2991 20.0697 89.6051 19.9273 88.9055 19.9426C88.3401 19.9113 87.7771 20.0373 87.2791 20.3068C87.1018 20.4069 86.9547 20.5528 86.8532 20.7293C86.7517 20.9057 86.6994 21.1062 86.702 21.3098C86.6931 21.4761 86.7197 21.6424 86.7798 21.7977C86.8399 21.9531 86.9322 22.0939 87.0507 22.2109C87.3168 22.4548 87.6327 22.6381 87.9765 22.7479C88.3592 22.8837 88.7759 23.0133 89.2264 23.1368C89.6739 23.2602 90.1368 23.4022 90.609 23.5534C91.0833 23.7088 91.5348 23.9267 91.9515 24.2015C92.3822 24.4893 92.7335 24.881 92.973 25.3403C93.2535 25.9268 93.386 26.5732 93.3588 27.2228C93.3895 28.1424 93.0894 29.0424 92.5132 29.7596C91.9531 30.4078 91.223 30.8867 90.4053 31.1422C89.5266 31.4274 88.6072 31.567 87.6834 31.5558Z" fill="white"/>
<path d="M102.623 31.4508C101.75 31.4542 100.88 31.3231 100.046 31.062C99.2373 30.8128 98.4875 30.4011 97.843 29.8522C97.1645 29.2647 96.6356 28.5242 96.2999 27.6919C95.901 26.6787 95.71 25.5956 95.7382 24.507C95.7091 23.3723 95.8912 22.2421 96.2752 21.174C96.5911 20.3226 97.0966 19.5543 97.7535 18.9273C98.3802 18.346 99.1272 17.9098 99.9415 17.6496C100.798 17.3773 101.691 17.2409 102.589 17.2453C103.334 17.2458 104.077 17.3181 104.808 17.4614C105.506 17.59 106.188 17.7971 106.839 18.0786V21.0598C106.237 20.7992 105.619 20.5795 104.987 20.4025C104.385 20.2331 103.762 20.1469 103.136 20.1463C101.862 20.1463 100.877 20.4601 100.179 21.0876C99.4817 21.7151 99.1319 22.7366 99.1299 24.1521C99.1299 25.6427 99.4539 26.7352 100.096 27.4481C100.738 28.161 101.796 28.5067 103.265 28.5067C103.917 28.5027 104.565 28.3986 105.185 28.1981C105.762 28.0165 106.324 27.7916 106.867 27.5253V30.4818C106.242 30.7867 105.584 31.0207 104.907 31.1793C104.159 31.3568 103.393 31.4479 102.623 31.4508Z" fill="white"/>
<path d="M114.959 31.5558C114.233 31.5591 113.509 31.4878 112.798 31.3428C112.15 31.2123 111.531 30.9655 110.971 30.6145C110.432 30.2746 109.992 29.7975 109.697 29.2319C109.371 28.5211 109.21 27.7459 109.226 26.9642C109.241 26.1824 109.433 25.4143 109.786 24.7169C110.173 24.074 110.75 23.5671 111.437 23.2664C112.274 22.9125 113.177 22.741 114.085 22.7634C114.69 22.7609 115.294 22.8199 115.888 22.9393C116.405 23.0424 116.909 23.2039 117.391 23.4207C117.781 23.596 118.15 23.8166 118.489 24.0781L118.733 25.9853C118.291 25.7055 117.805 25.5021 117.295 25.3835C116.676 25.2245 116.039 25.1466 115.4 25.152C114.449 25.152 113.742 25.3053 113.277 25.6119C113.045 25.7659 112.858 25.9789 112.735 26.2288C112.613 26.4788 112.559 26.7569 112.579 27.0346C112.568 27.4343 112.702 27.8246 112.956 28.1332C113.211 28.4407 113.545 28.6732 113.922 28.806C114.317 28.9497 114.735 29.0218 115.156 29.019C115.874 29.0478 116.592 28.9793 117.292 28.8153C117.487 28.7729 117.661 28.6617 117.782 28.502C117.902 28.3423 117.962 28.1447 117.949 27.945V22.6276C117.949 21.7511 117.668 21.1092 117.116 20.708C116.563 20.3068 115.783 20.0908 114.777 20.0908C113.974 20.0963 113.178 20.2275 112.416 20.4796C111.703 20.6887 111.037 21.0312 110.453 21.4888V18.4027C111.127 18.0038 111.865 17.726 112.635 17.5817C113.657 17.3517 114.701 17.2399 115.749 17.2484C116.244 17.2507 116.738 17.291 117.227 17.3688C117.743 17.4473 118.247 17.5872 118.73 17.7854C119.213 17.985 119.659 18.2658 120.048 18.6156C120.451 18.9887 120.771 19.4417 120.989 19.9457C121.236 20.5547 121.355 21.2083 121.338 21.8653L121.313 28.2906C121.331 28.6539 121.269 29.0166 121.132 29.3534C120.995 29.6903 120.786 29.9932 120.52 30.2411C119.881 30.7701 119.111 31.1175 118.292 31.2472C117.194 31.4647 116.077 31.5681 114.959 31.5558Z" fill="white"/>
<path d="M128.501 31.1515H125.106V12.4773H128.501V31.1515Z" fill="white"/>
<path d="M138.256 31.5558C137.026 31.5818 135.811 31.2951 134.722 30.7225C133.718 30.1733 132.901 29.3374 132.374 28.3215C131.788 27.1419 131.503 25.8358 131.544 24.5194C131.544 22.1554 132.112 20.3459 133.25 19.0909C134.388 17.8358 135.995 17.2083 138.071 17.2083C139.54 17.2083 140.734 17.5324 141.644 18.1743C142.589 18.8623 143.287 19.8362 143.635 20.9518C144.074 22.3346 144.275 23.7821 144.228 25.2323H133.735L133.491 22.9208H141.496L140.854 23.8867C140.822 22.4733 140.575 21.4569 140.114 20.8376C139.657 20.2204 138.926 19.9118 137.926 19.9118C137.367 19.8984 136.816 20.0428 136.336 20.3284C135.848 20.6637 135.485 21.1508 135.302 21.7141C135.027 22.5729 134.904 23.4732 134.938 24.3743C134.938 25.7723 135.269 26.8432 135.92 27.5747C136.571 28.3061 137.58 28.6733 138.944 28.6733C139.481 28.6754 140.017 28.6226 140.543 28.5159C141.027 28.4133 141.503 28.2729 141.965 28.0962C142.404 27.9296 142.786 27.7691 143.104 27.624V30.6608C142.406 30.9448 141.682 31.1649 140.944 31.3181C140.058 31.489 139.158 31.5687 138.256 31.5558Z" fill="white"/>
</svg>
